G04 EAGLE Gerber RS-274X export*
G75*
%MOMM*%
%FSLAX34Y34*%
%LPD*%
%INTop Copper*%
%IPPOS*%
%AMOC8*
5,1,8,0,0,1.08239X$1,22.5*%
G01*
%ADD10R,1.000000X1.500000*%
%ADD11R,1.500000X1.000000*%
%ADD12R,6.000000X6.000000*%
%ADD13R,1.663700X0.533400*%
%ADD14R,0.558800X1.663700*%
%ADD15R,4.000000X4.500000*%
%ADD16R,3.261800X1.929100*%
%ADD17R,2.006600X0.762000*%
%ADD18R,1.447800X2.743200*%
%ADD19R,1.244600X1.244600*%
%ADD20R,2.641600X1.041400*%
%ADD21R,2.641600X1.549400*%
%ADD22C,1.422400*%
%ADD23R,1.450000X1.150000*%
%ADD24R,1.150000X2.700000*%
%ADD25R,1.300000X1.500000*%
%ADD26R,1.150000X1.450000*%
%ADD27R,1.500000X1.300000*%
%ADD28R,5.400000X6.200000*%
%ADD29R,1.000000X1.600000*%
%ADD30R,1.508000X1.508000*%
%ADD31C,1.508000*%
%ADD32R,0.730000X1.210000*%
%ADD33R,0.600000X1.200000*%
%ADD34C,2.032000*%
%ADD35R,1.397000X0.558800*%
%ADD36C,1.400000*%
%ADD37C,2.250000*%
%ADD38C,6.000000*%
%ADD39C,0.756400*%
%ADD40C,1.000000*%
%ADD41C,0.600000*%
%ADD42C,0.900000*%
%ADD43C,1.500000*%
%ADD44C,0.800000*%
%ADD45C,0.400000*%
%ADD46C,0.500000*%
%ADD47C,0.254000*%

G36*
X245979Y-385174D02*
X245979Y-385174D01*
X256025Y-383644D01*
X256108Y-383620D01*
X256192Y-383607D01*
X256321Y-383560D01*
X256331Y-383557D01*
X256335Y-383555D01*
X256343Y-383551D01*
X265651Y-379473D01*
X265725Y-379430D01*
X265803Y-379394D01*
X265915Y-379316D01*
X265924Y-379310D01*
X265927Y-379307D01*
X265935Y-379302D01*
X273870Y-372954D01*
X273930Y-372892D01*
X273996Y-372838D01*
X274084Y-372733D01*
X274091Y-372726D01*
X274094Y-372722D01*
X274099Y-372715D01*
X280121Y-364529D01*
X280142Y-364491D01*
X280170Y-364458D01*
X280188Y-364419D01*
X280213Y-364385D01*
X280271Y-364261D01*
X280276Y-364251D01*
X280277Y-364247D01*
X280281Y-364239D01*
X283979Y-354774D01*
X283990Y-354731D01*
X284008Y-354691D01*
X284046Y-354534D01*
X284900Y-349739D01*
X284901Y-349708D01*
X284909Y-349678D01*
X284919Y-349517D01*
X284919Y-16032D01*
X284904Y-15914D01*
X284897Y-15795D01*
X284884Y-15757D01*
X284879Y-15716D01*
X284836Y-15606D01*
X284799Y-15493D01*
X284777Y-15458D01*
X284762Y-15421D01*
X284693Y-15325D01*
X284629Y-15224D01*
X284599Y-15196D01*
X284576Y-15163D01*
X284484Y-15087D01*
X284397Y-15006D01*
X284362Y-14986D01*
X284331Y-14961D01*
X284223Y-14910D01*
X284119Y-14852D01*
X284079Y-14842D01*
X284043Y-14825D01*
X283926Y-14803D01*
X283811Y-14773D01*
X283751Y-14769D01*
X283731Y-14765D01*
X283710Y-14767D01*
X283650Y-14763D01*
X218027Y-14763D01*
X215237Y-11973D01*
X215237Y231973D01*
X218027Y234763D01*
X283650Y234763D01*
X283768Y234778D01*
X283887Y234785D01*
X283925Y234798D01*
X283966Y234803D01*
X284076Y234846D01*
X284189Y234883D01*
X284224Y234905D01*
X284261Y234920D01*
X284357Y234989D01*
X284458Y235053D01*
X284486Y235083D01*
X284519Y235106D01*
X284595Y235198D01*
X284676Y235285D01*
X284696Y235320D01*
X284721Y235351D01*
X284772Y235459D01*
X284830Y235563D01*
X284840Y235603D01*
X284857Y235639D01*
X284879Y235756D01*
X284909Y235871D01*
X284913Y235931D01*
X284917Y235951D01*
X284915Y235972D01*
X284919Y236032D01*
X284919Y350000D01*
X284917Y350021D01*
X284917Y350083D01*
X284629Y354475D01*
X284620Y354519D01*
X284620Y354563D01*
X284588Y354721D01*
X282315Y363206D01*
X282282Y363285D01*
X282259Y363368D01*
X282198Y363491D01*
X282194Y363500D01*
X282192Y363504D01*
X282188Y363512D01*
X277796Y371119D01*
X277744Y371188D01*
X277700Y371261D01*
X277610Y371364D01*
X277603Y371373D01*
X277600Y371375D01*
X277594Y371382D01*
X271382Y377594D01*
X271315Y377646D01*
X271253Y377706D01*
X271140Y377782D01*
X271131Y377789D01*
X271127Y377791D01*
X271119Y377796D01*
X263512Y382188D01*
X263433Y382221D01*
X263358Y382263D01*
X263229Y382307D01*
X263219Y382311D01*
X263214Y382312D01*
X263206Y382315D01*
X254721Y384588D01*
X254677Y384594D01*
X254635Y384608D01*
X254475Y384629D01*
X250083Y384917D01*
X250062Y384915D01*
X250000Y384919D01*
X-250000Y384919D01*
X-250021Y384917D01*
X-250083Y384917D01*
X-254475Y384629D01*
X-254519Y384620D01*
X-254563Y384620D01*
X-254721Y384588D01*
X-263206Y382315D01*
X-263285Y382282D01*
X-263368Y382259D01*
X-263491Y382198D01*
X-263500Y382194D01*
X-263504Y382192D01*
X-263512Y382188D01*
X-271119Y377796D01*
X-271188Y377744D01*
X-271261Y377700D01*
X-271364Y377610D01*
X-271373Y377603D01*
X-271375Y377600D01*
X-271382Y377594D01*
X-277594Y371382D01*
X-277646Y371315D01*
X-277706Y371253D01*
X-277782Y371140D01*
X-277789Y371131D01*
X-277791Y371127D01*
X-277796Y371119D01*
X-282188Y363512D01*
X-282221Y363433D01*
X-282263Y363358D01*
X-282307Y363229D01*
X-282311Y363219D01*
X-282312Y363214D01*
X-282315Y363206D01*
X-284588Y354721D01*
X-284594Y354677D01*
X-284608Y354635D01*
X-284629Y354475D01*
X-284686Y353596D01*
X-284769Y352327D01*
X-284770Y352327D01*
X-284770Y352326D01*
X-284917Y350083D01*
X-284915Y350062D01*
X-284919Y350000D01*
X-284919Y193159D01*
X-284902Y193022D01*
X-284889Y192883D01*
X-284882Y192864D01*
X-284879Y192844D01*
X-284828Y192715D01*
X-284781Y192584D01*
X-284770Y192567D01*
X-284762Y192548D01*
X-284681Y192436D01*
X-284603Y192321D01*
X-284587Y192307D01*
X-284576Y192291D01*
X-284468Y192202D01*
X-284364Y192110D01*
X-284346Y192101D01*
X-284331Y192088D01*
X-284205Y192029D01*
X-284081Y191966D01*
X-284061Y191961D01*
X-284043Y191953D01*
X-283907Y191927D01*
X-283771Y191896D01*
X-283750Y191897D01*
X-283731Y191893D01*
X-283592Y191901D01*
X-283453Y191906D01*
X-283433Y191911D01*
X-283413Y191913D01*
X-283281Y191955D01*
X-283147Y191994D01*
X-283130Y192004D01*
X-283111Y192011D01*
X-282993Y192085D01*
X-282873Y192156D01*
X-282852Y192174D01*
X-282842Y192181D01*
X-282828Y192196D01*
X-282753Y192262D01*
X-214452Y260563D01*
X-214434Y260586D01*
X-214411Y260605D01*
X-214336Y260711D01*
X-214257Y260814D01*
X-214245Y260841D01*
X-214228Y260865D01*
X-214182Y260987D01*
X-214130Y261106D01*
X-214126Y261135D01*
X-214115Y261163D01*
X-214101Y261292D01*
X-214081Y261420D01*
X-214083Y261450D01*
X-214080Y261479D01*
X-214098Y261607D01*
X-214110Y261737D01*
X-214120Y261765D01*
X-214124Y261794D01*
X-214177Y261946D01*
X-214275Y262183D01*
X-214275Y267817D01*
X-212119Y273021D01*
X-208135Y277005D01*
X-202931Y279161D01*
X-197297Y279161D01*
X-192093Y277005D01*
X-188109Y273021D01*
X-185961Y267836D01*
X-185936Y267792D01*
X-185920Y267746D01*
X-185858Y267655D01*
X-185804Y267559D01*
X-185769Y267524D01*
X-185741Y267483D01*
X-185659Y267410D01*
X-185582Y267331D01*
X-185540Y267305D01*
X-185503Y267272D01*
X-185405Y267222D01*
X-185311Y267165D01*
X-185264Y267150D01*
X-185219Y267127D01*
X-185112Y267103D01*
X-185007Y267071D01*
X-184958Y267069D01*
X-184909Y267058D01*
X-184799Y267061D01*
X-184690Y267056D01*
X-184641Y267066D01*
X-184591Y267067D01*
X-184486Y267098D01*
X-184378Y267120D01*
X-184333Y267142D01*
X-184286Y267156D01*
X-184191Y267212D01*
X-184092Y267260D01*
X-184055Y267292D01*
X-184012Y267317D01*
X-183891Y267424D01*
X-126961Y324353D01*
X-126961Y324354D01*
X-124532Y326783D01*
X-121591Y328001D01*
X47486Y328001D01*
X47604Y328016D01*
X47723Y328023D01*
X47761Y328036D01*
X47802Y328041D01*
X47912Y328084D01*
X48025Y328121D01*
X48060Y328143D01*
X48097Y328158D01*
X48193Y328227D01*
X48294Y328291D01*
X48322Y328321D01*
X48355Y328344D01*
X48431Y328436D01*
X48512Y328523D01*
X48532Y328558D01*
X48557Y328589D01*
X48608Y328697D01*
X48666Y328801D01*
X48676Y328841D01*
X48693Y328877D01*
X48715Y328994D01*
X48745Y329109D01*
X48749Y329169D01*
X48753Y329189D01*
X48751Y329210D01*
X48755Y329270D01*
X48755Y348933D01*
X51099Y351277D01*
X60001Y351277D01*
X61003Y350275D01*
X61097Y350202D01*
X61186Y350124D01*
X61222Y350105D01*
X61254Y350080D01*
X61363Y350033D01*
X61469Y349979D01*
X61508Y349970D01*
X61546Y349954D01*
X61663Y349935D01*
X61779Y349909D01*
X61820Y349911D01*
X61860Y349904D01*
X61978Y349915D01*
X62097Y349919D01*
X62136Y349930D01*
X62176Y349934D01*
X62288Y349974D01*
X62403Y350007D01*
X62438Y350028D01*
X62476Y350042D01*
X62574Y350109D01*
X62677Y350169D01*
X62722Y350209D01*
X62739Y350220D01*
X62752Y350236D01*
X62798Y350275D01*
X63799Y351277D01*
X72259Y351277D01*
X72396Y351294D01*
X72535Y351307D01*
X72554Y351314D01*
X72574Y351317D01*
X72703Y351368D01*
X72834Y351415D01*
X72851Y351426D01*
X72870Y351434D01*
X72982Y351515D01*
X73097Y351593D01*
X73111Y351609D01*
X73127Y351620D01*
X73216Y351728D01*
X73308Y351832D01*
X73317Y351850D01*
X73330Y351865D01*
X73389Y351991D01*
X73452Y352115D01*
X73457Y352135D01*
X73465Y352153D01*
X73491Y352289D01*
X73522Y352425D01*
X73521Y352446D01*
X73525Y352465D01*
X73517Y352604D01*
X73512Y352743D01*
X73507Y352763D01*
X73505Y352783D01*
X73463Y352915D01*
X73424Y353049D01*
X73414Y353066D01*
X73407Y353085D01*
X73333Y353203D01*
X73262Y353323D01*
X73244Y353344D01*
X73237Y353354D01*
X73222Y353368D01*
X73156Y353443D01*
X68222Y358378D01*
X68144Y358438D01*
X68072Y358506D01*
X68019Y358535D01*
X67971Y358572D01*
X67880Y358612D01*
X67793Y358660D01*
X67735Y358675D01*
X67679Y358699D01*
X67581Y358714D01*
X67485Y358739D01*
X67385Y358745D01*
X67365Y358749D01*
X67352Y358747D01*
X67324Y358749D01*
X61593Y358749D01*
X59249Y361093D01*
X59249Y378907D01*
X61593Y381251D01*
X76407Y381251D01*
X79103Y378555D01*
X79197Y378482D01*
X79286Y378404D01*
X79322Y378385D01*
X79354Y378360D01*
X79463Y378313D01*
X79569Y378259D01*
X79608Y378250D01*
X79646Y378234D01*
X79763Y378215D01*
X79879Y378189D01*
X79920Y378191D01*
X79960Y378184D01*
X80078Y378195D01*
X80197Y378199D01*
X80236Y378210D01*
X80276Y378214D01*
X80389Y378254D01*
X80503Y378287D01*
X80538Y378308D01*
X80576Y378322D01*
X80674Y378389D01*
X80777Y378449D01*
X80822Y378489D01*
X80839Y378500D01*
X80852Y378516D01*
X80898Y378555D01*
X83593Y381251D01*
X98407Y381251D01*
X99102Y380555D01*
X99196Y380483D01*
X99286Y380404D01*
X99322Y380385D01*
X99354Y380360D01*
X99463Y380313D01*
X99569Y380259D01*
X99608Y380250D01*
X99646Y380234D01*
X99763Y380215D01*
X99879Y380189D01*
X99920Y380191D01*
X99960Y380184D01*
X100078Y380195D01*
X100197Y380199D01*
X100236Y380210D01*
X100276Y380214D01*
X100389Y380254D01*
X100503Y380287D01*
X100537Y380308D01*
X100576Y380322D01*
X100674Y380389D01*
X100777Y380449D01*
X100822Y380489D01*
X100839Y380500D01*
X100852Y380516D01*
X100897Y380555D01*
X101593Y381251D01*
X116407Y381251D01*
X118751Y378907D01*
X118751Y361965D01*
X118768Y361828D01*
X118781Y361689D01*
X118788Y361670D01*
X118791Y361650D01*
X118842Y361521D01*
X118889Y361390D01*
X118900Y361373D01*
X118908Y361354D01*
X118989Y361242D01*
X119067Y361127D01*
X119083Y361113D01*
X119094Y361097D01*
X119202Y361008D01*
X119306Y360916D01*
X119324Y360907D01*
X119339Y360894D01*
X119465Y360835D01*
X119589Y360772D01*
X119609Y360767D01*
X119627Y360759D01*
X119763Y360732D01*
X119899Y360702D01*
X119920Y360703D01*
X119939Y360699D01*
X120078Y360707D01*
X120217Y360712D01*
X120237Y360717D01*
X120257Y360719D01*
X120389Y360761D01*
X120523Y360800D01*
X120540Y360810D01*
X120559Y360817D01*
X120677Y360891D01*
X120797Y360962D01*
X120818Y360980D01*
X120828Y360987D01*
X120842Y361002D01*
X120917Y361068D01*
X130878Y371028D01*
X130938Y371106D01*
X131006Y371178D01*
X131035Y371231D01*
X131072Y371279D01*
X131112Y371370D01*
X131160Y371457D01*
X131175Y371515D01*
X131199Y371571D01*
X131214Y371669D01*
X131239Y371765D01*
X131245Y371865D01*
X131249Y371885D01*
X131247Y371898D01*
X131249Y371926D01*
X131249Y378907D01*
X133593Y381251D01*
X148407Y381251D01*
X149102Y380555D01*
X149196Y380483D01*
X149286Y380404D01*
X149322Y380385D01*
X149354Y380360D01*
X149463Y380313D01*
X149569Y380259D01*
X149608Y380250D01*
X149646Y380234D01*
X149763Y380215D01*
X149879Y380189D01*
X149920Y380191D01*
X149960Y380184D01*
X150078Y380195D01*
X150197Y380199D01*
X150236Y380210D01*
X150276Y380214D01*
X150389Y380254D01*
X150503Y380287D01*
X150537Y380308D01*
X150576Y380322D01*
X150674Y380389D01*
X150777Y380449D01*
X150822Y380489D01*
X150839Y380500D01*
X150852Y380516D01*
X150897Y380555D01*
X151593Y381251D01*
X166407Y381251D01*
X168751Y378907D01*
X168751Y361093D01*
X166407Y358749D01*
X163418Y358749D01*
X163320Y358737D01*
X163221Y358734D01*
X163163Y358717D01*
X163103Y358709D01*
X163010Y358673D01*
X162915Y358645D01*
X162863Y358615D01*
X162807Y358592D01*
X162727Y358534D01*
X162641Y358484D01*
X162566Y358418D01*
X162549Y358406D01*
X162542Y358396D01*
X162521Y358378D01*
X151822Y347679D01*
X151762Y347601D01*
X151694Y347529D01*
X151665Y347476D01*
X151628Y347428D01*
X151588Y347337D01*
X151540Y347251D01*
X151525Y347192D01*
X151501Y347136D01*
X151486Y347038D01*
X151461Y346943D01*
X151455Y346843D01*
X151451Y346822D01*
X151453Y346810D01*
X151451Y346782D01*
X151451Y337565D01*
X151341Y337301D01*
X151339Y337292D01*
X151334Y337284D01*
X151297Y337139D01*
X151257Y336994D01*
X151257Y336985D01*
X151255Y336976D01*
X151245Y336815D01*
X151245Y332959D01*
X151262Y332822D01*
X151275Y332683D01*
X151282Y332664D01*
X151285Y332644D01*
X151336Y332515D01*
X151383Y332384D01*
X151394Y332367D01*
X151402Y332348D01*
X151483Y332236D01*
X151561Y332121D01*
X151577Y332107D01*
X151588Y332091D01*
X151696Y332002D01*
X151800Y331910D01*
X151818Y331901D01*
X151833Y331888D01*
X151959Y331829D01*
X152083Y331766D01*
X152103Y331761D01*
X152121Y331753D01*
X152257Y331727D01*
X152393Y331696D01*
X152414Y331697D01*
X152433Y331693D01*
X152572Y331701D01*
X152711Y331706D01*
X152731Y331711D01*
X152751Y331713D01*
X152883Y331755D01*
X153017Y331794D01*
X153034Y331804D01*
X153053Y331811D01*
X153171Y331885D01*
X153291Y331956D01*
X153312Y331974D01*
X153322Y331981D01*
X153336Y331996D01*
X153411Y332062D01*
X163378Y342028D01*
X163438Y342106D01*
X163506Y342178D01*
X163535Y342231D01*
X163572Y342279D01*
X163612Y342370D01*
X163660Y342457D01*
X163675Y342515D01*
X163699Y342571D01*
X163714Y342669D01*
X163739Y342765D01*
X163745Y342865D01*
X163749Y342885D01*
X163747Y342898D01*
X163749Y342926D01*
X163749Y346407D01*
X166093Y348751D01*
X183907Y348751D01*
X186251Y346407D01*
X186251Y331593D01*
X183907Y329249D01*
X170926Y329249D01*
X170827Y329237D01*
X170728Y329234D01*
X170670Y329217D01*
X170610Y329209D01*
X170518Y329173D01*
X170423Y329145D01*
X170371Y329115D01*
X170314Y329092D01*
X170234Y329034D01*
X170149Y328984D01*
X170074Y328918D01*
X170057Y328906D01*
X170049Y328896D01*
X170028Y328878D01*
X156466Y315315D01*
X153893Y314249D01*
X135130Y314249D01*
X134992Y314232D01*
X134853Y314219D01*
X134834Y314212D01*
X134814Y314209D01*
X134685Y314158D01*
X134554Y314111D01*
X134537Y314100D01*
X134518Y314092D01*
X134406Y314011D01*
X134291Y313933D01*
X134277Y313917D01*
X134261Y313906D01*
X134172Y313798D01*
X134080Y313694D01*
X134071Y313676D01*
X134058Y313661D01*
X133999Y313535D01*
X133936Y313411D01*
X133931Y313391D01*
X133923Y313373D01*
X133897Y313237D01*
X133866Y313101D01*
X133867Y313080D01*
X133863Y313061D01*
X133872Y312922D01*
X133876Y312783D01*
X133881Y312763D01*
X133883Y312743D01*
X133926Y312611D01*
X133964Y312477D01*
X133975Y312460D01*
X133981Y312441D01*
X134055Y312323D01*
X134126Y312203D01*
X134144Y312182D01*
X134151Y312172D01*
X134166Y312158D01*
X134232Y312083D01*
X151233Y295082D01*
X152451Y292141D01*
X152451Y291712D01*
X152466Y291594D01*
X152473Y291476D01*
X152486Y291437D01*
X152491Y291397D01*
X152534Y291286D01*
X152571Y291173D01*
X152593Y291139D01*
X152608Y291101D01*
X152677Y291005D01*
X152741Y290904D01*
X152771Y290877D01*
X152794Y290844D01*
X152886Y290768D01*
X152973Y290686D01*
X153008Y290667D01*
X153039Y290641D01*
X153147Y290590D01*
X153251Y290533D01*
X153291Y290523D01*
X153327Y290506D01*
X153444Y290483D01*
X153559Y290453D01*
X153619Y290450D01*
X153639Y290446D01*
X153660Y290447D01*
X153720Y290443D01*
X157468Y290443D01*
X157566Y290456D01*
X157665Y290459D01*
X157723Y290475D01*
X157783Y290483D01*
X157875Y290520D01*
X157970Y290547D01*
X158023Y290578D01*
X158079Y290600D01*
X158159Y290658D01*
X158244Y290709D01*
X158320Y290775D01*
X158336Y290787D01*
X158344Y290796D01*
X158365Y290815D01*
X159454Y291903D01*
X159454Y291904D01*
X160878Y293327D01*
X160938Y293406D01*
X161006Y293478D01*
X161035Y293531D01*
X161072Y293579D01*
X161112Y293669D01*
X161160Y293756D01*
X161175Y293815D01*
X161199Y293870D01*
X161214Y293968D01*
X161239Y294064D01*
X161245Y294164D01*
X161249Y294184D01*
X161247Y294197D01*
X161249Y294225D01*
X161249Y303907D01*
X163593Y306251D01*
X178407Y306251D01*
X180751Y303907D01*
X180751Y286093D01*
X178407Y283749D01*
X174455Y283749D01*
X174357Y283737D01*
X174258Y283734D01*
X174199Y283717D01*
X174139Y283709D01*
X174047Y283673D01*
X173952Y283645D01*
X173900Y283615D01*
X173844Y283592D01*
X173763Y283534D01*
X173678Y283484D01*
X173603Y283418D01*
X173586Y283406D01*
X173578Y283396D01*
X173557Y283378D01*
X172180Y282000D01*
X172119Y281922D01*
X172051Y281850D01*
X172022Y281797D01*
X171985Y281749D01*
X171946Y281658D01*
X171898Y281571D01*
X171883Y281513D01*
X171859Y281457D01*
X171843Y281359D01*
X171818Y281263D01*
X171812Y281163D01*
X171809Y281143D01*
X171810Y281131D01*
X171808Y281103D01*
X171808Y269001D01*
X171814Y268952D01*
X171812Y268902D01*
X171834Y268795D01*
X171848Y268686D01*
X171866Y268640D01*
X171876Y268591D01*
X171925Y268492D01*
X171965Y268390D01*
X171994Y268350D01*
X172016Y268305D01*
X172087Y268222D01*
X172152Y268133D01*
X172190Y268101D01*
X172223Y268063D01*
X172312Y268000D01*
X172397Y267930D01*
X172442Y267909D01*
X172483Y267880D01*
X172585Y267841D01*
X172685Y267795D01*
X172733Y267785D01*
X172780Y267768D01*
X172889Y267755D01*
X172997Y267735D01*
X173047Y267738D01*
X173096Y267732D01*
X173205Y267748D01*
X173314Y267755D01*
X173362Y267770D01*
X173411Y267777D01*
X173428Y267783D01*
X176548Y267783D01*
X178945Y266790D01*
X178974Y266782D01*
X179000Y266769D01*
X179127Y266740D01*
X179252Y266706D01*
X179282Y266705D01*
X179310Y266699D01*
X179440Y266703D01*
X179570Y266701D01*
X179599Y266708D01*
X179628Y266709D01*
X179753Y266745D01*
X179879Y266775D01*
X179905Y266789D01*
X179934Y266797D01*
X180046Y266863D01*
X180160Y266924D01*
X180182Y266943D01*
X180208Y266958D01*
X180329Y267065D01*
X204628Y291364D01*
X204688Y291442D01*
X204756Y291514D01*
X204785Y291567D01*
X204822Y291615D01*
X204862Y291706D01*
X204910Y291793D01*
X204925Y291851D01*
X204949Y291907D01*
X204964Y292005D01*
X204989Y292101D01*
X204995Y292201D01*
X204999Y292221D01*
X204997Y292233D01*
X204999Y292261D01*
X204999Y304157D01*
X207343Y306501D01*
X223657Y306501D01*
X224103Y306055D01*
X224197Y305982D01*
X224286Y305904D01*
X224322Y305885D01*
X224354Y305860D01*
X224463Y305813D01*
X224569Y305759D01*
X224608Y305750D01*
X224646Y305734D01*
X224763Y305715D01*
X224879Y305689D01*
X224920Y305691D01*
X224960Y305684D01*
X225078Y305695D01*
X225197Y305699D01*
X225236Y305710D01*
X225276Y305714D01*
X225388Y305754D01*
X225503Y305787D01*
X225538Y305808D01*
X225576Y305822D01*
X225674Y305889D01*
X225777Y305949D01*
X225822Y305989D01*
X225839Y306000D01*
X225852Y306016D01*
X225898Y306055D01*
X226343Y306501D01*
X242657Y306501D01*
X245001Y304157D01*
X245001Y302270D01*
X245016Y302152D01*
X245023Y302033D01*
X245036Y301995D01*
X245041Y301954D01*
X245084Y301844D01*
X245121Y301731D01*
X245143Y301696D01*
X245158Y301659D01*
X245227Y301563D01*
X245291Y301462D01*
X245321Y301434D01*
X245344Y301401D01*
X245436Y301325D01*
X245523Y301244D01*
X245558Y301224D01*
X245589Y301199D01*
X245697Y301148D01*
X245801Y301090D01*
X245841Y301080D01*
X245877Y301063D01*
X245994Y301041D01*
X246109Y301011D01*
X246169Y301007D01*
X246189Y301003D01*
X246210Y301005D01*
X246270Y301001D01*
X261194Y301001D01*
X263399Y300087D01*
X275087Y288399D01*
X276001Y286194D01*
X276001Y277933D01*
X276013Y277835D01*
X276016Y277736D01*
X276033Y277677D01*
X276041Y277617D01*
X276077Y277525D01*
X276105Y277430D01*
X276135Y277378D01*
X276158Y277322D01*
X276216Y277242D01*
X276266Y277156D01*
X276332Y277081D01*
X276344Y277064D01*
X276354Y277056D01*
X276373Y277035D01*
X276751Y276657D01*
X276751Y261343D01*
X274407Y258999D01*
X255593Y258999D01*
X253249Y261343D01*
X253249Y261730D01*
X253234Y261848D01*
X253227Y261967D01*
X253214Y262005D01*
X253209Y262046D01*
X253166Y262156D01*
X253129Y262269D01*
X253107Y262304D01*
X253092Y262341D01*
X253023Y262437D01*
X252959Y262538D01*
X252929Y262566D01*
X252906Y262599D01*
X252814Y262675D01*
X252727Y262756D01*
X252692Y262776D01*
X252661Y262801D01*
X252553Y262852D01*
X252449Y262910D01*
X252409Y262920D01*
X252373Y262937D01*
X252256Y262959D01*
X252141Y262989D01*
X252081Y262993D01*
X252061Y262997D01*
X252040Y262995D01*
X251980Y262999D01*
X246270Y262999D01*
X246152Y262984D01*
X246033Y262977D01*
X245995Y262964D01*
X245954Y262959D01*
X245844Y262916D01*
X245731Y262879D01*
X245696Y262857D01*
X245659Y262842D01*
X245563Y262773D01*
X245462Y262709D01*
X245434Y262679D01*
X245401Y262656D01*
X245325Y262564D01*
X245244Y262477D01*
X245224Y262442D01*
X245199Y262411D01*
X245148Y262303D01*
X245090Y262199D01*
X245080Y262159D01*
X245063Y262123D01*
X245041Y262006D01*
X245011Y261891D01*
X245007Y261831D01*
X245003Y261811D01*
X245005Y261790D01*
X245001Y261730D01*
X245001Y255843D01*
X242657Y253499D01*
X226343Y253499D01*
X225898Y253945D01*
X225804Y254017D01*
X225714Y254096D01*
X225678Y254115D01*
X225646Y254140D01*
X225537Y254187D01*
X225431Y254241D01*
X225392Y254250D01*
X225354Y254266D01*
X225237Y254285D01*
X225121Y254311D01*
X225080Y254309D01*
X225040Y254316D01*
X224922Y254305D01*
X224803Y254301D01*
X224764Y254290D01*
X224724Y254286D01*
X224612Y254246D01*
X224497Y254213D01*
X224462Y254192D01*
X224424Y254178D01*
X224326Y254112D01*
X224223Y254051D01*
X224178Y254011D01*
X224161Y254000D01*
X224148Y253984D01*
X224103Y253945D01*
X223657Y253499D01*
X213011Y253499D01*
X212913Y253487D01*
X212814Y253484D01*
X212756Y253467D01*
X212696Y253459D01*
X212604Y253423D01*
X212509Y253395D01*
X212456Y253365D01*
X212400Y253342D01*
X212320Y253284D01*
X212235Y253234D01*
X212159Y253168D01*
X212143Y253156D01*
X212135Y253146D01*
X212114Y253128D01*
X204516Y245529D01*
X202649Y243663D01*
X200444Y242749D01*
X199973Y242749D01*
X199835Y242732D01*
X199696Y242719D01*
X199677Y242712D01*
X199657Y242709D01*
X199528Y242658D01*
X199397Y242611D01*
X199380Y242600D01*
X199362Y242592D01*
X199249Y242511D01*
X199134Y242433D01*
X199121Y242417D01*
X199104Y242406D01*
X199015Y242298D01*
X198924Y242194D01*
X198914Y242176D01*
X198901Y242161D01*
X198842Y242035D01*
X198779Y241911D01*
X198775Y241891D01*
X198766Y241873D01*
X198740Y241737D01*
X198709Y241601D01*
X198710Y241580D01*
X198706Y241561D01*
X198715Y241422D01*
X198719Y241283D01*
X198725Y241263D01*
X198726Y241243D01*
X198769Y241111D01*
X198807Y240977D01*
X198818Y240960D01*
X198824Y240941D01*
X198899Y240823D01*
X198969Y240703D01*
X198988Y240682D01*
X198994Y240672D01*
X199009Y240658D01*
X199075Y240583D01*
X200751Y238907D01*
X200751Y226517D01*
X200763Y226419D01*
X200766Y226320D01*
X200783Y226262D01*
X200791Y226202D01*
X200827Y226110D01*
X200855Y226014D01*
X200885Y225962D01*
X200908Y225906D01*
X200966Y225826D01*
X201016Y225741D01*
X201082Y225665D01*
X201094Y225649D01*
X201104Y225641D01*
X201122Y225620D01*
X204770Y221972D01*
X206141Y218664D01*
X206141Y212343D01*
X206153Y212245D01*
X206156Y212146D01*
X206173Y212087D01*
X206181Y212027D01*
X206217Y211935D01*
X206245Y211840D01*
X206275Y211788D01*
X206298Y211732D01*
X206301Y211727D01*
X206301Y193343D01*
X203957Y190999D01*
X191870Y190999D01*
X191752Y190984D01*
X191633Y190977D01*
X191595Y190964D01*
X191554Y190959D01*
X191444Y190916D01*
X191331Y190879D01*
X191296Y190857D01*
X191259Y190842D01*
X191163Y190773D01*
X191062Y190709D01*
X191034Y190679D01*
X191001Y190656D01*
X190925Y190564D01*
X190844Y190477D01*
X190824Y190442D01*
X190799Y190411D01*
X190748Y190303D01*
X190690Y190199D01*
X190680Y190159D01*
X190663Y190123D01*
X190641Y190006D01*
X190611Y189891D01*
X190607Y189831D01*
X190603Y189811D01*
X190605Y189790D01*
X190601Y189730D01*
X190601Y183406D01*
X189687Y181201D01*
X158399Y149913D01*
X156194Y148999D01*
X113841Y148999D01*
X113743Y148987D01*
X113644Y148984D01*
X113585Y148967D01*
X113525Y148959D01*
X113433Y148923D01*
X113338Y148895D01*
X113286Y148865D01*
X113230Y148842D01*
X113150Y148784D01*
X113064Y148734D01*
X112989Y148668D01*
X112972Y148656D01*
X112964Y148646D01*
X112943Y148628D01*
X102332Y138017D01*
X102272Y137938D01*
X102204Y137866D01*
X102175Y137813D01*
X102138Y137765D01*
X102098Y137674D01*
X102050Y137588D01*
X102035Y137529D01*
X102011Y137474D01*
X101996Y137376D01*
X101971Y137280D01*
X101965Y137180D01*
X101961Y137159D01*
X101963Y137147D01*
X101961Y137119D01*
X101961Y52051D01*
X101973Y51953D01*
X101976Y51854D01*
X101993Y51796D01*
X102001Y51736D01*
X102037Y51644D01*
X102065Y51549D01*
X102095Y51496D01*
X102118Y51440D01*
X102176Y51360D01*
X102226Y51275D01*
X102292Y51199D01*
X102304Y51183D01*
X102314Y51175D01*
X102332Y51154D01*
X110332Y43154D01*
X110410Y43094D01*
X110482Y43026D01*
X110535Y42997D01*
X110583Y42960D01*
X110674Y42920D01*
X110761Y42872D01*
X110819Y42857D01*
X110875Y42833D01*
X110973Y42818D01*
X111069Y42793D01*
X111169Y42787D01*
X111189Y42783D01*
X111201Y42785D01*
X111229Y42783D01*
X111548Y42783D01*
X114409Y41598D01*
X116598Y39409D01*
X117783Y36548D01*
X117783Y35733D01*
X117800Y35596D01*
X117813Y35457D01*
X117820Y35438D01*
X117823Y35418D01*
X117874Y35289D01*
X117921Y35158D01*
X117932Y35141D01*
X117940Y35122D01*
X118021Y35010D01*
X118099Y34894D01*
X118115Y34881D01*
X118126Y34865D01*
X118234Y34776D01*
X118338Y34684D01*
X118356Y34675D01*
X118371Y34662D01*
X118497Y34603D01*
X118621Y34539D01*
X118641Y34535D01*
X118659Y34526D01*
X118795Y34500D01*
X118931Y34470D01*
X118952Y34470D01*
X118971Y34467D01*
X119110Y34475D01*
X119249Y34479D01*
X119269Y34485D01*
X119289Y34486D01*
X119421Y34529D01*
X119555Y34568D01*
X119572Y34578D01*
X119591Y34584D01*
X119709Y34659D01*
X119829Y34729D01*
X119850Y34748D01*
X119860Y34755D01*
X119874Y34770D01*
X119949Y34836D01*
X123334Y38221D01*
X125201Y40087D01*
X127406Y41001D01*
X174469Y41001D01*
X174567Y41013D01*
X174666Y41016D01*
X174724Y41033D01*
X174784Y41041D01*
X174876Y41077D01*
X174971Y41105D01*
X175023Y41135D01*
X175080Y41158D01*
X175160Y41216D01*
X175245Y41266D01*
X175321Y41332D01*
X175337Y41344D01*
X175345Y41354D01*
X175366Y41372D01*
X175591Y41598D01*
X178452Y42783D01*
X181548Y42783D01*
X184409Y41598D01*
X186598Y39409D01*
X187783Y36548D01*
X187783Y33452D01*
X186666Y30756D01*
X186653Y30708D01*
X186632Y30663D01*
X186611Y30555D01*
X186582Y30449D01*
X186581Y30399D01*
X186572Y30350D01*
X186579Y30241D01*
X186577Y30131D01*
X186589Y30083D01*
X186592Y30033D01*
X186625Y29929D01*
X186651Y29822D01*
X186674Y29778D01*
X186690Y29731D01*
X186748Y29638D01*
X186800Y29541D01*
X186833Y29504D01*
X186860Y29462D01*
X186940Y29387D01*
X187014Y29305D01*
X187055Y29278D01*
X187091Y29244D01*
X187188Y29191D01*
X187279Y29131D01*
X187326Y29114D01*
X187370Y29090D01*
X187476Y29063D01*
X187580Y29027D01*
X187630Y29023D01*
X187678Y29011D01*
X187839Y29001D01*
X203957Y29001D01*
X206301Y26657D01*
X206301Y8343D01*
X203957Y5999D01*
X191870Y5999D01*
X191752Y5984D01*
X191633Y5977D01*
X191595Y5964D01*
X191554Y5959D01*
X191444Y5916D01*
X191331Y5879D01*
X191296Y5857D01*
X191259Y5842D01*
X191163Y5773D01*
X191062Y5709D01*
X191034Y5679D01*
X191001Y5656D01*
X190925Y5564D01*
X190844Y5477D01*
X190824Y5442D01*
X190799Y5411D01*
X190748Y5303D01*
X190690Y5199D01*
X190680Y5159D01*
X190663Y5123D01*
X190641Y5006D01*
X190611Y4891D01*
X190607Y4831D01*
X190603Y4811D01*
X190605Y4790D01*
X190601Y4730D01*
X190601Y-16594D01*
X189687Y-18799D01*
X182694Y-25792D01*
X182663Y-25832D01*
X182627Y-25865D01*
X182566Y-25957D01*
X182499Y-26044D01*
X182479Y-26089D01*
X182452Y-26131D01*
X182416Y-26235D01*
X182373Y-26335D01*
X182365Y-26385D01*
X182349Y-26432D01*
X182340Y-26541D01*
X182323Y-26650D01*
X182327Y-26699D01*
X182324Y-26749D01*
X182342Y-26857D01*
X182353Y-26966D01*
X182369Y-27013D01*
X182378Y-27062D01*
X182423Y-27162D01*
X182460Y-27265D01*
X182488Y-27307D01*
X182509Y-27352D01*
X182577Y-27438D01*
X182639Y-27529D01*
X182676Y-27562D01*
X182707Y-27600D01*
X182795Y-27666D01*
X182877Y-27739D01*
X182921Y-27762D01*
X182961Y-27792D01*
X183106Y-27862D01*
X184409Y-28402D01*
X186598Y-30591D01*
X187783Y-33452D01*
X187783Y-33771D01*
X187795Y-33869D01*
X187798Y-33968D01*
X187815Y-34026D01*
X187823Y-34086D01*
X187859Y-34178D01*
X187887Y-34273D01*
X187917Y-34326D01*
X187940Y-34382D01*
X187998Y-34462D01*
X188048Y-34547D01*
X188114Y-34623D01*
X188126Y-34639D01*
X188136Y-34647D01*
X188154Y-34668D01*
X205087Y-51601D01*
X206001Y-53806D01*
X206001Y-271194D01*
X205308Y-272867D01*
X205289Y-272934D01*
X205262Y-272998D01*
X205248Y-273087D01*
X205224Y-273173D01*
X205223Y-273243D01*
X205212Y-273312D01*
X205220Y-273402D01*
X205219Y-273491D01*
X205235Y-273559D01*
X205242Y-273629D01*
X205272Y-273713D01*
X205293Y-273801D01*
X205326Y-273862D01*
X205349Y-273928D01*
X205400Y-274002D01*
X205442Y-274082D01*
X205489Y-274133D01*
X205528Y-274191D01*
X205595Y-274251D01*
X205656Y-274317D01*
X205714Y-274355D01*
X205766Y-274402D01*
X205846Y-274442D01*
X205921Y-274492D01*
X205987Y-274514D01*
X206049Y-274546D01*
X206137Y-274566D01*
X206222Y-274595D01*
X206292Y-274601D01*
X206360Y-274616D01*
X206449Y-274613D01*
X206539Y-274620D01*
X206608Y-274608D01*
X206678Y-274606D01*
X206764Y-274581D01*
X206852Y-274566D01*
X206916Y-274537D01*
X206983Y-274518D01*
X207060Y-274472D01*
X207142Y-274435D01*
X207197Y-274392D01*
X207257Y-274356D01*
X207378Y-274250D01*
X216191Y-265437D01*
X216209Y-265414D01*
X216231Y-265395D01*
X216306Y-265289D01*
X216386Y-265186D01*
X216397Y-265159D01*
X216414Y-265135D01*
X216460Y-265013D01*
X216512Y-264894D01*
X216516Y-264865D01*
X216527Y-264837D01*
X216541Y-264708D01*
X216562Y-264580D01*
X216559Y-264550D01*
X216562Y-264521D01*
X216544Y-264393D01*
X216532Y-264263D01*
X216522Y-264235D01*
X216518Y-264206D01*
X216466Y-264054D01*
X215953Y-262817D01*
X215953Y-257183D01*
X218109Y-251979D01*
X222093Y-247995D01*
X227297Y-245839D01*
X232931Y-245839D01*
X238135Y-247995D01*
X242119Y-251979D01*
X244275Y-257183D01*
X244275Y-262817D01*
X242119Y-268021D01*
X238135Y-272005D01*
X232931Y-274161D01*
X227297Y-274161D01*
X226060Y-273648D01*
X226032Y-273641D01*
X226005Y-273627D01*
X225878Y-273599D01*
X225753Y-273564D01*
X225724Y-273564D01*
X225695Y-273557D01*
X225565Y-273561D01*
X225435Y-273559D01*
X225407Y-273566D01*
X225377Y-273567D01*
X225253Y-273603D01*
X225126Y-273633D01*
X225100Y-273647D01*
X225072Y-273655D01*
X224960Y-273721D01*
X224845Y-273782D01*
X224823Y-273802D01*
X224798Y-273817D01*
X224677Y-273923D01*
X206151Y-292449D01*
X206091Y-292527D01*
X206023Y-292599D01*
X205994Y-292652D01*
X205957Y-292700D01*
X205917Y-292791D01*
X205869Y-292878D01*
X205854Y-292936D01*
X205830Y-292992D01*
X205815Y-293090D01*
X205790Y-293186D01*
X205784Y-293286D01*
X205780Y-293306D01*
X205782Y-293318D01*
X205780Y-293346D01*
X205780Y-351936D01*
X205795Y-352054D01*
X205802Y-352173D01*
X205815Y-352211D01*
X205820Y-352252D01*
X205863Y-352362D01*
X205900Y-352475D01*
X205922Y-352510D01*
X205937Y-352547D01*
X206006Y-352643D01*
X206070Y-352744D01*
X206100Y-352772D01*
X206123Y-352805D01*
X206215Y-352881D01*
X206302Y-352962D01*
X206337Y-352982D01*
X206368Y-353007D01*
X206476Y-353058D01*
X206580Y-353116D01*
X206620Y-353126D01*
X206656Y-353143D01*
X206773Y-353165D01*
X206888Y-353195D01*
X206948Y-353199D01*
X206968Y-353203D01*
X206989Y-353201D01*
X207049Y-353205D01*
X208421Y-353205D01*
X210765Y-355549D01*
X210765Y-364451D01*
X208421Y-366795D01*
X191137Y-366795D01*
X188793Y-364451D01*
X188793Y-357904D01*
X188778Y-357786D01*
X188771Y-357667D01*
X188758Y-357629D01*
X188753Y-357588D01*
X188710Y-357478D01*
X188673Y-357365D01*
X188651Y-357330D01*
X188636Y-357293D01*
X188567Y-357197D01*
X188503Y-357096D01*
X188473Y-357068D01*
X188450Y-357035D01*
X188358Y-356959D01*
X188271Y-356878D01*
X188236Y-356858D01*
X188205Y-356833D01*
X188097Y-356782D01*
X187993Y-356724D01*
X187953Y-356714D01*
X187917Y-356697D01*
X187800Y-356675D01*
X187685Y-356645D01*
X187625Y-356641D01*
X187605Y-356637D01*
X187584Y-356639D01*
X187524Y-356635D01*
X171579Y-356635D01*
X171157Y-356213D01*
X171078Y-356152D01*
X171006Y-356084D01*
X170953Y-356055D01*
X170905Y-356018D01*
X170814Y-355978D01*
X170728Y-355930D01*
X170669Y-355915D01*
X170614Y-355891D01*
X170515Y-355876D01*
X170420Y-355851D01*
X170320Y-355845D01*
X170299Y-355841D01*
X170287Y-355843D01*
X170259Y-355841D01*
X167671Y-355841D01*
X167573Y-355853D01*
X167474Y-355856D01*
X167416Y-355873D01*
X167356Y-355881D01*
X167264Y-355917D01*
X167169Y-355945D01*
X167116Y-355975D01*
X167060Y-355998D01*
X166980Y-356056D01*
X166895Y-356106D01*
X166819Y-356172D01*
X166803Y-356184D01*
X166795Y-356194D01*
X166774Y-356212D01*
X155372Y-367614D01*
X155312Y-367692D01*
X155244Y-367764D01*
X155215Y-367817D01*
X155178Y-367865D01*
X155138Y-367956D01*
X155090Y-368043D01*
X155075Y-368101D01*
X155051Y-368157D01*
X155036Y-368255D01*
X155011Y-368351D01*
X155005Y-368451D01*
X155001Y-368471D01*
X155003Y-368483D01*
X155001Y-368511D01*
X155001Y-379157D01*
X152657Y-381501D01*
X136343Y-381501D01*
X133999Y-379157D01*
X133999Y-360843D01*
X136445Y-358398D01*
X136518Y-358303D01*
X136596Y-358214D01*
X136615Y-358178D01*
X136640Y-358146D01*
X136687Y-358037D01*
X136741Y-357931D01*
X136750Y-357892D01*
X136766Y-357854D01*
X136785Y-357737D01*
X136811Y-357621D01*
X136809Y-357580D01*
X136816Y-357540D01*
X136805Y-357422D01*
X136801Y-357303D01*
X136790Y-357264D01*
X136786Y-357224D01*
X136746Y-357112D01*
X136713Y-356997D01*
X136692Y-356962D01*
X136678Y-356924D01*
X136611Y-356826D01*
X136551Y-356723D01*
X136511Y-356678D01*
X136500Y-356661D01*
X136484Y-356648D01*
X136445Y-356603D01*
X135898Y-356055D01*
X135803Y-355982D01*
X135714Y-355904D01*
X135678Y-355885D01*
X135646Y-355860D01*
X135537Y-355813D01*
X135431Y-355759D01*
X135392Y-355750D01*
X135354Y-355734D01*
X135237Y-355715D01*
X135121Y-355689D01*
X135080Y-355691D01*
X135040Y-355684D01*
X134922Y-355695D01*
X134803Y-355699D01*
X134764Y-355710D01*
X134724Y-355714D01*
X134612Y-355754D01*
X134497Y-355787D01*
X134462Y-355808D01*
X134424Y-355822D01*
X134326Y-355888D01*
X134223Y-355949D01*
X134178Y-355989D01*
X134161Y-356000D01*
X134148Y-356016D01*
X134103Y-356055D01*
X133657Y-356501D01*
X117343Y-356501D01*
X114999Y-354157D01*
X114999Y-343511D01*
X114987Y-343413D01*
X114984Y-343314D01*
X114967Y-343256D01*
X114959Y-343196D01*
X114923Y-343104D01*
X114895Y-343009D01*
X114865Y-342956D01*
X114842Y-342900D01*
X114784Y-342820D01*
X114734Y-342735D01*
X114668Y-342659D01*
X114656Y-342643D01*
X114646Y-342635D01*
X114628Y-342614D01*
X108386Y-336372D01*
X108308Y-336312D01*
X108236Y-336244D01*
X108183Y-336215D01*
X108135Y-336178D01*
X108044Y-336138D01*
X107957Y-336090D01*
X107899Y-336075D01*
X107843Y-336051D01*
X107745Y-336036D01*
X107649Y-336011D01*
X107549Y-336005D01*
X107529Y-336001D01*
X107517Y-336003D01*
X107489Y-336001D01*
X36540Y-336001D01*
X36422Y-336016D01*
X36303Y-336023D01*
X36265Y-336036D01*
X36224Y-336041D01*
X36114Y-336084D01*
X36001Y-336121D01*
X35966Y-336143D01*
X35929Y-336158D01*
X35833Y-336227D01*
X35732Y-336291D01*
X35704Y-336321D01*
X35671Y-336344D01*
X35595Y-336436D01*
X35514Y-336523D01*
X35494Y-336558D01*
X35469Y-336589D01*
X35418Y-336697D01*
X35360Y-336801D01*
X35350Y-336841D01*
X35333Y-336877D01*
X35311Y-336994D01*
X35281Y-337109D01*
X35277Y-337169D01*
X35273Y-337189D01*
X35275Y-337210D01*
X35271Y-337270D01*
X35271Y-372730D01*
X35286Y-372848D01*
X35293Y-372967D01*
X35306Y-373005D01*
X35311Y-373046D01*
X35354Y-373156D01*
X35391Y-373269D01*
X35413Y-373304D01*
X35428Y-373341D01*
X35497Y-373437D01*
X35561Y-373538D01*
X35591Y-373566D01*
X35614Y-373599D01*
X35706Y-373675D01*
X35793Y-373756D01*
X35828Y-373776D01*
X35859Y-373801D01*
X35967Y-373852D01*
X36071Y-373910D01*
X36111Y-373920D01*
X36147Y-373937D01*
X36264Y-373959D01*
X36379Y-373989D01*
X36439Y-373993D01*
X36459Y-373997D01*
X36480Y-373995D01*
X36540Y-373999D01*
X37489Y-373999D01*
X37587Y-373987D01*
X37686Y-373984D01*
X37744Y-373967D01*
X37804Y-373959D01*
X37896Y-373923D01*
X37991Y-373895D01*
X38044Y-373865D01*
X38100Y-373842D01*
X38180Y-373784D01*
X38265Y-373734D01*
X38341Y-373668D01*
X38357Y-373656D01*
X38365Y-373646D01*
X38386Y-373628D01*
X39628Y-372386D01*
X39688Y-372308D01*
X39756Y-372236D01*
X39785Y-372183D01*
X39822Y-372135D01*
X39862Y-372044D01*
X39910Y-371957D01*
X39925Y-371899D01*
X39949Y-371843D01*
X39964Y-371745D01*
X39989Y-371649D01*
X39995Y-371549D01*
X39999Y-371529D01*
X39997Y-371517D01*
X39999Y-371489D01*
X39999Y-360843D01*
X42343Y-358499D01*
X58657Y-358499D01*
X61001Y-360843D01*
X61001Y-379157D01*
X58657Y-381501D01*
X48011Y-381501D01*
X47913Y-381513D01*
X47814Y-381516D01*
X47756Y-381533D01*
X47696Y-381541D01*
X47604Y-381577D01*
X47509Y-381605D01*
X47456Y-381635D01*
X47400Y-381658D01*
X47320Y-381716D01*
X47235Y-381766D01*
X47159Y-381832D01*
X47143Y-381844D01*
X47135Y-381854D01*
X47114Y-381872D01*
X46234Y-382753D01*
X46149Y-382862D01*
X46060Y-382969D01*
X46051Y-382988D01*
X46039Y-383004D01*
X45984Y-383132D01*
X45924Y-383257D01*
X45921Y-383277D01*
X45912Y-383296D01*
X45891Y-383434D01*
X45865Y-383570D01*
X45866Y-383590D01*
X45863Y-383610D01*
X45876Y-383749D01*
X45884Y-383887D01*
X45891Y-383906D01*
X45892Y-383926D01*
X45940Y-384057D01*
X45982Y-384189D01*
X45993Y-384207D01*
X46000Y-384226D01*
X46078Y-384341D01*
X46153Y-384458D01*
X46167Y-384472D01*
X46179Y-384489D01*
X46283Y-384581D01*
X46384Y-384676D01*
X46402Y-384686D01*
X46417Y-384699D01*
X46541Y-384762D01*
X46663Y-384830D01*
X46682Y-384835D01*
X46700Y-384844D01*
X46836Y-384874D01*
X46971Y-384909D01*
X46999Y-384911D01*
X47011Y-384914D01*
X47031Y-384913D01*
X47131Y-384919D01*
X239098Y-384919D01*
X239196Y-384907D01*
X239295Y-384904D01*
X239394Y-384882D01*
X239414Y-384879D01*
X239425Y-384875D01*
X239452Y-384869D01*
X239557Y-384839D01*
X240212Y-384912D01*
X240226Y-384911D01*
X240352Y-384919D01*
X241041Y-384919D01*
X241086Y-384932D01*
X241220Y-384973D01*
X241247Y-384976D01*
X241258Y-384979D01*
X241278Y-384979D01*
X241380Y-384990D01*
X245731Y-385187D01*
X245775Y-385183D01*
X245819Y-385188D01*
X245979Y-385174D01*
G37*
G36*
X-227248Y-222587D02*
X-227248Y-222587D01*
X-227149Y-222584D01*
X-227091Y-222567D01*
X-227031Y-222559D01*
X-226938Y-222523D01*
X-226843Y-222495D01*
X-226791Y-222465D01*
X-226735Y-222442D01*
X-226655Y-222384D01*
X-226569Y-222334D01*
X-226494Y-222268D01*
X-226478Y-222256D01*
X-226470Y-222246D01*
X-226449Y-222228D01*
X-225642Y-221421D01*
X-225582Y-221343D01*
X-225514Y-221271D01*
X-225485Y-221218D01*
X-225448Y-221170D01*
X-225408Y-221079D01*
X-225360Y-220993D01*
X-225345Y-220934D01*
X-225321Y-220878D01*
X-225306Y-220780D01*
X-225281Y-220685D01*
X-225275Y-220585D01*
X-225271Y-220564D01*
X-225273Y-220552D01*
X-225271Y-220524D01*
X-225271Y-203952D01*
X-224468Y-202014D01*
X-222986Y-200532D01*
X-221048Y-199729D01*
X-103230Y-199729D01*
X-103160Y-199721D01*
X-103091Y-199722D01*
X-103003Y-199701D01*
X-102914Y-199689D01*
X-102849Y-199664D01*
X-102781Y-199647D01*
X-102702Y-199605D01*
X-102618Y-199572D01*
X-102562Y-199531D01*
X-102500Y-199499D01*
X-102434Y-199438D01*
X-102361Y-199386D01*
X-102317Y-199332D01*
X-102265Y-199285D01*
X-102216Y-199210D01*
X-102158Y-199141D01*
X-102129Y-199077D01*
X-102090Y-199019D01*
X-102061Y-198934D01*
X-102023Y-198853D01*
X-102010Y-198784D01*
X-101987Y-198718D01*
X-101980Y-198629D01*
X-101963Y-198541D01*
X-101967Y-198471D01*
X-101962Y-198401D01*
X-101977Y-198313D01*
X-101983Y-198223D01*
X-102004Y-198157D01*
X-102016Y-198088D01*
X-102053Y-198006D01*
X-102081Y-197921D01*
X-102118Y-197862D01*
X-102147Y-197798D01*
X-102203Y-197728D01*
X-102251Y-197652D01*
X-102302Y-197604D01*
X-102345Y-197550D01*
X-102417Y-197495D01*
X-102483Y-197434D01*
X-102544Y-197400D01*
X-102599Y-197358D01*
X-102744Y-197287D01*
X-104409Y-196598D01*
X-106598Y-194409D01*
X-107783Y-191548D01*
X-107783Y-189052D01*
X-107798Y-188934D01*
X-107805Y-188815D01*
X-107818Y-188777D01*
X-107823Y-188736D01*
X-107866Y-188626D01*
X-107903Y-188513D01*
X-107925Y-188478D01*
X-107940Y-188441D01*
X-108009Y-188345D01*
X-108073Y-188244D01*
X-108103Y-188216D01*
X-108126Y-188183D01*
X-108218Y-188107D01*
X-108305Y-188026D01*
X-108340Y-188006D01*
X-108371Y-187981D01*
X-108479Y-187930D01*
X-108583Y-187872D01*
X-108623Y-187862D01*
X-108659Y-187845D01*
X-108776Y-187823D01*
X-108891Y-187793D01*
X-108951Y-187789D01*
X-108971Y-187785D01*
X-108992Y-187787D01*
X-109052Y-187783D01*
X-111548Y-187783D01*
X-114409Y-186598D01*
X-116598Y-184409D01*
X-117783Y-181548D01*
X-117783Y-178452D01*
X-116598Y-175591D01*
X-114409Y-173402D01*
X-111548Y-172217D01*
X-108452Y-172217D01*
X-105591Y-173402D01*
X-105366Y-173628D01*
X-105288Y-173688D01*
X-105216Y-173756D01*
X-105163Y-173785D01*
X-105115Y-173822D01*
X-105024Y-173862D01*
X-104937Y-173910D01*
X-104879Y-173925D01*
X-104823Y-173949D01*
X-104725Y-173964D01*
X-104629Y-173989D01*
X-104529Y-173995D01*
X-104509Y-173999D01*
X-104497Y-173997D01*
X-104469Y-173999D01*
X-87020Y-173999D01*
X-86902Y-173984D01*
X-86783Y-173977D01*
X-86745Y-173964D01*
X-86704Y-173959D01*
X-86594Y-173916D01*
X-86481Y-173879D01*
X-86446Y-173857D01*
X-86409Y-173842D01*
X-86313Y-173773D01*
X-86212Y-173709D01*
X-86184Y-173679D01*
X-86151Y-173656D01*
X-86075Y-173564D01*
X-85994Y-173477D01*
X-85974Y-173442D01*
X-85949Y-173411D01*
X-85898Y-173303D01*
X-85840Y-173199D01*
X-85830Y-173159D01*
X-85813Y-173123D01*
X-85791Y-173006D01*
X-85761Y-172891D01*
X-85757Y-172831D01*
X-85753Y-172811D01*
X-85755Y-172790D01*
X-85751Y-172730D01*
X-85751Y-156093D01*
X-83055Y-153397D01*
X-82982Y-153303D01*
X-82904Y-153214D01*
X-82885Y-153178D01*
X-82860Y-153146D01*
X-82813Y-153037D01*
X-82759Y-152931D01*
X-82750Y-152892D01*
X-82734Y-152854D01*
X-82715Y-152737D01*
X-82689Y-152621D01*
X-82691Y-152580D01*
X-82684Y-152540D01*
X-82695Y-152422D01*
X-82699Y-152303D01*
X-82710Y-152264D01*
X-82714Y-152224D01*
X-82754Y-152111D01*
X-82787Y-151997D01*
X-82808Y-151962D01*
X-82822Y-151924D01*
X-82889Y-151826D01*
X-82949Y-151723D01*
X-82989Y-151678D01*
X-83000Y-151661D01*
X-83016Y-151648D01*
X-83055Y-151602D01*
X-85751Y-148907D01*
X-85751Y-131093D01*
X-83407Y-128749D01*
X-83270Y-128749D01*
X-83152Y-128734D01*
X-83033Y-128727D01*
X-82995Y-128714D01*
X-82954Y-128709D01*
X-82844Y-128666D01*
X-82731Y-128629D01*
X-82696Y-128607D01*
X-82659Y-128592D01*
X-82563Y-128523D01*
X-82462Y-128459D01*
X-82434Y-128429D01*
X-82401Y-128406D01*
X-82325Y-128314D01*
X-82244Y-128227D01*
X-82224Y-128192D01*
X-82199Y-128161D01*
X-82148Y-128053D01*
X-82090Y-127949D01*
X-82080Y-127909D01*
X-82063Y-127873D01*
X-82041Y-127756D01*
X-82011Y-127641D01*
X-82007Y-127581D01*
X-82003Y-127561D01*
X-82005Y-127540D01*
X-82001Y-127480D01*
X-82001Y-122770D01*
X-82016Y-122652D01*
X-82023Y-122533D01*
X-82036Y-122495D01*
X-82041Y-122454D01*
X-82084Y-122344D01*
X-82121Y-122231D01*
X-82143Y-122196D01*
X-82158Y-122159D01*
X-82227Y-122063D01*
X-82291Y-121962D01*
X-82321Y-121934D01*
X-82344Y-121901D01*
X-82436Y-121825D01*
X-82523Y-121744D01*
X-82558Y-121724D01*
X-82589Y-121699D01*
X-82697Y-121648D01*
X-82801Y-121590D01*
X-82841Y-121580D01*
X-82877Y-121563D01*
X-82994Y-121541D01*
X-83109Y-121511D01*
X-83169Y-121507D01*
X-83189Y-121503D01*
X-83210Y-121505D01*
X-83270Y-121501D01*
X-83657Y-121501D01*
X-84103Y-121055D01*
X-84197Y-120982D01*
X-84286Y-120904D01*
X-84322Y-120885D01*
X-84354Y-120860D01*
X-84463Y-120813D01*
X-84569Y-120759D01*
X-84608Y-120750D01*
X-84646Y-120734D01*
X-84763Y-120715D01*
X-84879Y-120689D01*
X-84920Y-120691D01*
X-84960Y-120684D01*
X-85078Y-120695D01*
X-85197Y-120699D01*
X-85236Y-120710D01*
X-85276Y-120714D01*
X-85388Y-120754D01*
X-85503Y-120787D01*
X-85538Y-120808D01*
X-85576Y-120822D01*
X-85674Y-120889D01*
X-85777Y-120949D01*
X-85822Y-120989D01*
X-85839Y-121000D01*
X-85852Y-121016D01*
X-85898Y-121055D01*
X-86343Y-121501D01*
X-102657Y-121501D01*
X-105001Y-119157D01*
X-105001Y-100843D01*
X-102657Y-98499D01*
X-101770Y-98499D01*
X-101652Y-98484D01*
X-101533Y-98477D01*
X-101495Y-98464D01*
X-101454Y-98459D01*
X-101344Y-98416D01*
X-101231Y-98379D01*
X-101196Y-98357D01*
X-101159Y-98342D01*
X-101063Y-98273D01*
X-100962Y-98209D01*
X-100934Y-98179D01*
X-100901Y-98156D01*
X-100825Y-98064D01*
X-100744Y-97977D01*
X-100724Y-97942D01*
X-100699Y-97911D01*
X-100648Y-97803D01*
X-100590Y-97699D01*
X-100580Y-97659D01*
X-100563Y-97623D01*
X-100541Y-97506D01*
X-100511Y-97391D01*
X-100507Y-97331D01*
X-100503Y-97311D01*
X-100505Y-97290D01*
X-100501Y-97230D01*
X-100501Y-94556D01*
X-99587Y-92351D01*
X-92364Y-85127D01*
X-92279Y-85018D01*
X-92190Y-84911D01*
X-92181Y-84892D01*
X-92169Y-84876D01*
X-92113Y-84748D01*
X-92054Y-84623D01*
X-92051Y-84603D01*
X-92042Y-84584D01*
X-92021Y-84446D01*
X-91995Y-84310D01*
X-91996Y-84290D01*
X-91993Y-84270D01*
X-92006Y-84131D01*
X-92014Y-83993D01*
X-92021Y-83974D01*
X-92022Y-83954D01*
X-92070Y-83822D01*
X-92112Y-83691D01*
X-92123Y-83673D01*
X-92130Y-83654D01*
X-92208Y-83539D01*
X-92283Y-83422D01*
X-92297Y-83408D01*
X-92309Y-83391D01*
X-92413Y-83299D01*
X-92514Y-83204D01*
X-92532Y-83194D01*
X-92547Y-83181D01*
X-92671Y-83117D01*
X-92793Y-83050D01*
X-92812Y-83045D01*
X-92830Y-83036D01*
X-92966Y-83006D01*
X-93101Y-82971D01*
X-93129Y-82969D01*
X-93141Y-82966D01*
X-93161Y-82967D01*
X-93261Y-82961D01*
X-207534Y-82961D01*
X-209739Y-82047D01*
X-211606Y-80181D01*
X-219102Y-72684D01*
X-219180Y-72624D01*
X-219252Y-72556D01*
X-219305Y-72527D01*
X-219353Y-72490D01*
X-219444Y-72450D01*
X-219531Y-72402D01*
X-219589Y-72387D01*
X-219645Y-72363D01*
X-219743Y-72348D01*
X-219839Y-72323D01*
X-219939Y-72317D01*
X-219959Y-72313D01*
X-219971Y-72315D01*
X-219999Y-72313D01*
X-224311Y-72313D01*
X-228395Y-70621D01*
X-231521Y-67495D01*
X-233213Y-63411D01*
X-233213Y-58989D01*
X-231521Y-54905D01*
X-228395Y-51779D01*
X-224311Y-50087D01*
X-221463Y-50087D01*
X-221326Y-50070D01*
X-221187Y-50057D01*
X-221168Y-50050D01*
X-221148Y-50047D01*
X-221019Y-49996D01*
X-220888Y-49949D01*
X-220871Y-49938D01*
X-220852Y-49930D01*
X-220740Y-49849D01*
X-220625Y-49771D01*
X-220611Y-49755D01*
X-220595Y-49744D01*
X-220506Y-49636D01*
X-220414Y-49532D01*
X-220405Y-49514D01*
X-220392Y-49499D01*
X-220333Y-49373D01*
X-220269Y-49249D01*
X-220265Y-49229D01*
X-220256Y-49211D01*
X-220230Y-49075D01*
X-220200Y-48939D01*
X-220200Y-48918D01*
X-220197Y-48899D01*
X-220205Y-48760D01*
X-220209Y-48621D01*
X-220215Y-48601D01*
X-220216Y-48581D01*
X-220259Y-48449D01*
X-220298Y-48315D01*
X-220308Y-48298D01*
X-220314Y-48279D01*
X-220389Y-48161D01*
X-220459Y-48041D01*
X-220478Y-48020D01*
X-220485Y-48010D01*
X-220499Y-47996D01*
X-220566Y-47921D01*
X-221202Y-47284D01*
X-221280Y-47224D01*
X-221352Y-47156D01*
X-221405Y-47127D01*
X-221453Y-47090D01*
X-221544Y-47050D01*
X-221631Y-47002D01*
X-221689Y-46987D01*
X-221745Y-46963D01*
X-221843Y-46948D01*
X-221939Y-46923D01*
X-222039Y-46917D01*
X-222059Y-46913D01*
X-222071Y-46915D01*
X-222099Y-46913D01*
X-224311Y-46913D01*
X-228395Y-45221D01*
X-231521Y-42095D01*
X-233213Y-38011D01*
X-233213Y-33589D01*
X-231521Y-29505D01*
X-228395Y-26379D01*
X-224287Y-24678D01*
X-224226Y-24670D01*
X-224087Y-24657D01*
X-224068Y-24650D01*
X-224048Y-24647D01*
X-223919Y-24596D01*
X-223788Y-24549D01*
X-223771Y-24538D01*
X-223752Y-24530D01*
X-223640Y-24449D01*
X-223525Y-24371D01*
X-223511Y-24355D01*
X-223495Y-24344D01*
X-223406Y-24236D01*
X-223314Y-24132D01*
X-223305Y-24114D01*
X-223292Y-24099D01*
X-223233Y-23973D01*
X-223169Y-23849D01*
X-223165Y-23829D01*
X-223156Y-23811D01*
X-223130Y-23675D01*
X-223100Y-23539D01*
X-223100Y-23518D01*
X-223097Y-23499D01*
X-223105Y-23360D01*
X-223109Y-23221D01*
X-223115Y-23201D01*
X-223116Y-23181D01*
X-223159Y-23049D01*
X-223198Y-22915D01*
X-223208Y-22898D01*
X-223214Y-22879D01*
X-223289Y-22761D01*
X-223359Y-22641D01*
X-223378Y-22620D01*
X-223385Y-22610D01*
X-223399Y-22596D01*
X-223466Y-22521D01*
X-224410Y-21576D01*
X-224418Y-21570D01*
X-224424Y-21563D01*
X-224543Y-21473D01*
X-224662Y-21381D01*
X-224670Y-21377D01*
X-224678Y-21372D01*
X-224822Y-21301D01*
X-228395Y-19821D01*
X-231521Y-16695D01*
X-233213Y-12611D01*
X-233213Y-8189D01*
X-231521Y-4105D01*
X-228395Y-979D01*
X-224311Y713D01*
X-219889Y713D01*
X-215805Y-979D01*
X-212679Y-4105D01*
X-210987Y-8189D01*
X-210987Y-12611D01*
X-212249Y-15657D01*
X-212257Y-15685D01*
X-212270Y-15711D01*
X-212299Y-15838D01*
X-212333Y-15963D01*
X-212333Y-15993D01*
X-212340Y-16022D01*
X-212336Y-16151D01*
X-212338Y-16281D01*
X-212331Y-16310D01*
X-212330Y-16340D01*
X-212294Y-16464D01*
X-212264Y-16591D01*
X-212250Y-16617D01*
X-212242Y-16645D01*
X-212176Y-16757D01*
X-212115Y-16872D01*
X-212095Y-16894D01*
X-212080Y-16919D01*
X-211974Y-17040D01*
X-177743Y-51270D01*
X-177634Y-51355D01*
X-177527Y-51444D01*
X-177508Y-51453D01*
X-177492Y-51465D01*
X-177364Y-51521D01*
X-177239Y-51580D01*
X-177219Y-51583D01*
X-177200Y-51592D01*
X-177062Y-51613D01*
X-176926Y-51639D01*
X-176906Y-51638D01*
X-176886Y-51641D01*
X-176747Y-51628D01*
X-176609Y-51620D01*
X-176590Y-51613D01*
X-176570Y-51612D01*
X-176438Y-51564D01*
X-176307Y-51522D01*
X-176289Y-51511D01*
X-176270Y-51504D01*
X-176155Y-51426D01*
X-176038Y-51351D01*
X-176024Y-51337D01*
X-176007Y-51325D01*
X-175915Y-51221D01*
X-175820Y-51120D01*
X-175810Y-51102D01*
X-175797Y-51087D01*
X-175733Y-50963D01*
X-175666Y-50841D01*
X-175661Y-50822D01*
X-175652Y-50804D01*
X-175622Y-50668D01*
X-175587Y-50533D01*
X-175585Y-50505D01*
X-175582Y-50493D01*
X-175583Y-50473D01*
X-175577Y-50373D01*
X-175577Y-42226D01*
X-174448Y-41097D01*
X-174375Y-41003D01*
X-174297Y-40914D01*
X-174278Y-40878D01*
X-174253Y-40846D01*
X-174206Y-40737D01*
X-174152Y-40631D01*
X-174143Y-40592D01*
X-174127Y-40554D01*
X-174108Y-40437D01*
X-174082Y-40321D01*
X-174084Y-40280D01*
X-174077Y-40240D01*
X-174088Y-40122D01*
X-174092Y-40003D01*
X-174103Y-39964D01*
X-174107Y-39924D01*
X-174147Y-39812D01*
X-174180Y-39697D01*
X-174201Y-39662D01*
X-174215Y-39624D01*
X-174282Y-39526D01*
X-174342Y-39423D01*
X-174382Y-39378D01*
X-174393Y-39361D01*
X-174409Y-39348D01*
X-174448Y-39302D01*
X-175577Y-38174D01*
X-175577Y-29526D01*
X-174448Y-28397D01*
X-174375Y-28303D01*
X-174297Y-28214D01*
X-174278Y-28178D01*
X-174253Y-28146D01*
X-174206Y-28037D01*
X-174152Y-27931D01*
X-174143Y-27892D01*
X-174127Y-27854D01*
X-174108Y-27737D01*
X-174082Y-27621D01*
X-174084Y-27580D01*
X-174077Y-27540D01*
X-174088Y-27422D01*
X-174092Y-27303D01*
X-174103Y-27264D01*
X-174107Y-27224D01*
X-174147Y-27112D01*
X-174180Y-26997D01*
X-174201Y-26962D01*
X-174215Y-26924D01*
X-174282Y-26826D01*
X-174342Y-26723D01*
X-174382Y-26678D01*
X-174393Y-26661D01*
X-174409Y-26648D01*
X-174448Y-26602D01*
X-175577Y-25474D01*
X-175577Y-16826D01*
X-174448Y-15697D01*
X-174375Y-15603D01*
X-174297Y-15514D01*
X-174278Y-15478D01*
X-174253Y-15446D01*
X-174206Y-15337D01*
X-174152Y-15231D01*
X-174143Y-15192D01*
X-174127Y-15154D01*
X-174108Y-15037D01*
X-174082Y-14921D01*
X-174084Y-14880D01*
X-174077Y-14840D01*
X-174088Y-14722D01*
X-174092Y-14603D01*
X-174103Y-14564D01*
X-174107Y-14524D01*
X-174147Y-14412D01*
X-174180Y-14297D01*
X-174201Y-14262D01*
X-174215Y-14224D01*
X-174282Y-14126D01*
X-174342Y-14023D01*
X-174382Y-13978D01*
X-174393Y-13961D01*
X-174409Y-13948D01*
X-174448Y-13902D01*
X-175577Y-12774D01*
X-175577Y-4126D01*
X-173233Y-1782D01*
X-153221Y-1782D01*
X-153103Y-1767D01*
X-152984Y-1760D01*
X-152945Y-1747D01*
X-152905Y-1742D01*
X-152794Y-1699D01*
X-152681Y-1662D01*
X-152647Y-1640D01*
X-152610Y-1625D01*
X-152513Y-1556D01*
X-152413Y-1492D01*
X-152385Y-1462D01*
X-152352Y-1439D01*
X-152276Y-1347D01*
X-152195Y-1260D01*
X-152175Y-1225D01*
X-152149Y-1194D01*
X-152099Y-1086D01*
X-152041Y-982D01*
X-152031Y-942D01*
X-152014Y-906D01*
X-151991Y-789D01*
X-151962Y-674D01*
X-151958Y-614D01*
X-151954Y-594D01*
X-151955Y-573D01*
X-151951Y-513D01*
X-151951Y20326D01*
X-151969Y20464D01*
X-151982Y20603D01*
X-151989Y20622D01*
X-151991Y20642D01*
X-152042Y20771D01*
X-152090Y20902D01*
X-152101Y20919D01*
X-152108Y20938D01*
X-152190Y21050D01*
X-152268Y21165D01*
X-152283Y21179D01*
X-152295Y21195D01*
X-152402Y21284D01*
X-152507Y21376D01*
X-152525Y21385D01*
X-152540Y21398D01*
X-152666Y21457D01*
X-152790Y21520D01*
X-152810Y21525D01*
X-152828Y21533D01*
X-152964Y21559D01*
X-153100Y21590D01*
X-153120Y21589D01*
X-153140Y21593D01*
X-153279Y21584D01*
X-153418Y21580D01*
X-153438Y21575D01*
X-153458Y21573D01*
X-153590Y21531D01*
X-153723Y21492D01*
X-153741Y21482D01*
X-153760Y21475D01*
X-153878Y21401D01*
X-153997Y21330D01*
X-154018Y21312D01*
X-154029Y21305D01*
X-154043Y21290D01*
X-154118Y21224D01*
X-156093Y19249D01*
X-173907Y19249D01*
X-175285Y20628D01*
X-175364Y20688D01*
X-175436Y20756D01*
X-175489Y20785D01*
X-175537Y20822D01*
X-175628Y20862D01*
X-175714Y20910D01*
X-175773Y20925D01*
X-175829Y20949D01*
X-175927Y20964D01*
X-176022Y20989D01*
X-176122Y20995D01*
X-176143Y20999D01*
X-176155Y20997D01*
X-176183Y20999D01*
X-204260Y20999D01*
X-204358Y20987D01*
X-204457Y20984D01*
X-204516Y20967D01*
X-204576Y20959D01*
X-204668Y20923D01*
X-204763Y20895D01*
X-204815Y20865D01*
X-204871Y20842D01*
X-204952Y20784D01*
X-205037Y20734D01*
X-205112Y20668D01*
X-205129Y20656D01*
X-205137Y20646D01*
X-205158Y20628D01*
X-210616Y15170D01*
X-210676Y15092D01*
X-210744Y15019D01*
X-210773Y14966D01*
X-210810Y14919D01*
X-210850Y14828D01*
X-210898Y14741D01*
X-210913Y14682D01*
X-210937Y14627D01*
X-210952Y14529D01*
X-210977Y14433D01*
X-210983Y14333D01*
X-210987Y14313D01*
X-210985Y14300D01*
X-210987Y14272D01*
X-210987Y12789D01*
X-212679Y8705D01*
X-215805Y5579D01*
X-219889Y3887D01*
X-224311Y3887D01*
X-228395Y5579D01*
X-231521Y8705D01*
X-233213Y12789D01*
X-233213Y14272D01*
X-233225Y14370D01*
X-233228Y14469D01*
X-233245Y14528D01*
X-233253Y14588D01*
X-233289Y14680D01*
X-233317Y14775D01*
X-233347Y14827D01*
X-233370Y14883D01*
X-233428Y14964D01*
X-233478Y15049D01*
X-233544Y15124D01*
X-233556Y15141D01*
X-233566Y15149D01*
X-233584Y15170D01*
X-246783Y28368D01*
X-248001Y31309D01*
X-248001Y201591D01*
X-246783Y204532D01*
X-244354Y206961D01*
X-244353Y206961D01*
X-202538Y248777D01*
X-202507Y248816D01*
X-202471Y248850D01*
X-202410Y248941D01*
X-202343Y249028D01*
X-202323Y249074D01*
X-202296Y249115D01*
X-202260Y249219D01*
X-202216Y249320D01*
X-202209Y249369D01*
X-202193Y249416D01*
X-202184Y249525D01*
X-202167Y249634D01*
X-202171Y249684D01*
X-202167Y249733D01*
X-202186Y249841D01*
X-202196Y249951D01*
X-202213Y249998D01*
X-202222Y250046D01*
X-202267Y250147D01*
X-202304Y250250D01*
X-202332Y250291D01*
X-202352Y250336D01*
X-202421Y250422D01*
X-202483Y250513D01*
X-202520Y250546D01*
X-202551Y250585D01*
X-202639Y250651D01*
X-202721Y250724D01*
X-202765Y250746D01*
X-202805Y250776D01*
X-202950Y250847D01*
X-203168Y250938D01*
X-203196Y250945D01*
X-203223Y250959D01*
X-203349Y250987D01*
X-203475Y251021D01*
X-203504Y251022D01*
X-203533Y251028D01*
X-203663Y251024D01*
X-203793Y251026D01*
X-203821Y251020D01*
X-203851Y251019D01*
X-203976Y250983D01*
X-204102Y250952D01*
X-204128Y250939D01*
X-204156Y250930D01*
X-204268Y250864D01*
X-204383Y250804D01*
X-204405Y250784D01*
X-204430Y250769D01*
X-204551Y250662D01*
X-272628Y182586D01*
X-272688Y182508D01*
X-272756Y182436D01*
X-272785Y182383D01*
X-272822Y182335D01*
X-272862Y182244D01*
X-272910Y182157D01*
X-272925Y182099D01*
X-272949Y182043D01*
X-272964Y181945D01*
X-272989Y181849D01*
X-272995Y181749D01*
X-272999Y181729D01*
X-272997Y181716D01*
X-272999Y181688D01*
X-272999Y-1130D01*
X-272984Y-1248D01*
X-272977Y-1367D01*
X-272964Y-1405D01*
X-272959Y-1446D01*
X-272916Y-1556D01*
X-272879Y-1669D01*
X-272857Y-1704D01*
X-272842Y-1741D01*
X-272773Y-1837D01*
X-272709Y-1938D01*
X-272679Y-1966D01*
X-272656Y-1999D01*
X-272564Y-2075D01*
X-272477Y-2156D01*
X-272442Y-2176D01*
X-272411Y-2201D01*
X-272303Y-2252D01*
X-272199Y-2310D01*
X-272159Y-2320D01*
X-272123Y-2337D01*
X-272006Y-2359D01*
X-271891Y-2389D01*
X-271831Y-2393D01*
X-271811Y-2397D01*
X-271790Y-2395D01*
X-271730Y-2399D01*
X-255741Y-2399D01*
X-255643Y-2387D01*
X-255544Y-2384D01*
X-255485Y-2367D01*
X-255425Y-2359D01*
X-255333Y-2323D01*
X-255238Y-2295D01*
X-255186Y-2265D01*
X-255130Y-2242D01*
X-255050Y-2184D01*
X-254964Y-2134D01*
X-254889Y-2068D01*
X-254872Y-2056D01*
X-254864Y-2046D01*
X-254843Y-2028D01*
X-253795Y-979D01*
X-249711Y713D01*
X-245289Y713D01*
X-241205Y-979D01*
X-238079Y-4105D01*
X-236387Y-8189D01*
X-236387Y-12611D01*
X-238079Y-16695D01*
X-241205Y-19821D01*
X-245289Y-21513D01*
X-249711Y-21513D01*
X-253795Y-19821D01*
X-254843Y-18772D01*
X-254922Y-18712D01*
X-254994Y-18644D01*
X-255047Y-18615D01*
X-255095Y-18578D01*
X-255186Y-18538D01*
X-255272Y-18490D01*
X-255331Y-18475D01*
X-255386Y-18451D01*
X-255484Y-18436D01*
X-255580Y-18411D01*
X-255680Y-18405D01*
X-255701Y-18401D01*
X-255713Y-18403D01*
X-255741Y-18401D01*
X-271730Y-18401D01*
X-271848Y-18416D01*
X-271967Y-18423D01*
X-272005Y-18436D01*
X-272046Y-18441D01*
X-272156Y-18484D01*
X-272269Y-18521D01*
X-272304Y-18543D01*
X-272341Y-18558D01*
X-272437Y-18627D01*
X-272538Y-18691D01*
X-272566Y-18721D01*
X-272599Y-18744D01*
X-272675Y-18836D01*
X-272756Y-18923D01*
X-272776Y-18958D01*
X-272801Y-18989D01*
X-272852Y-19097D01*
X-272910Y-19201D01*
X-272920Y-19241D01*
X-272937Y-19277D01*
X-272959Y-19394D01*
X-272989Y-19509D01*
X-272993Y-19569D01*
X-272997Y-19589D01*
X-272995Y-19610D01*
X-272999Y-19670D01*
X-272999Y-216319D01*
X-272987Y-216417D01*
X-272984Y-216516D01*
X-272967Y-216575D01*
X-272959Y-216635D01*
X-272923Y-216727D01*
X-272895Y-216822D01*
X-272865Y-216874D01*
X-272842Y-216930D01*
X-272784Y-217011D01*
X-272734Y-217096D01*
X-272668Y-217171D01*
X-272656Y-217188D01*
X-272646Y-217196D01*
X-272628Y-217217D01*
X-267617Y-222228D01*
X-267538Y-222288D01*
X-267466Y-222356D01*
X-267413Y-222385D01*
X-267365Y-222422D01*
X-267274Y-222462D01*
X-267188Y-222510D01*
X-267129Y-222525D01*
X-267074Y-222549D01*
X-266976Y-222564D01*
X-266880Y-222589D01*
X-266780Y-222595D01*
X-266759Y-222599D01*
X-266747Y-222597D01*
X-266719Y-222599D01*
X-227346Y-222599D01*
X-227248Y-222587D01*
G37*
G36*
X2610Y-384913D02*
X2610Y-384913D01*
X2659Y-384915D01*
X2767Y-384893D01*
X2876Y-384879D01*
X2922Y-384861D01*
X2971Y-384851D01*
X3070Y-384803D01*
X3172Y-384762D01*
X3212Y-384733D01*
X3257Y-384711D01*
X3340Y-384640D01*
X3429Y-384576D01*
X3461Y-384537D01*
X3499Y-384505D01*
X3562Y-384415D01*
X3632Y-384331D01*
X3653Y-384286D01*
X3682Y-384245D01*
X3721Y-384142D01*
X3767Y-384043D01*
X3777Y-383994D01*
X3794Y-383948D01*
X3807Y-383838D01*
X3827Y-383731D01*
X3824Y-383681D01*
X3830Y-383632D01*
X3814Y-383523D01*
X3807Y-383413D01*
X3792Y-383366D01*
X3785Y-383317D01*
X3733Y-383164D01*
X2999Y-381393D01*
X2999Y-347907D01*
X3253Y-347296D01*
X3255Y-347287D01*
X3260Y-347279D01*
X3267Y-347248D01*
X3274Y-347235D01*
X3282Y-347192D01*
X3297Y-347133D01*
X3337Y-346989D01*
X3337Y-346980D01*
X3339Y-346971D01*
X3349Y-346810D01*
X3349Y-342007D01*
X5107Y-340249D01*
X14893Y-340249D01*
X16651Y-342007D01*
X16651Y-346810D01*
X16652Y-346819D01*
X16651Y-346828D01*
X16672Y-346977D01*
X16691Y-347126D01*
X16694Y-347134D01*
X16695Y-347143D01*
X16747Y-347296D01*
X17001Y-347907D01*
X17001Y-373730D01*
X17016Y-373848D01*
X17023Y-373967D01*
X17036Y-374005D01*
X17041Y-374046D01*
X17084Y-374156D01*
X17121Y-374269D01*
X17143Y-374304D01*
X17158Y-374341D01*
X17227Y-374437D01*
X17291Y-374538D01*
X17321Y-374566D01*
X17344Y-374599D01*
X17436Y-374675D01*
X17523Y-374756D01*
X17558Y-374776D01*
X17589Y-374801D01*
X17697Y-374852D01*
X17801Y-374910D01*
X17841Y-374920D01*
X17877Y-374937D01*
X17994Y-374959D01*
X18109Y-374989D01*
X18169Y-374993D01*
X18189Y-374997D01*
X18210Y-374995D01*
X18270Y-374999D01*
X30000Y-374999D01*
X30118Y-374984D01*
X30237Y-374977D01*
X30275Y-374964D01*
X30316Y-374959D01*
X30426Y-374916D01*
X30539Y-374879D01*
X30574Y-374857D01*
X30611Y-374842D01*
X30707Y-374773D01*
X30808Y-374709D01*
X30836Y-374679D01*
X30869Y-374656D01*
X30945Y-374564D01*
X31026Y-374477D01*
X31046Y-374442D01*
X31071Y-374411D01*
X31122Y-374303D01*
X31180Y-374199D01*
X31190Y-374159D01*
X31207Y-374123D01*
X31229Y-374006D01*
X31259Y-373891D01*
X31263Y-373831D01*
X31267Y-373811D01*
X31265Y-373790D01*
X31269Y-373730D01*
X31269Y-293915D01*
X31254Y-293797D01*
X31247Y-293679D01*
X31234Y-293640D01*
X31229Y-293600D01*
X31186Y-293489D01*
X31149Y-293376D01*
X31127Y-293342D01*
X31112Y-293304D01*
X31043Y-293208D01*
X30979Y-293107D01*
X30949Y-293080D01*
X30926Y-293047D01*
X30834Y-292971D01*
X30747Y-292889D01*
X30712Y-292870D01*
X30681Y-292844D01*
X30573Y-292793D01*
X30469Y-292736D01*
X30429Y-292726D01*
X30393Y-292709D01*
X30276Y-292686D01*
X30161Y-292656D01*
X30101Y-292653D01*
X30081Y-292649D01*
X30060Y-292650D01*
X30000Y-292646D01*
X19270Y-292646D01*
X19152Y-292661D01*
X19033Y-292669D01*
X18995Y-292681D01*
X18954Y-292686D01*
X18844Y-292730D01*
X18731Y-292767D01*
X18696Y-292788D01*
X18659Y-292803D01*
X18563Y-292873D01*
X18462Y-292937D01*
X18434Y-292966D01*
X18401Y-292990D01*
X18325Y-293082D01*
X18244Y-293168D01*
X18224Y-293204D01*
X18199Y-293235D01*
X18148Y-293343D01*
X18090Y-293447D01*
X18080Y-293486D01*
X18063Y-293523D01*
X18041Y-293639D01*
X18011Y-293755D01*
X18007Y-293815D01*
X18003Y-293835D01*
X18005Y-293855D01*
X18001Y-293915D01*
X18001Y-317291D01*
X16747Y-320317D01*
X16745Y-320326D01*
X16740Y-320334D01*
X16703Y-320480D01*
X16663Y-320624D01*
X16663Y-320633D01*
X16661Y-320642D01*
X16651Y-320803D01*
X16651Y-322993D01*
X14893Y-324751D01*
X5107Y-324751D01*
X3349Y-322993D01*
X3349Y-320803D01*
X3348Y-320794D01*
X3349Y-320785D01*
X3328Y-320636D01*
X3309Y-320488D01*
X3306Y-320479D01*
X3305Y-320470D01*
X3253Y-320317D01*
X1999Y-317291D01*
X1999Y-293915D01*
X1984Y-293797D01*
X1977Y-293679D01*
X1964Y-293640D01*
X1959Y-293600D01*
X1916Y-293489D01*
X1879Y-293376D01*
X1857Y-293342D01*
X1842Y-293304D01*
X1773Y-293208D01*
X1709Y-293107D01*
X1679Y-293080D01*
X1656Y-293047D01*
X1564Y-292971D01*
X1477Y-292889D01*
X1442Y-292870D01*
X1411Y-292844D01*
X1303Y-292793D01*
X1199Y-292736D01*
X1159Y-292726D01*
X1123Y-292709D01*
X1006Y-292686D01*
X891Y-292656D01*
X831Y-292653D01*
X811Y-292649D01*
X790Y-292650D01*
X730Y-292646D01*
X-2552Y-292646D01*
X-4310Y-290888D01*
X-4310Y-269112D01*
X-2552Y-267354D01*
X30000Y-267354D01*
X30118Y-267339D01*
X30237Y-267331D01*
X30275Y-267319D01*
X30316Y-267314D01*
X30426Y-267270D01*
X30539Y-267233D01*
X30574Y-267212D01*
X30611Y-267197D01*
X30707Y-267127D01*
X30808Y-267063D01*
X30836Y-267034D01*
X30869Y-267010D01*
X30945Y-266918D01*
X31026Y-266832D01*
X31046Y-266796D01*
X31071Y-266765D01*
X31122Y-266657D01*
X31180Y-266553D01*
X31190Y-266514D01*
X31207Y-266477D01*
X31229Y-266361D01*
X31259Y-266245D01*
X31263Y-266185D01*
X31267Y-266165D01*
X31265Y-266145D01*
X31269Y-266085D01*
X31269Y-243915D01*
X31254Y-243797D01*
X31247Y-243679D01*
X31234Y-243640D01*
X31229Y-243600D01*
X31186Y-243489D01*
X31149Y-243376D01*
X31127Y-243342D01*
X31112Y-243304D01*
X31043Y-243208D01*
X30979Y-243107D01*
X30949Y-243080D01*
X30926Y-243047D01*
X30834Y-242971D01*
X30747Y-242889D01*
X30712Y-242870D01*
X30681Y-242844D01*
X30573Y-242793D01*
X30469Y-242736D01*
X30429Y-242726D01*
X30393Y-242709D01*
X30276Y-242686D01*
X30161Y-242656D01*
X30101Y-242653D01*
X30081Y-242649D01*
X30060Y-242650D01*
X30000Y-242646D01*
X-2552Y-242646D01*
X-4310Y-240888D01*
X-4310Y-219112D01*
X-2552Y-217354D01*
X30000Y-217354D01*
X30118Y-217339D01*
X30237Y-217331D01*
X30275Y-217319D01*
X30316Y-217314D01*
X30426Y-217270D01*
X30539Y-217233D01*
X30574Y-217212D01*
X30611Y-217197D01*
X30707Y-217127D01*
X30808Y-217063D01*
X30836Y-217034D01*
X30869Y-217010D01*
X30945Y-216918D01*
X31026Y-216832D01*
X31046Y-216796D01*
X31071Y-216765D01*
X31122Y-216657D01*
X31180Y-216553D01*
X31190Y-216514D01*
X31207Y-216477D01*
X31229Y-216361D01*
X31259Y-216245D01*
X31263Y-216185D01*
X31267Y-216165D01*
X31265Y-216145D01*
X31269Y-216085D01*
X31269Y-205000D01*
X31254Y-204882D01*
X31247Y-204763D01*
X31234Y-204725D01*
X31229Y-204684D01*
X31186Y-204574D01*
X31149Y-204461D01*
X31127Y-204426D01*
X31112Y-204389D01*
X31043Y-204293D01*
X30979Y-204192D01*
X30949Y-204164D01*
X30926Y-204131D01*
X30834Y-204056D01*
X30747Y-203974D01*
X30712Y-203954D01*
X30681Y-203929D01*
X30573Y-203878D01*
X30469Y-203820D01*
X30429Y-203810D01*
X30393Y-203793D01*
X30276Y-203771D01*
X30161Y-203741D01*
X30101Y-203737D01*
X30081Y-203733D01*
X30060Y-203735D01*
X30000Y-203731D01*
X-121855Y-203731D01*
X-121992Y-203748D01*
X-122131Y-203761D01*
X-122150Y-203768D01*
X-122170Y-203771D01*
X-122299Y-203822D01*
X-122430Y-203869D01*
X-122447Y-203880D01*
X-122466Y-203888D01*
X-122578Y-203969D01*
X-122694Y-204047D01*
X-122707Y-204063D01*
X-122723Y-204074D01*
X-122812Y-204182D01*
X-122904Y-204286D01*
X-122913Y-204304D01*
X-122926Y-204319D01*
X-122985Y-204445D01*
X-123049Y-204569D01*
X-123053Y-204589D01*
X-123062Y-204607D01*
X-123088Y-204743D01*
X-123118Y-204879D01*
X-123118Y-204900D01*
X-123121Y-204920D01*
X-123113Y-205058D01*
X-123109Y-205197D01*
X-123103Y-205217D01*
X-123102Y-205237D01*
X-123059Y-205369D01*
X-123020Y-205503D01*
X-123010Y-205520D01*
X-123004Y-205539D01*
X-122929Y-205657D01*
X-122859Y-205777D01*
X-122840Y-205798D01*
X-122833Y-205808D01*
X-122818Y-205822D01*
X-122752Y-205898D01*
X-118522Y-210128D01*
X-118444Y-210188D01*
X-118372Y-210256D01*
X-118319Y-210285D01*
X-118271Y-210322D01*
X-118180Y-210362D01*
X-118093Y-210410D01*
X-118035Y-210425D01*
X-117979Y-210449D01*
X-117881Y-210464D01*
X-117785Y-210489D01*
X-117685Y-210495D01*
X-117665Y-210499D01*
X-117653Y-210497D01*
X-117625Y-210499D01*
X-49963Y-210499D01*
X-46103Y-212098D01*
X-34848Y-223353D01*
X-33249Y-227213D01*
X-33249Y-255639D01*
X-34848Y-259498D01*
X-43828Y-268478D01*
X-43888Y-268556D01*
X-43956Y-268628D01*
X-43985Y-268681D01*
X-44022Y-268729D01*
X-44062Y-268820D01*
X-44110Y-268907D01*
X-44125Y-268965D01*
X-44149Y-269021D01*
X-44164Y-269119D01*
X-44189Y-269215D01*
X-44195Y-269315D01*
X-44199Y-269335D01*
X-44197Y-269347D01*
X-44199Y-269375D01*
X-44199Y-271243D01*
X-45957Y-273001D01*
X-58443Y-273001D01*
X-60201Y-271243D01*
X-60201Y-269375D01*
X-60213Y-269277D01*
X-60216Y-269178D01*
X-60233Y-269120D01*
X-60241Y-269060D01*
X-60277Y-268968D01*
X-60305Y-268873D01*
X-60335Y-268820D01*
X-60358Y-268764D01*
X-60416Y-268684D01*
X-60466Y-268599D01*
X-60532Y-268523D01*
X-60544Y-268507D01*
X-60554Y-268499D01*
X-60572Y-268478D01*
X-61102Y-267948D01*
X-62701Y-264089D01*
X-62701Y-259911D01*
X-61102Y-256052D01*
X-60572Y-255522D01*
X-60512Y-255444D01*
X-60444Y-255372D01*
X-60415Y-255319D01*
X-60378Y-255271D01*
X-60338Y-255180D01*
X-60290Y-255093D01*
X-60275Y-255035D01*
X-60251Y-254979D01*
X-60236Y-254881D01*
X-60211Y-254785D01*
X-60205Y-254685D01*
X-60201Y-254665D01*
X-60203Y-254653D01*
X-60201Y-254625D01*
X-60201Y-252757D01*
X-58443Y-250999D01*
X-56575Y-250999D01*
X-56477Y-250987D01*
X-56378Y-250984D01*
X-56320Y-250967D01*
X-56260Y-250959D01*
X-56168Y-250923D01*
X-56073Y-250895D01*
X-56020Y-250865D01*
X-55964Y-250842D01*
X-55884Y-250784D01*
X-55799Y-250734D01*
X-55723Y-250668D01*
X-55707Y-250656D01*
X-55699Y-250646D01*
X-55678Y-250628D01*
X-54622Y-249572D01*
X-54562Y-249494D01*
X-54494Y-249422D01*
X-54465Y-249369D01*
X-54428Y-249321D01*
X-54388Y-249230D01*
X-54340Y-249143D01*
X-54325Y-249085D01*
X-54301Y-249029D01*
X-54286Y-248931D01*
X-54261Y-248835D01*
X-54255Y-248735D01*
X-54251Y-248715D01*
X-54253Y-248703D01*
X-54251Y-248675D01*
X-54251Y-248559D01*
X-54268Y-248421D01*
X-54281Y-248282D01*
X-54288Y-248263D01*
X-54291Y-248243D01*
X-54342Y-248114D01*
X-54389Y-247983D01*
X-54400Y-247966D01*
X-54408Y-247947D01*
X-54489Y-247835D01*
X-54567Y-247720D01*
X-54583Y-247706D01*
X-54594Y-247690D01*
X-54701Y-247601D01*
X-54806Y-247509D01*
X-54824Y-247500D01*
X-54839Y-247487D01*
X-54965Y-247428D01*
X-55089Y-247365D01*
X-55109Y-247360D01*
X-55127Y-247352D01*
X-55263Y-247326D01*
X-55399Y-247295D01*
X-55420Y-247296D01*
X-55439Y-247292D01*
X-55578Y-247301D01*
X-55717Y-247305D01*
X-55737Y-247310D01*
X-55757Y-247312D01*
X-55889Y-247355D01*
X-56023Y-247393D01*
X-56040Y-247404D01*
X-56059Y-247410D01*
X-56177Y-247484D01*
X-56297Y-247555D01*
X-56318Y-247573D01*
X-56328Y-247580D01*
X-56342Y-247595D01*
X-56418Y-247661D01*
X-56507Y-247751D01*
X-73493Y-247751D01*
X-73871Y-247372D01*
X-73949Y-247312D01*
X-74022Y-247244D01*
X-74075Y-247215D01*
X-74122Y-247178D01*
X-74213Y-247138D01*
X-74300Y-247090D01*
X-74359Y-247075D01*
X-74414Y-247051D01*
X-74512Y-247036D01*
X-74608Y-247011D01*
X-74708Y-247005D01*
X-74728Y-247001D01*
X-74741Y-247003D01*
X-74769Y-247001D01*
X-90231Y-247001D01*
X-90329Y-247013D01*
X-90429Y-247016D01*
X-90487Y-247033D01*
X-90547Y-247041D01*
X-90639Y-247077D01*
X-90734Y-247105D01*
X-90786Y-247135D01*
X-90843Y-247158D01*
X-90923Y-247216D01*
X-91008Y-247266D01*
X-91083Y-247332D01*
X-91100Y-247344D01*
X-91108Y-247354D01*
X-91129Y-247372D01*
X-91628Y-247871D01*
X-91688Y-247949D01*
X-91756Y-248022D01*
X-91785Y-248075D01*
X-91822Y-248122D01*
X-91862Y-248213D01*
X-91910Y-248300D01*
X-91925Y-248359D01*
X-91949Y-248414D01*
X-91964Y-248512D01*
X-91989Y-248608D01*
X-91995Y-248708D01*
X-91999Y-248728D01*
X-91997Y-248741D01*
X-91999Y-248769D01*
X-91999Y-250031D01*
X-91987Y-250130D01*
X-91984Y-250229D01*
X-91967Y-250287D01*
X-91959Y-250347D01*
X-91923Y-250439D01*
X-91895Y-250534D01*
X-91865Y-250586D01*
X-91842Y-250643D01*
X-91784Y-250723D01*
X-91734Y-250808D01*
X-91668Y-250883D01*
X-91656Y-250900D01*
X-91646Y-250908D01*
X-91628Y-250929D01*
X-89799Y-252757D01*
X-89799Y-271243D01*
X-91557Y-273001D01*
X-104043Y-273001D01*
X-105801Y-271243D01*
X-105801Y-265840D01*
X-105813Y-265742D01*
X-105816Y-265643D01*
X-105833Y-265584D01*
X-105841Y-265524D01*
X-105877Y-265432D01*
X-105905Y-265337D01*
X-105935Y-265285D01*
X-105958Y-265229D01*
X-106016Y-265149D01*
X-106066Y-265063D01*
X-106132Y-264988D01*
X-106144Y-264971D01*
X-106154Y-264963D01*
X-106172Y-264942D01*
X-106783Y-264332D01*
X-108001Y-261391D01*
X-108001Y-248769D01*
X-108013Y-248671D01*
X-108016Y-248571D01*
X-108033Y-248513D01*
X-108041Y-248453D01*
X-108077Y-248361D01*
X-108105Y-248266D01*
X-108135Y-248214D01*
X-108158Y-248157D01*
X-108216Y-248077D01*
X-108266Y-247992D01*
X-108332Y-247917D01*
X-108344Y-247900D01*
X-108354Y-247892D01*
X-108372Y-247871D01*
X-108871Y-247372D01*
X-108949Y-247312D01*
X-109022Y-247244D01*
X-109075Y-247215D01*
X-109122Y-247178D01*
X-109213Y-247138D01*
X-109300Y-247090D01*
X-109359Y-247075D01*
X-109414Y-247051D01*
X-109512Y-247036D01*
X-109608Y-247011D01*
X-109708Y-247005D01*
X-109728Y-247001D01*
X-109741Y-247003D01*
X-109769Y-247001D01*
X-116960Y-247001D01*
X-117058Y-247013D01*
X-117157Y-247016D01*
X-117216Y-247033D01*
X-117276Y-247041D01*
X-117368Y-247077D01*
X-117463Y-247105D01*
X-117515Y-247135D01*
X-117571Y-247158D01*
X-117652Y-247216D01*
X-117737Y-247266D01*
X-117812Y-247332D01*
X-117829Y-247344D01*
X-117837Y-247354D01*
X-117858Y-247372D01*
X-122978Y-252492D01*
X-123038Y-252571D01*
X-123106Y-252643D01*
X-123135Y-252696D01*
X-123172Y-252744D01*
X-123212Y-252834D01*
X-123260Y-252921D01*
X-123275Y-252980D01*
X-123299Y-253035D01*
X-123314Y-253133D01*
X-123339Y-253229D01*
X-123345Y-253329D01*
X-123349Y-253349D01*
X-123347Y-253362D01*
X-123349Y-253390D01*
X-123349Y-255493D01*
X-125107Y-257251D01*
X-134893Y-257251D01*
X-135571Y-256573D01*
X-135649Y-256512D01*
X-135722Y-256444D01*
X-135775Y-256415D01*
X-135822Y-256378D01*
X-135913Y-256338D01*
X-136000Y-256290D01*
X-136059Y-256275D01*
X-136114Y-256251D01*
X-136212Y-256236D01*
X-136308Y-256211D01*
X-136408Y-256205D01*
X-136428Y-256201D01*
X-136441Y-256203D01*
X-136469Y-256201D01*
X-158531Y-256201D01*
X-158629Y-256213D01*
X-158729Y-256216D01*
X-158787Y-256233D01*
X-158847Y-256241D01*
X-158939Y-256277D01*
X-159034Y-256305D01*
X-159086Y-256335D01*
X-159143Y-256358D01*
X-159223Y-256416D01*
X-159308Y-256466D01*
X-159383Y-256532D01*
X-159400Y-256544D01*
X-159408Y-256554D01*
X-159429Y-256573D01*
X-160107Y-257251D01*
X-169893Y-257251D01*
X-171651Y-255493D01*
X-171651Y-253390D01*
X-171663Y-253292D01*
X-171666Y-253193D01*
X-171683Y-253134D01*
X-171691Y-253074D01*
X-171727Y-252982D01*
X-171755Y-252887D01*
X-171785Y-252835D01*
X-171808Y-252779D01*
X-171866Y-252698D01*
X-171916Y-252613D01*
X-171982Y-252538D01*
X-171994Y-252521D01*
X-172004Y-252513D01*
X-172022Y-252492D01*
X-186542Y-237972D01*
X-186621Y-237912D01*
X-186693Y-237844D01*
X-186746Y-237815D01*
X-186794Y-237778D01*
X-186884Y-237738D01*
X-186971Y-237690D01*
X-187030Y-237675D01*
X-187085Y-237651D01*
X-187183Y-237636D01*
X-187279Y-237611D01*
X-187379Y-237605D01*
X-187399Y-237601D01*
X-187412Y-237603D01*
X-187440Y-237601D01*
X-210068Y-237601D01*
X-210166Y-237613D01*
X-210265Y-237616D01*
X-210324Y-237633D01*
X-210384Y-237641D01*
X-210476Y-237677D01*
X-210571Y-237705D01*
X-210623Y-237735D01*
X-210679Y-237758D01*
X-210759Y-237816D01*
X-210845Y-237866D01*
X-210920Y-237932D01*
X-210937Y-237944D01*
X-210945Y-237954D01*
X-210966Y-237973D01*
X-211529Y-238536D01*
X-215403Y-240141D01*
X-219607Y-240141D01*
X-219715Y-240120D01*
X-219821Y-240091D01*
X-219871Y-240090D01*
X-219920Y-240081D01*
X-220029Y-240088D01*
X-220139Y-240086D01*
X-220187Y-240097D01*
X-220237Y-240101D01*
X-220341Y-240134D01*
X-220448Y-240160D01*
X-220492Y-240183D01*
X-220539Y-240199D01*
X-220632Y-240257D01*
X-220729Y-240309D01*
X-220766Y-240342D01*
X-220808Y-240369D01*
X-220883Y-240449D01*
X-220965Y-240523D01*
X-220992Y-240564D01*
X-221026Y-240600D01*
X-221079Y-240696D01*
X-221139Y-240788D01*
X-221156Y-240835D01*
X-221180Y-240879D01*
X-221207Y-240985D01*
X-221243Y-241089D01*
X-221247Y-241139D01*
X-221259Y-241187D01*
X-221269Y-241347D01*
X-221269Y-243230D01*
X-221254Y-243348D01*
X-221247Y-243467D01*
X-221234Y-243505D01*
X-221229Y-243546D01*
X-221186Y-243656D01*
X-221149Y-243769D01*
X-221127Y-243804D01*
X-221112Y-243841D01*
X-221043Y-243937D01*
X-220979Y-244038D01*
X-220949Y-244066D01*
X-220926Y-244099D01*
X-220834Y-244175D01*
X-220747Y-244256D01*
X-220712Y-244276D01*
X-220681Y-244301D01*
X-220573Y-244352D01*
X-220469Y-244410D01*
X-220429Y-244420D01*
X-220393Y-244437D01*
X-220276Y-244459D01*
X-220161Y-244489D01*
X-220101Y-244493D01*
X-220081Y-244497D01*
X-220060Y-244495D01*
X-220000Y-244499D01*
X-219946Y-244499D01*
X-219937Y-244498D01*
X-219927Y-244499D01*
X-219778Y-244478D01*
X-219775Y-244478D01*
X-219763Y-244477D01*
X-219759Y-244476D01*
X-219630Y-244459D01*
X-215403Y-244459D01*
X-211529Y-246064D01*
X-208564Y-249029D01*
X-206959Y-252903D01*
X-206959Y-257097D01*
X-208564Y-260971D01*
X-211529Y-263936D01*
X-215403Y-265541D01*
X-219667Y-265541D01*
X-219767Y-265513D01*
X-219776Y-265513D01*
X-219785Y-265511D01*
X-219946Y-265501D01*
X-220000Y-265501D01*
X-220063Y-265509D01*
X-220085Y-265508D01*
X-220112Y-265515D01*
X-220118Y-265516D01*
X-220237Y-265523D01*
X-220275Y-265536D01*
X-220316Y-265541D01*
X-220426Y-265584D01*
X-220539Y-265621D01*
X-220574Y-265643D01*
X-220611Y-265658D01*
X-220707Y-265727D01*
X-220808Y-265791D01*
X-220836Y-265821D01*
X-220869Y-265844D01*
X-220945Y-265936D01*
X-221026Y-266023D01*
X-221046Y-266058D01*
X-221071Y-266089D01*
X-221122Y-266197D01*
X-221180Y-266301D01*
X-221190Y-266341D01*
X-221207Y-266377D01*
X-221229Y-266494D01*
X-221259Y-266609D01*
X-221263Y-266669D01*
X-221267Y-266689D01*
X-221265Y-266710D01*
X-221269Y-266770D01*
X-221269Y-268590D01*
X-221254Y-268708D01*
X-221247Y-268827D01*
X-221234Y-268865D01*
X-221229Y-268906D01*
X-221186Y-269016D01*
X-221149Y-269129D01*
X-221127Y-269164D01*
X-221112Y-269201D01*
X-221043Y-269297D01*
X-220979Y-269398D01*
X-220949Y-269426D01*
X-220926Y-269459D01*
X-220834Y-269535D01*
X-220747Y-269616D01*
X-220712Y-269636D01*
X-220681Y-269661D01*
X-220573Y-269712D01*
X-220469Y-269770D01*
X-220429Y-269780D01*
X-220393Y-269797D01*
X-220276Y-269819D01*
X-220161Y-269849D01*
X-220101Y-269853D01*
X-220081Y-269857D01*
X-220060Y-269855D01*
X-220000Y-269859D01*
X-208717Y-269859D01*
X-206959Y-271617D01*
X-206959Y-272130D01*
X-206944Y-272248D01*
X-206937Y-272367D01*
X-206924Y-272405D01*
X-206919Y-272446D01*
X-206876Y-272556D01*
X-206839Y-272669D01*
X-206817Y-272704D01*
X-206802Y-272741D01*
X-206733Y-272837D01*
X-206669Y-272938D01*
X-206639Y-272966D01*
X-206616Y-272999D01*
X-206524Y-273075D01*
X-206437Y-273156D01*
X-206402Y-273176D01*
X-206371Y-273201D01*
X-206263Y-273252D01*
X-206159Y-273310D01*
X-206119Y-273320D01*
X-206083Y-273337D01*
X-205966Y-273359D01*
X-205851Y-273389D01*
X-205791Y-273393D01*
X-205771Y-273397D01*
X-205750Y-273395D01*
X-205690Y-273399D01*
X-171069Y-273399D01*
X-170971Y-273387D01*
X-170871Y-273384D01*
X-170813Y-273367D01*
X-170753Y-273359D01*
X-170661Y-273323D01*
X-170566Y-273295D01*
X-170514Y-273265D01*
X-170457Y-273242D01*
X-170377Y-273184D01*
X-170292Y-273134D01*
X-170217Y-273068D01*
X-170200Y-273056D01*
X-170192Y-273046D01*
X-170171Y-273028D01*
X-169893Y-272749D01*
X-160107Y-272749D01*
X-158349Y-274507D01*
X-158349Y-279310D01*
X-158348Y-279319D01*
X-158349Y-279328D01*
X-158328Y-279477D01*
X-158309Y-279626D01*
X-158306Y-279634D01*
X-158305Y-279643D01*
X-158253Y-279796D01*
X-157999Y-280407D01*
X-157999Y-283193D01*
X-158253Y-283804D01*
X-158255Y-283813D01*
X-158260Y-283821D01*
X-158297Y-283968D01*
X-158337Y-284111D01*
X-158337Y-284120D01*
X-158339Y-284129D01*
X-158349Y-284290D01*
X-158349Y-289093D01*
X-160107Y-290851D01*
X-169893Y-290851D01*
X-171651Y-289093D01*
X-171651Y-288670D01*
X-171666Y-288552D01*
X-171673Y-288433D01*
X-171686Y-288395D01*
X-171691Y-288354D01*
X-171734Y-288244D01*
X-171771Y-288131D01*
X-171793Y-288096D01*
X-171808Y-288059D01*
X-171877Y-287963D01*
X-171941Y-287862D01*
X-171971Y-287834D01*
X-171994Y-287801D01*
X-172086Y-287725D01*
X-172173Y-287644D01*
X-172208Y-287624D01*
X-172239Y-287599D01*
X-172347Y-287548D01*
X-172451Y-287490D01*
X-172491Y-287480D01*
X-172527Y-287463D01*
X-172644Y-287441D01*
X-172759Y-287411D01*
X-172819Y-287407D01*
X-172839Y-287403D01*
X-172860Y-287405D01*
X-172920Y-287401D01*
X-186730Y-287401D01*
X-186848Y-287416D01*
X-186967Y-287423D01*
X-187005Y-287436D01*
X-187046Y-287441D01*
X-187156Y-287484D01*
X-187269Y-287521D01*
X-187304Y-287543D01*
X-187341Y-287558D01*
X-187437Y-287627D01*
X-187538Y-287691D01*
X-187566Y-287721D01*
X-187599Y-287744D01*
X-187675Y-287836D01*
X-187756Y-287923D01*
X-187776Y-287958D01*
X-187801Y-287989D01*
X-187852Y-288097D01*
X-187910Y-288201D01*
X-187920Y-288241D01*
X-187937Y-288277D01*
X-187959Y-288394D01*
X-187989Y-288509D01*
X-187993Y-288569D01*
X-187997Y-288589D01*
X-187995Y-288610D01*
X-187999Y-288670D01*
X-187999Y-320980D01*
X-187984Y-321098D01*
X-187977Y-321217D01*
X-187964Y-321255D01*
X-187959Y-321296D01*
X-187916Y-321406D01*
X-187879Y-321519D01*
X-187857Y-321554D01*
X-187842Y-321591D01*
X-187773Y-321687D01*
X-187709Y-321788D01*
X-187679Y-321816D01*
X-187656Y-321849D01*
X-187564Y-321925D01*
X-187477Y-322006D01*
X-187442Y-322026D01*
X-187411Y-322051D01*
X-187303Y-322102D01*
X-187199Y-322160D01*
X-187159Y-322170D01*
X-187123Y-322187D01*
X-187006Y-322209D01*
X-186891Y-322239D01*
X-186831Y-322243D01*
X-186811Y-322247D01*
X-186790Y-322245D01*
X-186730Y-322249D01*
X-186507Y-322249D01*
X-184749Y-324007D01*
X-184749Y-337993D01*
X-185859Y-339102D01*
X-185932Y-339197D01*
X-186011Y-339286D01*
X-186029Y-339322D01*
X-186054Y-339354D01*
X-186101Y-339463D01*
X-186155Y-339569D01*
X-186164Y-339608D01*
X-186180Y-339646D01*
X-186199Y-339763D01*
X-186225Y-339879D01*
X-186224Y-339920D01*
X-186230Y-339960D01*
X-186219Y-340078D01*
X-186215Y-340197D01*
X-186204Y-340236D01*
X-186200Y-340276D01*
X-186160Y-340389D01*
X-186127Y-340503D01*
X-186106Y-340537D01*
X-186093Y-340576D01*
X-186026Y-340674D01*
X-185965Y-340777D01*
X-185925Y-340822D01*
X-185914Y-340839D01*
X-185899Y-340852D01*
X-185859Y-340897D01*
X-184749Y-342007D01*
X-184749Y-343230D01*
X-184734Y-343348D01*
X-184727Y-343467D01*
X-184714Y-343505D01*
X-184709Y-343546D01*
X-184666Y-343656D01*
X-184629Y-343769D01*
X-184607Y-343804D01*
X-184592Y-343841D01*
X-184523Y-343937D01*
X-184459Y-344038D01*
X-184429Y-344066D01*
X-184406Y-344099D01*
X-184314Y-344175D01*
X-184227Y-344256D01*
X-184192Y-344276D01*
X-184161Y-344301D01*
X-184053Y-344352D01*
X-183949Y-344410D01*
X-183909Y-344420D01*
X-183873Y-344437D01*
X-183756Y-344459D01*
X-183641Y-344489D01*
X-183581Y-344493D01*
X-183561Y-344497D01*
X-183540Y-344495D01*
X-183480Y-344499D01*
X-171770Y-344499D01*
X-171652Y-344484D01*
X-171533Y-344477D01*
X-171495Y-344464D01*
X-171454Y-344459D01*
X-171344Y-344416D01*
X-171231Y-344379D01*
X-171196Y-344357D01*
X-171159Y-344342D01*
X-171063Y-344273D01*
X-170962Y-344209D01*
X-170934Y-344179D01*
X-170901Y-344156D01*
X-170825Y-344064D01*
X-170744Y-343977D01*
X-170724Y-343942D01*
X-170699Y-343911D01*
X-170648Y-343803D01*
X-170590Y-343699D01*
X-170580Y-343659D01*
X-170563Y-343623D01*
X-170541Y-343506D01*
X-170511Y-343391D01*
X-170507Y-343331D01*
X-170503Y-343311D01*
X-170505Y-343290D01*
X-170501Y-343230D01*
X-170501Y-317911D01*
X-168847Y-313920D01*
X-168845Y-313911D01*
X-168840Y-313903D01*
X-168803Y-313757D01*
X-168763Y-313613D01*
X-168763Y-313604D01*
X-168761Y-313595D01*
X-168751Y-313434D01*
X-168751Y-305257D01*
X-166993Y-303499D01*
X-153007Y-303499D01*
X-151249Y-305257D01*
X-151249Y-313434D01*
X-151248Y-313443D01*
X-151249Y-313452D01*
X-151228Y-313601D01*
X-151209Y-313749D01*
X-151206Y-313758D01*
X-151205Y-313767D01*
X-151153Y-313920D01*
X-149499Y-317911D01*
X-149499Y-357089D01*
X-151153Y-361080D01*
X-151155Y-361089D01*
X-151160Y-361097D01*
X-151197Y-361243D01*
X-151237Y-361387D01*
X-151237Y-361396D01*
X-151239Y-361405D01*
X-151249Y-361566D01*
X-151249Y-369743D01*
X-153007Y-371501D01*
X-166993Y-371501D01*
X-168751Y-369743D01*
X-168751Y-366770D01*
X-168766Y-366652D01*
X-168773Y-366533D01*
X-168786Y-366495D01*
X-168791Y-366454D01*
X-168834Y-366344D01*
X-168871Y-366231D01*
X-168893Y-366196D01*
X-168908Y-366159D01*
X-168977Y-366063D01*
X-169041Y-365962D01*
X-169071Y-365934D01*
X-169094Y-365901D01*
X-169186Y-365825D01*
X-169273Y-365744D01*
X-169308Y-365724D01*
X-169339Y-365699D01*
X-169447Y-365648D01*
X-169551Y-365590D01*
X-169591Y-365580D01*
X-169627Y-365563D01*
X-169744Y-365541D01*
X-169859Y-365511D01*
X-169919Y-365507D01*
X-169939Y-365503D01*
X-169960Y-365505D01*
X-170020Y-365501D01*
X-191089Y-365501D01*
X-194948Y-363902D01*
X-198978Y-359872D01*
X-199056Y-359812D01*
X-199128Y-359744D01*
X-199181Y-359715D01*
X-199229Y-359678D01*
X-199320Y-359638D01*
X-199407Y-359590D01*
X-199465Y-359575D01*
X-199521Y-359551D01*
X-199619Y-359536D01*
X-199715Y-359511D01*
X-199815Y-359505D01*
X-199835Y-359501D01*
X-199847Y-359503D01*
X-199875Y-359501D01*
X-217407Y-359501D01*
X-217518Y-359515D01*
X-217631Y-359521D01*
X-217676Y-359535D01*
X-217722Y-359541D01*
X-217827Y-359582D01*
X-217934Y-359615D01*
X-217974Y-359640D01*
X-218018Y-359658D01*
X-218109Y-359724D01*
X-218205Y-359783D01*
X-218237Y-359817D01*
X-218275Y-359844D01*
X-218347Y-359931D01*
X-218425Y-360012D01*
X-218448Y-360053D01*
X-218478Y-360089D01*
X-218526Y-360191D01*
X-218581Y-360289D01*
X-218605Y-360358D01*
X-218614Y-360377D01*
X-218617Y-360395D01*
X-218622Y-360408D01*
X-218623Y-360411D01*
X-218623Y-360413D01*
X-218633Y-360441D01*
X-219248Y-362738D01*
X-221099Y-365944D01*
X-221135Y-366029D01*
X-221180Y-366110D01*
X-221196Y-366175D01*
X-221222Y-366237D01*
X-221236Y-366328D01*
X-221259Y-366418D01*
X-221266Y-366535D01*
X-221269Y-366552D01*
X-221268Y-366560D01*
X-221269Y-366578D01*
X-221269Y-383650D01*
X-221254Y-383768D01*
X-221247Y-383887D01*
X-221234Y-383925D01*
X-221229Y-383966D01*
X-221186Y-384076D01*
X-221149Y-384189D01*
X-221127Y-384224D01*
X-221112Y-384261D01*
X-221042Y-384357D01*
X-220979Y-384458D01*
X-220949Y-384486D01*
X-220926Y-384519D01*
X-220834Y-384595D01*
X-220747Y-384676D01*
X-220712Y-384696D01*
X-220681Y-384721D01*
X-220573Y-384772D01*
X-220469Y-384830D01*
X-220429Y-384840D01*
X-220393Y-384857D01*
X-220276Y-384879D01*
X-220161Y-384909D01*
X-220100Y-384913D01*
X-220080Y-384917D01*
X-220060Y-384915D01*
X-220000Y-384919D01*
X2561Y-384919D01*
X2610Y-384913D01*
G37*
G36*
X135078Y-334305D02*
X135078Y-334305D01*
X135197Y-334301D01*
X135236Y-334290D01*
X135276Y-334286D01*
X135388Y-334246D01*
X135503Y-334213D01*
X135538Y-334192D01*
X135576Y-334178D01*
X135674Y-334111D01*
X135777Y-334051D01*
X135822Y-334011D01*
X135839Y-334000D01*
X135852Y-333984D01*
X135898Y-333945D01*
X136343Y-333499D01*
X137230Y-333499D01*
X137348Y-333484D01*
X137467Y-333477D01*
X137505Y-333464D01*
X137546Y-333459D01*
X137656Y-333416D01*
X137769Y-333379D01*
X137804Y-333357D01*
X137841Y-333342D01*
X137937Y-333273D01*
X138038Y-333209D01*
X138066Y-333179D01*
X138099Y-333156D01*
X138175Y-333064D01*
X138256Y-332977D01*
X138276Y-332942D01*
X138301Y-332911D01*
X138352Y-332803D01*
X138410Y-332699D01*
X138420Y-332659D01*
X138437Y-332623D01*
X138459Y-332506D01*
X138489Y-332391D01*
X138493Y-332331D01*
X138497Y-332311D01*
X138495Y-332290D01*
X138499Y-332230D01*
X138499Y-294382D01*
X139413Y-292177D01*
X166153Y-265437D01*
X166171Y-265414D01*
X166193Y-265395D01*
X166268Y-265289D01*
X166348Y-265186D01*
X166359Y-265159D01*
X166376Y-265135D01*
X166422Y-265013D01*
X166474Y-264894D01*
X166478Y-264865D01*
X166489Y-264837D01*
X166503Y-264708D01*
X166524Y-264580D01*
X166521Y-264550D01*
X166524Y-264521D01*
X166506Y-264393D01*
X166494Y-264263D01*
X166484Y-264235D01*
X166480Y-264206D01*
X166428Y-264054D01*
X165915Y-262817D01*
X165915Y-257183D01*
X168071Y-251979D01*
X172055Y-247995D01*
X177259Y-245839D01*
X182893Y-245839D01*
X188097Y-247995D01*
X191833Y-251730D01*
X191942Y-251815D01*
X192049Y-251904D01*
X192068Y-251913D01*
X192084Y-251925D01*
X192212Y-251981D01*
X192337Y-252040D01*
X192357Y-252043D01*
X192376Y-252052D01*
X192514Y-252073D01*
X192650Y-252099D01*
X192670Y-252098D01*
X192690Y-252101D01*
X192829Y-252088D01*
X192967Y-252080D01*
X192986Y-252073D01*
X193006Y-252072D01*
X193138Y-252024D01*
X193269Y-251982D01*
X193287Y-251971D01*
X193306Y-251964D01*
X193421Y-251886D01*
X193538Y-251811D01*
X193552Y-251797D01*
X193569Y-251785D01*
X193661Y-251681D01*
X193756Y-251580D01*
X193766Y-251562D01*
X193779Y-251547D01*
X193843Y-251423D01*
X193910Y-251301D01*
X193915Y-251282D01*
X193924Y-251264D01*
X193954Y-251128D01*
X193989Y-250993D01*
X193991Y-250965D01*
X193994Y-250953D01*
X193993Y-250933D01*
X193999Y-250833D01*
X193999Y-58011D01*
X193987Y-57913D01*
X193984Y-57814D01*
X193967Y-57756D01*
X193959Y-57696D01*
X193923Y-57604D01*
X193895Y-57509D01*
X193865Y-57456D01*
X193842Y-57400D01*
X193784Y-57320D01*
X193734Y-57235D01*
X193668Y-57159D01*
X193656Y-57143D01*
X193646Y-57135D01*
X193628Y-57114D01*
X179668Y-43154D01*
X179590Y-43094D01*
X179518Y-43026D01*
X179465Y-42997D01*
X179417Y-42960D01*
X179326Y-42920D01*
X179239Y-42872D01*
X179181Y-42857D01*
X179125Y-42833D01*
X179027Y-42818D01*
X178931Y-42793D01*
X178831Y-42787D01*
X178811Y-42783D01*
X178799Y-42785D01*
X178771Y-42783D01*
X178452Y-42783D01*
X175591Y-41598D01*
X173402Y-39409D01*
X172862Y-38106D01*
X172838Y-38063D01*
X172821Y-38016D01*
X172759Y-37925D01*
X172705Y-37829D01*
X172670Y-37794D01*
X172642Y-37753D01*
X172560Y-37680D01*
X172484Y-37601D01*
X172441Y-37575D01*
X172404Y-37542D01*
X172306Y-37492D01*
X172213Y-37435D01*
X172165Y-37420D01*
X172121Y-37398D01*
X172014Y-37374D01*
X171909Y-37341D01*
X171859Y-37339D01*
X171810Y-37328D01*
X171700Y-37331D01*
X171591Y-37326D01*
X171542Y-37336D01*
X171493Y-37338D01*
X171387Y-37368D01*
X171279Y-37390D01*
X171235Y-37412D01*
X171187Y-37426D01*
X171093Y-37482D01*
X170994Y-37530D01*
X170956Y-37562D01*
X170913Y-37588D01*
X170792Y-37694D01*
X145266Y-63221D01*
X143399Y-65087D01*
X141194Y-66001D01*
X85531Y-66001D01*
X85433Y-66013D01*
X85334Y-66016D01*
X85276Y-66033D01*
X85216Y-66041D01*
X85124Y-66077D01*
X85029Y-66105D01*
X84977Y-66135D01*
X84920Y-66158D01*
X84840Y-66216D01*
X84755Y-66266D01*
X84679Y-66332D01*
X84663Y-66344D01*
X84655Y-66354D01*
X84634Y-66372D01*
X84409Y-66598D01*
X81548Y-67783D01*
X78452Y-67783D01*
X75591Y-66598D01*
X73397Y-64404D01*
X73306Y-64333D01*
X73283Y-64311D01*
X73278Y-64308D01*
X73214Y-64252D01*
X73178Y-64234D01*
X73146Y-64209D01*
X73037Y-64162D01*
X72931Y-64108D01*
X72892Y-64099D01*
X72854Y-64083D01*
X72737Y-64064D01*
X72621Y-64038D01*
X72580Y-64039D01*
X72540Y-64033D01*
X72422Y-64044D01*
X72303Y-64048D01*
X72264Y-64059D01*
X72224Y-64063D01*
X72112Y-64103D01*
X71997Y-64136D01*
X71962Y-64156D01*
X71924Y-64170D01*
X71826Y-64237D01*
X71723Y-64298D01*
X71678Y-64337D01*
X71661Y-64349D01*
X71648Y-64364D01*
X71602Y-64404D01*
X69409Y-66598D01*
X66548Y-67783D01*
X63452Y-67783D01*
X60591Y-66598D01*
X60366Y-66372D01*
X60288Y-66312D01*
X60216Y-66244D01*
X60163Y-66215D01*
X60115Y-66178D01*
X60024Y-66138D01*
X59937Y-66090D01*
X59879Y-66075D01*
X59823Y-66051D01*
X59725Y-66036D01*
X59629Y-66011D01*
X59529Y-66005D01*
X59509Y-66001D01*
X59497Y-66003D01*
X59469Y-66001D01*
X52571Y-66001D01*
X52433Y-66018D01*
X52295Y-66031D01*
X52276Y-66038D01*
X52256Y-66041D01*
X52126Y-66092D01*
X51996Y-66139D01*
X51979Y-66150D01*
X51960Y-66158D01*
X51848Y-66239D01*
X51732Y-66318D01*
X51719Y-66333D01*
X51703Y-66344D01*
X51614Y-66452D01*
X51522Y-66556D01*
X51513Y-66574D01*
X51500Y-66589D01*
X51441Y-66715D01*
X51377Y-66839D01*
X51373Y-66859D01*
X51364Y-66877D01*
X51338Y-67013D01*
X51308Y-67150D01*
X51308Y-67170D01*
X51305Y-67189D01*
X51313Y-67328D01*
X51318Y-67467D01*
X51323Y-67487D01*
X51324Y-67507D01*
X51367Y-67639D01*
X51406Y-67773D01*
X51416Y-67790D01*
X51422Y-67809D01*
X51497Y-67927D01*
X51568Y-68047D01*
X51586Y-68068D01*
X51592Y-68077D01*
X52783Y-70952D01*
X52783Y-71271D01*
X52795Y-71369D01*
X52798Y-71468D01*
X52815Y-71526D01*
X52823Y-71586D01*
X52859Y-71678D01*
X52887Y-71773D01*
X52917Y-71826D01*
X52940Y-71882D01*
X52998Y-71962D01*
X53048Y-72047D01*
X53114Y-72123D01*
X53126Y-72139D01*
X53136Y-72147D01*
X53154Y-72168D01*
X54267Y-73280D01*
X54361Y-73353D01*
X54450Y-73432D01*
X54486Y-73451D01*
X54518Y-73475D01*
X54627Y-73523D01*
X54733Y-73577D01*
X54773Y-73586D01*
X54810Y-73602D01*
X54928Y-73620D01*
X55044Y-73646D01*
X55084Y-73645D01*
X55124Y-73652D01*
X55243Y-73640D01*
X55361Y-73637D01*
X55400Y-73625D01*
X55441Y-73622D01*
X55553Y-73581D01*
X55667Y-73548D01*
X55702Y-73528D01*
X55740Y-73514D01*
X55838Y-73447D01*
X55941Y-73387D01*
X55986Y-73347D01*
X56003Y-73336D01*
X56016Y-73320D01*
X56062Y-73280D01*
X58343Y-70999D01*
X171657Y-70999D01*
X174001Y-73343D01*
X174001Y-146657D01*
X171657Y-149001D01*
X167818Y-149001D01*
X167817Y-149001D01*
X62183Y-149001D01*
X58343Y-149001D01*
X57193Y-147851D01*
X55999Y-146657D01*
X55999Y-125551D01*
X55982Y-125413D01*
X55969Y-125275D01*
X55962Y-125256D01*
X55959Y-125236D01*
X55908Y-125106D01*
X55861Y-124976D01*
X55850Y-124959D01*
X55842Y-124940D01*
X55761Y-124828D01*
X55683Y-124713D01*
X55667Y-124699D01*
X55655Y-124683D01*
X55548Y-124594D01*
X55444Y-124502D01*
X55426Y-124493D01*
X55411Y-124480D01*
X55285Y-124421D01*
X55161Y-124357D01*
X55141Y-124353D01*
X55123Y-124344D01*
X54987Y-124318D01*
X54851Y-124288D01*
X54830Y-124288D01*
X54810Y-124285D01*
X54672Y-124293D01*
X54533Y-124298D01*
X54513Y-124303D01*
X54493Y-124304D01*
X54361Y-124347D01*
X54227Y-124386D01*
X54210Y-124396D01*
X54191Y-124402D01*
X54073Y-124477D01*
X53953Y-124547D01*
X53932Y-124566D01*
X53922Y-124573D01*
X53908Y-124587D01*
X53832Y-124654D01*
X53221Y-125265D01*
X53221Y-125266D01*
X-14734Y-193221D01*
X-16601Y-195087D01*
X-18806Y-196001D01*
X-94469Y-196001D01*
X-94567Y-196013D01*
X-94666Y-196016D01*
X-94724Y-196033D01*
X-94784Y-196041D01*
X-94876Y-196077D01*
X-94971Y-196105D01*
X-95023Y-196135D01*
X-95080Y-196158D01*
X-95160Y-196216D01*
X-95245Y-196266D01*
X-95321Y-196332D01*
X-95337Y-196344D01*
X-95345Y-196354D01*
X-95366Y-196372D01*
X-95591Y-196598D01*
X-97256Y-197287D01*
X-97317Y-197322D01*
X-97382Y-197348D01*
X-97454Y-197400D01*
X-97532Y-197445D01*
X-97582Y-197493D01*
X-97639Y-197534D01*
X-97696Y-197604D01*
X-97761Y-197666D01*
X-97797Y-197726D01*
X-97842Y-197779D01*
X-97880Y-197861D01*
X-97927Y-197937D01*
X-97948Y-198004D01*
X-97977Y-198067D01*
X-97994Y-198155D01*
X-98021Y-198241D01*
X-98024Y-198311D01*
X-98037Y-198380D01*
X-98031Y-198469D01*
X-98036Y-198559D01*
X-98022Y-198627D01*
X-98017Y-198697D01*
X-97990Y-198782D01*
X-97971Y-198870D01*
X-97941Y-198933D01*
X-97919Y-198999D01*
X-97871Y-199075D01*
X-97832Y-199156D01*
X-97786Y-199209D01*
X-97749Y-199268D01*
X-97684Y-199330D01*
X-97625Y-199398D01*
X-97568Y-199438D01*
X-97517Y-199486D01*
X-97439Y-199529D01*
X-97365Y-199581D01*
X-97300Y-199606D01*
X-97239Y-199640D01*
X-97152Y-199662D01*
X-97068Y-199694D01*
X-96998Y-199702D01*
X-96931Y-199719D01*
X-96770Y-199729D01*
X31048Y-199729D01*
X32986Y-200532D01*
X34468Y-202014D01*
X35271Y-203952D01*
X35271Y-218133D01*
X35283Y-218231D01*
X35286Y-218330D01*
X35303Y-218388D01*
X35310Y-218441D01*
X35310Y-219730D01*
X35325Y-219848D01*
X35332Y-219967D01*
X35345Y-220005D01*
X35350Y-220046D01*
X35393Y-220156D01*
X35430Y-220269D01*
X35452Y-220304D01*
X35467Y-220341D01*
X35536Y-220437D01*
X35600Y-220538D01*
X35630Y-220566D01*
X35653Y-220599D01*
X35745Y-220675D01*
X35832Y-220756D01*
X35867Y-220776D01*
X35898Y-220801D01*
X36006Y-220852D01*
X36110Y-220910D01*
X36150Y-220920D01*
X36186Y-220937D01*
X36303Y-220959D01*
X36418Y-220989D01*
X36478Y-220993D01*
X36498Y-220997D01*
X36519Y-220995D01*
X36579Y-220999D01*
X51790Y-220999D01*
X55098Y-222370D01*
X78196Y-245468D01*
X78275Y-245528D01*
X78347Y-245596D01*
X78400Y-245625D01*
X78448Y-245662D01*
X78539Y-245702D01*
X78625Y-245750D01*
X78684Y-245765D01*
X78740Y-245789D01*
X78838Y-245804D01*
X78933Y-245829D01*
X79033Y-245835D01*
X79054Y-245839D01*
X79066Y-245837D01*
X79094Y-245839D01*
X82817Y-245839D01*
X88021Y-247995D01*
X92005Y-251979D01*
X94161Y-257183D01*
X94161Y-262817D01*
X92005Y-268021D01*
X88021Y-272005D01*
X82817Y-274161D01*
X77183Y-274161D01*
X71979Y-272005D01*
X67995Y-268021D01*
X65839Y-262817D01*
X65839Y-259094D01*
X65827Y-258996D01*
X65824Y-258897D01*
X65807Y-258839D01*
X65799Y-258778D01*
X65763Y-258686D01*
X65735Y-258591D01*
X65705Y-258539D01*
X65682Y-258483D01*
X65624Y-258403D01*
X65574Y-258317D01*
X65508Y-258242D01*
X65496Y-258225D01*
X65486Y-258218D01*
X65468Y-258196D01*
X46644Y-239372D01*
X46565Y-239312D01*
X46493Y-239244D01*
X46440Y-239215D01*
X46392Y-239178D01*
X46301Y-239138D01*
X46215Y-239090D01*
X46156Y-239075D01*
X46100Y-239051D01*
X46002Y-239036D01*
X45907Y-239011D01*
X45807Y-239005D01*
X45786Y-239001D01*
X45774Y-239003D01*
X45746Y-239001D01*
X36579Y-239001D01*
X36461Y-239016D01*
X36342Y-239023D01*
X36304Y-239036D01*
X36263Y-239041D01*
X36153Y-239084D01*
X36040Y-239121D01*
X36005Y-239143D01*
X35968Y-239158D01*
X35872Y-239227D01*
X35771Y-239291D01*
X35743Y-239321D01*
X35710Y-239344D01*
X35634Y-239436D01*
X35553Y-239523D01*
X35533Y-239558D01*
X35508Y-239589D01*
X35457Y-239697D01*
X35399Y-239801D01*
X35389Y-239841D01*
X35372Y-239877D01*
X35350Y-239994D01*
X35320Y-240109D01*
X35316Y-240169D01*
X35312Y-240189D01*
X35314Y-240210D01*
X35310Y-240270D01*
X35310Y-241585D01*
X35306Y-241611D01*
X35281Y-241707D01*
X35275Y-241807D01*
X35271Y-241827D01*
X35273Y-241839D01*
X35271Y-241867D01*
X35271Y-268133D01*
X35283Y-268231D01*
X35286Y-268330D01*
X35303Y-268388D01*
X35310Y-268441D01*
X35310Y-291585D01*
X35306Y-291611D01*
X35281Y-291707D01*
X35275Y-291807D01*
X35271Y-291827D01*
X35273Y-291839D01*
X35271Y-291867D01*
X35271Y-322730D01*
X35286Y-322848D01*
X35293Y-322967D01*
X35306Y-323005D01*
X35311Y-323046D01*
X35354Y-323156D01*
X35391Y-323269D01*
X35413Y-323304D01*
X35428Y-323341D01*
X35497Y-323437D01*
X35561Y-323538D01*
X35591Y-323566D01*
X35614Y-323599D01*
X35706Y-323675D01*
X35793Y-323756D01*
X35828Y-323776D01*
X35859Y-323801D01*
X35967Y-323852D01*
X36071Y-323910D01*
X36111Y-323920D01*
X36147Y-323937D01*
X36264Y-323959D01*
X36379Y-323989D01*
X36439Y-323993D01*
X36459Y-323997D01*
X36480Y-323995D01*
X36540Y-323999D01*
X111694Y-323999D01*
X113899Y-324913D01*
X122114Y-333128D01*
X122192Y-333188D01*
X122264Y-333256D01*
X122317Y-333285D01*
X122365Y-333322D01*
X122456Y-333362D01*
X122543Y-333410D01*
X122601Y-333425D01*
X122657Y-333449D01*
X122755Y-333464D01*
X122851Y-333489D01*
X122951Y-333495D01*
X122971Y-333499D01*
X122983Y-333497D01*
X123011Y-333499D01*
X133657Y-333499D01*
X134103Y-333945D01*
X134197Y-334018D01*
X134286Y-334096D01*
X134322Y-334115D01*
X134354Y-334140D01*
X134463Y-334187D01*
X134569Y-334241D01*
X134608Y-334250D01*
X134646Y-334266D01*
X134763Y-334285D01*
X134879Y-334311D01*
X134920Y-334309D01*
X134960Y-334316D01*
X135078Y-334305D01*
G37*
G36*
X-222022Y26852D02*
X-222022Y26852D01*
X-221903Y26856D01*
X-221864Y26867D01*
X-221824Y26871D01*
X-221711Y26911D01*
X-221597Y26944D01*
X-221562Y26965D01*
X-221524Y26978D01*
X-221426Y27045D01*
X-221323Y27106D01*
X-221278Y27146D01*
X-221261Y27157D01*
X-221248Y27172D01*
X-221202Y27212D01*
X-212632Y35783D01*
X-209691Y37001D01*
X-176183Y37001D01*
X-176085Y37013D01*
X-175986Y37016D01*
X-175927Y37033D01*
X-175867Y37041D01*
X-175775Y37077D01*
X-175680Y37105D01*
X-175628Y37135D01*
X-175572Y37158D01*
X-175492Y37216D01*
X-175406Y37266D01*
X-175331Y37332D01*
X-175314Y37344D01*
X-175307Y37354D01*
X-175285Y37372D01*
X-173814Y38844D01*
X-173731Y38871D01*
X-173696Y38893D01*
X-173659Y38908D01*
X-173563Y38977D01*
X-173462Y39041D01*
X-173434Y39071D01*
X-173401Y39094D01*
X-173325Y39186D01*
X-173244Y39273D01*
X-173224Y39308D01*
X-173199Y39339D01*
X-173148Y39447D01*
X-173090Y39551D01*
X-173080Y39591D01*
X-173063Y39627D01*
X-173041Y39744D01*
X-173011Y39859D01*
X-173007Y39919D01*
X-173003Y39939D01*
X-173005Y39960D01*
X-173001Y40020D01*
X-173001Y44091D01*
X-171783Y47032D01*
X-157795Y61020D01*
X-157710Y61129D01*
X-157621Y61236D01*
X-157613Y61255D01*
X-157600Y61271D01*
X-157545Y61399D01*
X-157486Y61524D01*
X-157482Y61544D01*
X-157474Y61563D01*
X-157452Y61701D01*
X-157426Y61837D01*
X-157427Y61857D01*
X-157424Y61877D01*
X-157437Y62016D01*
X-157446Y62154D01*
X-157452Y62173D01*
X-157454Y62193D01*
X-157501Y62325D01*
X-157544Y62456D01*
X-157555Y62474D01*
X-157561Y62493D01*
X-157640Y62608D01*
X-157714Y62725D01*
X-157729Y62739D01*
X-157740Y62756D01*
X-157844Y62848D01*
X-157946Y62943D01*
X-157963Y62953D01*
X-157978Y62966D01*
X-158102Y63029D01*
X-158224Y63097D01*
X-158244Y63102D01*
X-158262Y63111D01*
X-158398Y63141D01*
X-158532Y63176D01*
X-158560Y63178D01*
X-158572Y63181D01*
X-158592Y63180D01*
X-158693Y63186D01*
X-175924Y63186D01*
X-178342Y65604D01*
X-178342Y157024D01*
X-175924Y159442D01*
X-147504Y159442D01*
X-145086Y157024D01*
X-145086Y76793D01*
X-145069Y76655D01*
X-145068Y76643D01*
X-145064Y76582D01*
X-145061Y76573D01*
X-145056Y76516D01*
X-145049Y76497D01*
X-145046Y76477D01*
X-144995Y76348D01*
X-144948Y76217D01*
X-144937Y76200D01*
X-144929Y76181D01*
X-144848Y76069D01*
X-144770Y75954D01*
X-144754Y75940D01*
X-144743Y75924D01*
X-144635Y75835D01*
X-144531Y75743D01*
X-144513Y75734D01*
X-144498Y75721D01*
X-144372Y75662D01*
X-144248Y75599D01*
X-144228Y75594D01*
X-144210Y75586D01*
X-144073Y75560D01*
X-143938Y75529D01*
X-143917Y75530D01*
X-143898Y75526D01*
X-143759Y75535D01*
X-143620Y75539D01*
X-143600Y75544D01*
X-143580Y75546D01*
X-143448Y75588D01*
X-143314Y75627D01*
X-143297Y75638D01*
X-143278Y75644D01*
X-143160Y75718D01*
X-143040Y75789D01*
X-143019Y75807D01*
X-143009Y75814D01*
X-142995Y75829D01*
X-142920Y75895D01*
X-141642Y77172D01*
X-141582Y77250D01*
X-141514Y77323D01*
X-141485Y77376D01*
X-141448Y77424D01*
X-141408Y77514D01*
X-141360Y77601D01*
X-141345Y77660D01*
X-141321Y77715D01*
X-141306Y77813D01*
X-141281Y77909D01*
X-141275Y77997D01*
X-141273Y78008D01*
X-141274Y78015D01*
X-141271Y78029D01*
X-141273Y78042D01*
X-141271Y78070D01*
X-141271Y207730D01*
X-141286Y207848D01*
X-141293Y207967D01*
X-141306Y208005D01*
X-141311Y208046D01*
X-141354Y208156D01*
X-141391Y208269D01*
X-141413Y208304D01*
X-141428Y208341D01*
X-141497Y208437D01*
X-141561Y208538D01*
X-141591Y208566D01*
X-141614Y208599D01*
X-141706Y208675D01*
X-141793Y208756D01*
X-141828Y208776D01*
X-141859Y208801D01*
X-141967Y208852D01*
X-142071Y208910D01*
X-142111Y208920D01*
X-142147Y208937D01*
X-142264Y208959D01*
X-142379Y208989D01*
X-142439Y208993D01*
X-142459Y208997D01*
X-142480Y208995D01*
X-142540Y208999D01*
X-181989Y208999D01*
X-182087Y208987D01*
X-182186Y208984D01*
X-182244Y208967D01*
X-182304Y208959D01*
X-182396Y208923D01*
X-182491Y208895D01*
X-182544Y208865D01*
X-182600Y208842D01*
X-182680Y208784D01*
X-182765Y208734D01*
X-182841Y208668D01*
X-182857Y208656D01*
X-182865Y208646D01*
X-182886Y208628D01*
X-213628Y177886D01*
X-213688Y177808D01*
X-213756Y177736D01*
X-213785Y177683D01*
X-213822Y177635D01*
X-213862Y177544D01*
X-213910Y177457D01*
X-213925Y177399D01*
X-213949Y177343D01*
X-213964Y177245D01*
X-213989Y177149D01*
X-213995Y177049D01*
X-213999Y177029D01*
X-213997Y177017D01*
X-213999Y176989D01*
X-213999Y163131D01*
X-213987Y163033D01*
X-213984Y162934D01*
X-213974Y162901D01*
X-213974Y162891D01*
X-213966Y162867D01*
X-213959Y162816D01*
X-213923Y162724D01*
X-213895Y162628D01*
X-213880Y162602D01*
X-213876Y162588D01*
X-213859Y162563D01*
X-213842Y162520D01*
X-213784Y162440D01*
X-213734Y162355D01*
X-213711Y162328D01*
X-213705Y162320D01*
X-213693Y162308D01*
X-213668Y162279D01*
X-213656Y162263D01*
X-213646Y162255D01*
X-213628Y162234D01*
X-205576Y154183D01*
X-205498Y154122D01*
X-205426Y154054D01*
X-205373Y154025D01*
X-205325Y153988D01*
X-205234Y153948D01*
X-205147Y153900D01*
X-205089Y153885D01*
X-205033Y153861D01*
X-204935Y153846D01*
X-204840Y153821D01*
X-204740Y153815D01*
X-204719Y153811D01*
X-204707Y153813D01*
X-204679Y153811D01*
X-187078Y153811D01*
X-184734Y151467D01*
X-184734Y120721D01*
X-187078Y118377D01*
X-204870Y118377D01*
X-207214Y120721D01*
X-207214Y138322D01*
X-207226Y138420D01*
X-207229Y138519D01*
X-207246Y138577D01*
X-207254Y138637D01*
X-207290Y138729D01*
X-207318Y138824D01*
X-207349Y138877D01*
X-207371Y138933D01*
X-207429Y139013D01*
X-207479Y139098D01*
X-207546Y139174D01*
X-207558Y139190D01*
X-207567Y139198D01*
X-207586Y139219D01*
X-225087Y156721D01*
X-226001Y158926D01*
X-226001Y181194D01*
X-225087Y183399D01*
X-188399Y220087D01*
X-186194Y221001D01*
X-142540Y221001D01*
X-142422Y221016D01*
X-142303Y221023D01*
X-142265Y221036D01*
X-142224Y221041D01*
X-142114Y221084D01*
X-142001Y221121D01*
X-141966Y221143D01*
X-141929Y221158D01*
X-141833Y221227D01*
X-141732Y221291D01*
X-141704Y221321D01*
X-141671Y221344D01*
X-141595Y221436D01*
X-141514Y221523D01*
X-141494Y221558D01*
X-141469Y221589D01*
X-141418Y221697D01*
X-141360Y221801D01*
X-141350Y221841D01*
X-141333Y221877D01*
X-141311Y221994D01*
X-141281Y222109D01*
X-141277Y222169D01*
X-141273Y222189D01*
X-141275Y222210D01*
X-141271Y222270D01*
X-141271Y244231D01*
X-138032Y252049D01*
X-132049Y258032D01*
X-124231Y261271D01*
X-115468Y261271D01*
X-115350Y261286D01*
X-115231Y261293D01*
X-115193Y261306D01*
X-115152Y261311D01*
X-115042Y261354D01*
X-114929Y261391D01*
X-114894Y261413D01*
X-114857Y261428D01*
X-114761Y261497D01*
X-114660Y261561D01*
X-114632Y261591D01*
X-114599Y261614D01*
X-114523Y261706D01*
X-114442Y261793D01*
X-114422Y261828D01*
X-114397Y261859D01*
X-114346Y261967D01*
X-114288Y262071D01*
X-114278Y262111D01*
X-114261Y262147D01*
X-114239Y262264D01*
X-114209Y262379D01*
X-114205Y262439D01*
X-114201Y262459D01*
X-114203Y262480D01*
X-114199Y262540D01*
X-114199Y267817D01*
X-112043Y273021D01*
X-108059Y277005D01*
X-102855Y279161D01*
X-97221Y279161D01*
X-95254Y278346D01*
X-95226Y278338D01*
X-95199Y278325D01*
X-95072Y278296D01*
X-94947Y278262D01*
X-94918Y278262D01*
X-94889Y278255D01*
X-94759Y278259D01*
X-94629Y278257D01*
X-94601Y278264D01*
X-94571Y278265D01*
X-94447Y278301D01*
X-94320Y278331D01*
X-94294Y278345D01*
X-94266Y278353D01*
X-94154Y278419D01*
X-94039Y278480D01*
X-94017Y278500D01*
X-93992Y278515D01*
X-93871Y278621D01*
X-69929Y302563D01*
X-69844Y302672D01*
X-69756Y302779D01*
X-69747Y302798D01*
X-69734Y302814D01*
X-69679Y302942D01*
X-69620Y303067D01*
X-69616Y303087D01*
X-69608Y303106D01*
X-69586Y303244D01*
X-69560Y303380D01*
X-69561Y303400D01*
X-69558Y303420D01*
X-69571Y303559D01*
X-69580Y303697D01*
X-69586Y303716D01*
X-69588Y303736D01*
X-69635Y303868D01*
X-69678Y303999D01*
X-69689Y304017D01*
X-69696Y304036D01*
X-69774Y304151D01*
X-69848Y304268D01*
X-69863Y304282D01*
X-69874Y304299D01*
X-69978Y304391D01*
X-70080Y304486D01*
X-70098Y304496D01*
X-70113Y304509D01*
X-70236Y304572D01*
X-70358Y304640D01*
X-70378Y304645D01*
X-70396Y304654D01*
X-70532Y304684D01*
X-70666Y304719D01*
X-70694Y304721D01*
X-70706Y304724D01*
X-70727Y304723D01*
X-70827Y304729D01*
X-102367Y304729D01*
X-102465Y304717D01*
X-102564Y304714D01*
X-102622Y304697D01*
X-102683Y304689D01*
X-102775Y304653D01*
X-102870Y304625D01*
X-102922Y304595D01*
X-102978Y304572D01*
X-103058Y304514D01*
X-103144Y304464D01*
X-103219Y304398D01*
X-103236Y304386D01*
X-103243Y304376D01*
X-103265Y304358D01*
X-136455Y271167D01*
X-136473Y271144D01*
X-136496Y271125D01*
X-136570Y271019D01*
X-136650Y270916D01*
X-136662Y270889D01*
X-136679Y270865D01*
X-136725Y270743D01*
X-136776Y270624D01*
X-136781Y270595D01*
X-136791Y270567D01*
X-136806Y270438D01*
X-136826Y270310D01*
X-136823Y270280D01*
X-136827Y270251D01*
X-136808Y270123D01*
X-136796Y269993D01*
X-136786Y269965D01*
X-136782Y269936D01*
X-136730Y269784D01*
X-135915Y267817D01*
X-135915Y262183D01*
X-138071Y256979D01*
X-142055Y252995D01*
X-147259Y250839D01*
X-152893Y250839D01*
X-158097Y252995D01*
X-162081Y256979D01*
X-164173Y262030D01*
X-164198Y262073D01*
X-164215Y262120D01*
X-164276Y262211D01*
X-164331Y262306D01*
X-164365Y262342D01*
X-164393Y262383D01*
X-164476Y262456D01*
X-164552Y262535D01*
X-164594Y262561D01*
X-164632Y262594D01*
X-164730Y262644D01*
X-164823Y262701D01*
X-164871Y262716D01*
X-164915Y262738D01*
X-165022Y262762D01*
X-165127Y262795D01*
X-165177Y262797D01*
X-165225Y262808D01*
X-165335Y262805D01*
X-165445Y262810D01*
X-165493Y262800D01*
X-165543Y262798D01*
X-165649Y262768D01*
X-165756Y262745D01*
X-165801Y262724D01*
X-165849Y262710D01*
X-165943Y262654D01*
X-166042Y262606D01*
X-166080Y262574D01*
X-166123Y262548D01*
X-166243Y262442D01*
X-231628Y197058D01*
X-231688Y196980D01*
X-231756Y196907D01*
X-231785Y196854D01*
X-231822Y196807D01*
X-231862Y196716D01*
X-231910Y196629D01*
X-231925Y196570D01*
X-231949Y196515D01*
X-231964Y196417D01*
X-231989Y196321D01*
X-231995Y196221D01*
X-231999Y196201D01*
X-231997Y196188D01*
X-231999Y196160D01*
X-231999Y36740D01*
X-231987Y36642D01*
X-231984Y36543D01*
X-231967Y36484D01*
X-231959Y36424D01*
X-231923Y36332D01*
X-231895Y36237D01*
X-231865Y36185D01*
X-231842Y36129D01*
X-231784Y36048D01*
X-231734Y35963D01*
X-231668Y35888D01*
X-231656Y35871D01*
X-231646Y35863D01*
X-231628Y35842D01*
X-222997Y27212D01*
X-222903Y27139D01*
X-222814Y27060D01*
X-222778Y27042D01*
X-222746Y27017D01*
X-222637Y26970D01*
X-222531Y26916D01*
X-222492Y26907D01*
X-222454Y26891D01*
X-222337Y26872D01*
X-222221Y26846D01*
X-222180Y26847D01*
X-222140Y26841D01*
X-222022Y26852D01*
G37*
G36*
X-241380Y-384990D02*
X-241380Y-384990D01*
X-241242Y-384966D01*
X-241104Y-384947D01*
X-241078Y-384938D01*
X-241066Y-384936D01*
X-241048Y-384928D01*
X-241023Y-384919D01*
X-240352Y-384919D01*
X-240337Y-384917D01*
X-240212Y-384912D01*
X-239557Y-384839D01*
X-239452Y-384869D01*
X-239354Y-384884D01*
X-239259Y-384909D01*
X-239158Y-384916D01*
X-239138Y-384919D01*
X-239126Y-384918D01*
X-239098Y-384919D01*
X-226540Y-384919D01*
X-226422Y-384904D01*
X-226303Y-384897D01*
X-226265Y-384884D01*
X-226224Y-384879D01*
X-226114Y-384836D01*
X-226001Y-384799D01*
X-225966Y-384777D01*
X-225929Y-384762D01*
X-225833Y-384693D01*
X-225732Y-384629D01*
X-225704Y-384599D01*
X-225671Y-384576D01*
X-225595Y-384484D01*
X-225514Y-384397D01*
X-225494Y-384362D01*
X-225469Y-384331D01*
X-225418Y-384223D01*
X-225360Y-384119D01*
X-225350Y-384079D01*
X-225333Y-384043D01*
X-225311Y-383926D01*
X-225281Y-383811D01*
X-225277Y-383751D01*
X-225273Y-383731D01*
X-225275Y-383710D01*
X-225271Y-383650D01*
X-225271Y-293210D01*
X-225286Y-293092D01*
X-225293Y-292973D01*
X-225306Y-292935D01*
X-225311Y-292894D01*
X-225354Y-292784D01*
X-225391Y-292671D01*
X-225413Y-292636D01*
X-225428Y-292599D01*
X-225497Y-292503D01*
X-225561Y-292402D01*
X-225591Y-292374D01*
X-225614Y-292341D01*
X-225706Y-292265D01*
X-225793Y-292184D01*
X-225828Y-292164D01*
X-225859Y-292139D01*
X-225967Y-292088D01*
X-226071Y-292030D01*
X-226111Y-292020D01*
X-226147Y-292003D01*
X-226264Y-291981D01*
X-226379Y-291951D01*
X-226439Y-291947D01*
X-226459Y-291943D01*
X-226480Y-291945D01*
X-226540Y-291941D01*
X-226697Y-291941D01*
X-229041Y-289597D01*
X-229041Y-271203D01*
X-226697Y-268859D01*
X-226540Y-268859D01*
X-226422Y-268844D01*
X-226303Y-268837D01*
X-226265Y-268824D01*
X-226224Y-268819D01*
X-226114Y-268776D01*
X-226001Y-268739D01*
X-225966Y-268717D01*
X-225929Y-268702D01*
X-225833Y-268633D01*
X-225732Y-268569D01*
X-225704Y-268539D01*
X-225671Y-268516D01*
X-225595Y-268424D01*
X-225514Y-268337D01*
X-225494Y-268302D01*
X-225469Y-268271D01*
X-225418Y-268163D01*
X-225360Y-268059D01*
X-225350Y-268019D01*
X-225333Y-267983D01*
X-225311Y-267866D01*
X-225281Y-267751D01*
X-225277Y-267691D01*
X-225273Y-267671D01*
X-225275Y-267650D01*
X-225271Y-267590D01*
X-225271Y-238676D01*
X-225283Y-238578D01*
X-225286Y-238479D01*
X-225303Y-238421D01*
X-225311Y-238361D01*
X-225347Y-238268D01*
X-225375Y-238173D01*
X-225405Y-238121D01*
X-225428Y-238065D01*
X-225486Y-237985D01*
X-225536Y-237899D01*
X-225602Y-237824D01*
X-225614Y-237808D01*
X-225624Y-237800D01*
X-225642Y-237779D01*
X-226449Y-236972D01*
X-226527Y-236912D01*
X-226599Y-236844D01*
X-226652Y-236815D01*
X-226700Y-236778D01*
X-226791Y-236738D01*
X-226877Y-236690D01*
X-226936Y-236675D01*
X-226992Y-236651D01*
X-227090Y-236636D01*
X-227185Y-236611D01*
X-227285Y-236605D01*
X-227306Y-236601D01*
X-227318Y-236603D01*
X-227346Y-236601D01*
X-271537Y-236601D01*
X-274110Y-235535D01*
X-282753Y-226893D01*
X-282835Y-226829D01*
X-282892Y-226775D01*
X-282920Y-226759D01*
X-282969Y-226719D01*
X-282988Y-226710D01*
X-283004Y-226698D01*
X-283132Y-226642D01*
X-283139Y-226639D01*
X-283170Y-226622D01*
X-283182Y-226619D01*
X-283257Y-226583D01*
X-283277Y-226579D01*
X-283296Y-226571D01*
X-283434Y-226549D01*
X-283570Y-226523D01*
X-283590Y-226525D01*
X-283610Y-226522D01*
X-283749Y-226535D01*
X-283887Y-226543D01*
X-283906Y-226549D01*
X-283926Y-226551D01*
X-284058Y-226599D01*
X-284189Y-226641D01*
X-284207Y-226652D01*
X-284226Y-226659D01*
X-284341Y-226737D01*
X-284458Y-226811D01*
X-284472Y-226826D01*
X-284489Y-226838D01*
X-284581Y-226942D01*
X-284676Y-227043D01*
X-284686Y-227061D01*
X-284699Y-227076D01*
X-284763Y-227200D01*
X-284830Y-227322D01*
X-284835Y-227341D01*
X-284844Y-227359D01*
X-284853Y-227400D01*
X-284857Y-227408D01*
X-284869Y-227470D01*
X-284874Y-227495D01*
X-284909Y-227629D01*
X-284911Y-227658D01*
X-284914Y-227670D01*
X-284913Y-227690D01*
X-284914Y-227706D01*
X-284917Y-227721D01*
X-284916Y-227735D01*
X-284919Y-227790D01*
X-284919Y-349517D01*
X-284915Y-349548D01*
X-284918Y-349579D01*
X-284900Y-349739D01*
X-284046Y-354534D01*
X-284033Y-354577D01*
X-284028Y-354620D01*
X-283979Y-354774D01*
X-280281Y-364239D01*
X-280240Y-364314D01*
X-280208Y-364394D01*
X-280134Y-364509D01*
X-280129Y-364518D01*
X-280126Y-364522D01*
X-280121Y-364529D01*
X-274099Y-372715D01*
X-274040Y-372777D01*
X-273989Y-372845D01*
X-273888Y-372938D01*
X-273880Y-372945D01*
X-273877Y-372948D01*
X-273870Y-372954D01*
X-265935Y-379302D01*
X-265862Y-379347D01*
X-265794Y-379400D01*
X-265673Y-379462D01*
X-265663Y-379468D01*
X-265659Y-379469D01*
X-265651Y-379473D01*
X-256343Y-383551D01*
X-256261Y-383576D01*
X-256182Y-383609D01*
X-256049Y-383639D01*
X-256038Y-383642D01*
X-256034Y-383642D01*
X-256025Y-383644D01*
X-245979Y-385174D01*
X-245935Y-385175D01*
X-245892Y-385184D01*
X-245731Y-385187D01*
X-241380Y-384990D01*
G37*
G36*
X170005Y-145001D02*
X170005Y-145001D01*
X170005Y-145000D01*
X170005Y-75000D01*
X170001Y-74995D01*
X170000Y-74995D01*
X60000Y-74995D01*
X59995Y-74999D01*
X59995Y-75000D01*
X59995Y-145000D01*
X59999Y-145005D01*
X60000Y-145005D01*
X170000Y-145005D01*
X170005Y-145001D01*
G37*
G36*
X-12553Y261272D02*
X-12553Y261272D01*
X-12544Y261271D01*
X-12395Y261292D01*
X-12247Y261311D01*
X-12238Y261314D01*
X-12229Y261315D01*
X-12076Y261367D01*
X-9944Y262251D01*
X44944Y262251D01*
X47076Y261367D01*
X47085Y261365D01*
X47093Y261360D01*
X47239Y261323D01*
X47383Y261283D01*
X47392Y261283D01*
X47401Y261281D01*
X47562Y261271D01*
X56254Y261271D01*
X56284Y261274D01*
X56313Y261272D01*
X56441Y261294D01*
X56570Y261311D01*
X56597Y261321D01*
X56626Y261326D01*
X56745Y261380D01*
X56866Y261428D01*
X56889Y261445D01*
X56916Y261457D01*
X57018Y261538D01*
X57123Y261614D01*
X57142Y261637D01*
X57165Y261656D01*
X57243Y261759D01*
X57326Y261859D01*
X57338Y261886D01*
X57356Y261910D01*
X57427Y262054D01*
X58402Y264409D01*
X60591Y266598D01*
X63597Y267843D01*
X63640Y267868D01*
X63687Y267884D01*
X63778Y267946D01*
X63874Y268000D01*
X63909Y268035D01*
X63950Y268063D01*
X64023Y268145D01*
X64102Y268222D01*
X64128Y268264D01*
X64161Y268301D01*
X64211Y268399D01*
X64268Y268493D01*
X64283Y268540D01*
X64305Y268585D01*
X64329Y268692D01*
X64362Y268797D01*
X64364Y268846D01*
X64375Y268895D01*
X64372Y269005D01*
X64377Y269114D01*
X64367Y269163D01*
X64365Y269213D01*
X64335Y269318D01*
X64313Y269426D01*
X64291Y269471D01*
X64277Y269518D01*
X64221Y269613D01*
X64173Y269712D01*
X64141Y269750D01*
X64115Y269792D01*
X64009Y269913D01*
X62797Y271125D01*
X62704Y271197D01*
X62614Y271276D01*
X62578Y271295D01*
X62546Y271320D01*
X62437Y271367D01*
X62331Y271421D01*
X62291Y271430D01*
X62254Y271446D01*
X62137Y271465D01*
X62021Y271491D01*
X61980Y271489D01*
X61940Y271496D01*
X61822Y271485D01*
X61703Y271481D01*
X61664Y271470D01*
X61624Y271466D01*
X61512Y271426D01*
X61397Y271393D01*
X61362Y271372D01*
X61324Y271358D01*
X61226Y271291D01*
X61123Y271231D01*
X61078Y271191D01*
X61061Y271180D01*
X61048Y271164D01*
X61002Y271125D01*
X60001Y270123D01*
X51099Y270123D01*
X48755Y272467D01*
X48755Y292418D01*
X48900Y292562D01*
X48984Y292672D01*
X49074Y292779D01*
X49082Y292798D01*
X49095Y292814D01*
X49150Y292942D01*
X49209Y293067D01*
X49213Y293087D01*
X49221Y293106D01*
X49243Y293244D01*
X49269Y293380D01*
X49268Y293400D01*
X49271Y293420D01*
X49258Y293559D01*
X49249Y293697D01*
X49243Y293716D01*
X49241Y293736D01*
X49194Y293867D01*
X49151Y293999D01*
X49140Y294017D01*
X49133Y294036D01*
X49055Y294150D01*
X48981Y294268D01*
X48966Y294282D01*
X48955Y294299D01*
X48851Y294391D01*
X48749Y294486D01*
X48731Y294496D01*
X48716Y294509D01*
X48593Y294572D01*
X48471Y294640D01*
X48451Y294645D01*
X48433Y294654D01*
X48297Y294684D01*
X48163Y294719D01*
X48135Y294721D01*
X48123Y294724D01*
X48102Y294723D01*
X48002Y294729D01*
X-62329Y294729D01*
X-62427Y294717D01*
X-62526Y294714D01*
X-62584Y294697D01*
X-62645Y294689D01*
X-62737Y294653D01*
X-62832Y294625D01*
X-62884Y294595D01*
X-62940Y294572D01*
X-63020Y294514D01*
X-63106Y294464D01*
X-63181Y294398D01*
X-63198Y294386D01*
X-63205Y294376D01*
X-63227Y294358D01*
X-86417Y271167D01*
X-86435Y271144D01*
X-86458Y271125D01*
X-86532Y271019D01*
X-86612Y270916D01*
X-86624Y270889D01*
X-86641Y270865D01*
X-86687Y270743D01*
X-86738Y270624D01*
X-86743Y270595D01*
X-86753Y270567D01*
X-86768Y270438D01*
X-86788Y270310D01*
X-86785Y270280D01*
X-86789Y270251D01*
X-86770Y270123D01*
X-86758Y269993D01*
X-86748Y269965D01*
X-86744Y269936D01*
X-86692Y269784D01*
X-85877Y267817D01*
X-85877Y262540D01*
X-85862Y262422D01*
X-85855Y262303D01*
X-85842Y262265D01*
X-85837Y262224D01*
X-85794Y262114D01*
X-85757Y262001D01*
X-85735Y261966D01*
X-85720Y261929D01*
X-85651Y261833D01*
X-85587Y261732D01*
X-85557Y261704D01*
X-85534Y261671D01*
X-85442Y261595D01*
X-85355Y261514D01*
X-85320Y261494D01*
X-85289Y261469D01*
X-85181Y261418D01*
X-85077Y261360D01*
X-85037Y261350D01*
X-85001Y261333D01*
X-84884Y261311D01*
X-84769Y261281D01*
X-84709Y261277D01*
X-84689Y261273D01*
X-84668Y261275D01*
X-84608Y261271D01*
X-12562Y261271D01*
X-12553Y261272D01*
G37*
G36*
X-84923Y-53991D02*
X-84923Y-53991D01*
X-84853Y-53992D01*
X-84766Y-53971D01*
X-84676Y-53959D01*
X-84611Y-53934D01*
X-84544Y-53917D01*
X-84464Y-53875D01*
X-84381Y-53842D01*
X-84324Y-53801D01*
X-84262Y-53769D01*
X-84196Y-53708D01*
X-84123Y-53656D01*
X-84079Y-53602D01*
X-84027Y-53555D01*
X-83978Y-53480D01*
X-83921Y-53411D01*
X-83891Y-53347D01*
X-83852Y-53289D01*
X-83823Y-53204D01*
X-83785Y-53123D01*
X-83772Y-53054D01*
X-83749Y-52988D01*
X-83742Y-52899D01*
X-83725Y-52811D01*
X-83730Y-52741D01*
X-83724Y-52671D01*
X-83739Y-52583D01*
X-83745Y-52493D01*
X-83767Y-52427D01*
X-83779Y-52358D01*
X-83815Y-52276D01*
X-83843Y-52191D01*
X-83880Y-52132D01*
X-83909Y-52068D01*
X-83965Y-51998D01*
X-84013Y-51922D01*
X-84064Y-51874D01*
X-84108Y-51819D01*
X-84179Y-51766D01*
X-84245Y-51704D01*
X-84306Y-51670D01*
X-84362Y-51628D01*
X-84394Y-51612D01*
X-86598Y-49409D01*
X-87783Y-46548D01*
X-87783Y-46229D01*
X-87795Y-46131D01*
X-87798Y-46032D01*
X-87815Y-45974D01*
X-87823Y-45914D01*
X-87859Y-45822D01*
X-87887Y-45727D01*
X-87917Y-45674D01*
X-87940Y-45618D01*
X-87998Y-45538D01*
X-88048Y-45453D01*
X-88114Y-45377D01*
X-88126Y-45361D01*
X-88136Y-45353D01*
X-88154Y-45332D01*
X-93264Y-40222D01*
X-93342Y-40162D01*
X-93414Y-40094D01*
X-93467Y-40065D01*
X-93515Y-40028D01*
X-93606Y-39988D01*
X-93693Y-39940D01*
X-93751Y-39925D01*
X-93807Y-39901D01*
X-93905Y-39886D01*
X-94001Y-39861D01*
X-94101Y-39855D01*
X-94121Y-39851D01*
X-94133Y-39853D01*
X-94161Y-39851D01*
X-95574Y-39851D01*
X-95672Y-39863D01*
X-95771Y-39866D01*
X-95830Y-39883D01*
X-95890Y-39891D01*
X-95982Y-39927D01*
X-96077Y-39955D01*
X-96129Y-39985D01*
X-96185Y-40008D01*
X-96265Y-40066D01*
X-96351Y-40116D01*
X-96426Y-40182D01*
X-96443Y-40194D01*
X-96450Y-40204D01*
X-96472Y-40223D01*
X-96767Y-40518D01*
X-116718Y-40518D01*
X-119062Y-38174D01*
X-119062Y-29526D01*
X-117933Y-28398D01*
X-117860Y-28303D01*
X-117782Y-28214D01*
X-117763Y-28178D01*
X-117738Y-28146D01*
X-117691Y-28037D01*
X-117637Y-27931D01*
X-117628Y-27892D01*
X-117612Y-27854D01*
X-117593Y-27737D01*
X-117567Y-27621D01*
X-117569Y-27580D01*
X-117562Y-27540D01*
X-117573Y-27422D01*
X-117577Y-27303D01*
X-117588Y-27264D01*
X-117592Y-27224D01*
X-117632Y-27111D01*
X-117665Y-26997D01*
X-117686Y-26963D01*
X-117700Y-26924D01*
X-117767Y-26826D01*
X-117827Y-26723D01*
X-117867Y-26678D01*
X-117878Y-26661D01*
X-117894Y-26648D01*
X-117933Y-26603D01*
X-119062Y-25474D01*
X-119062Y-16826D01*
X-117933Y-15698D01*
X-117860Y-15603D01*
X-117782Y-15514D01*
X-117763Y-15478D01*
X-117738Y-15446D01*
X-117691Y-15337D01*
X-117637Y-15231D01*
X-117628Y-15192D01*
X-117612Y-15154D01*
X-117593Y-15037D01*
X-117567Y-14921D01*
X-117569Y-14880D01*
X-117562Y-14840D01*
X-117573Y-14722D01*
X-117577Y-14603D01*
X-117588Y-14564D01*
X-117592Y-14524D01*
X-117632Y-14411D01*
X-117665Y-14297D01*
X-117686Y-14263D01*
X-117700Y-14224D01*
X-117767Y-14126D01*
X-117827Y-14023D01*
X-117867Y-13978D01*
X-117878Y-13961D01*
X-117894Y-13948D01*
X-117933Y-13903D01*
X-119062Y-12774D01*
X-119062Y-4126D01*
X-118373Y-3437D01*
X-118289Y-3328D01*
X-118199Y-3221D01*
X-118191Y-3202D01*
X-118178Y-3186D01*
X-118123Y-3059D01*
X-118064Y-2933D01*
X-118060Y-2913D01*
X-118052Y-2894D01*
X-118030Y-2756D01*
X-118004Y-2620D01*
X-118005Y-2600D01*
X-118002Y-2580D01*
X-118015Y-2441D01*
X-118024Y-2303D01*
X-118030Y-2284D01*
X-118032Y-2264D01*
X-118079Y-2132D01*
X-118122Y-2001D01*
X-118133Y-1983D01*
X-118140Y-1964D01*
X-118218Y-1849D01*
X-118292Y-1732D01*
X-118307Y-1718D01*
X-118318Y-1701D01*
X-118422Y-1609D01*
X-118524Y-1514D01*
X-118542Y-1504D01*
X-118557Y-1491D01*
X-118680Y-1428D01*
X-118802Y-1360D01*
X-118822Y-1355D01*
X-118840Y-1346D01*
X-118976Y-1316D01*
X-119110Y-1281D01*
X-119138Y-1279D01*
X-119150Y-1276D01*
X-119171Y-1277D01*
X-119271Y-1271D01*
X-124231Y-1271D01*
X-127244Y-23D01*
X-127292Y-9D01*
X-127337Y12D01*
X-127445Y32D01*
X-127551Y61D01*
X-127601Y62D01*
X-127650Y72D01*
X-127759Y65D01*
X-127869Y66D01*
X-127917Y55D01*
X-127967Y52D01*
X-128071Y18D01*
X-128178Y-8D01*
X-128222Y-31D01*
X-128269Y-46D01*
X-128362Y-105D01*
X-128459Y-156D01*
X-128496Y-190D01*
X-128538Y-216D01*
X-128613Y-296D01*
X-128695Y-370D01*
X-128722Y-412D01*
X-128756Y-448D01*
X-128809Y-544D01*
X-128869Y-636D01*
X-128886Y-683D01*
X-128910Y-727D01*
X-128937Y-833D01*
X-128973Y-937D01*
X-128977Y-986D01*
X-128989Y-1035D01*
X-128999Y-1195D01*
X-128999Y-42444D01*
X-129913Y-44649D01*
X-136846Y-51582D01*
X-136906Y-51660D01*
X-136974Y-51732D01*
X-137003Y-51785D01*
X-137040Y-51833D01*
X-137080Y-51924D01*
X-137128Y-52011D01*
X-137143Y-52069D01*
X-137167Y-52125D01*
X-137182Y-52223D01*
X-137207Y-52319D01*
X-137213Y-52419D01*
X-137217Y-52439D01*
X-137215Y-52451D01*
X-137217Y-52479D01*
X-137217Y-52730D01*
X-137202Y-52848D01*
X-137195Y-52967D01*
X-137182Y-53005D01*
X-137177Y-53046D01*
X-137134Y-53156D01*
X-137097Y-53269D01*
X-137075Y-53304D01*
X-137060Y-53341D01*
X-136991Y-53437D01*
X-136927Y-53538D01*
X-136897Y-53566D01*
X-136874Y-53599D01*
X-136782Y-53675D01*
X-136695Y-53756D01*
X-136660Y-53776D01*
X-136629Y-53801D01*
X-136521Y-53852D01*
X-136417Y-53910D01*
X-136377Y-53920D01*
X-136341Y-53937D01*
X-136224Y-53959D01*
X-136109Y-53989D01*
X-136049Y-53993D01*
X-136029Y-53997D01*
X-136008Y-53995D01*
X-135948Y-53999D01*
X-84992Y-53999D01*
X-84923Y-53991D01*
G37*
%LPC*%
G36*
X-257188Y-146001D02*
X-257188Y-146001D01*
X-261231Y-144326D01*
X-264326Y-141231D01*
X-266001Y-137188D01*
X-266001Y-132812D01*
X-264326Y-128769D01*
X-261455Y-125897D01*
X-261382Y-125803D01*
X-261303Y-125714D01*
X-261285Y-125678D01*
X-261260Y-125646D01*
X-261213Y-125537D01*
X-261159Y-125431D01*
X-261150Y-125392D01*
X-261134Y-125354D01*
X-261115Y-125237D01*
X-261089Y-125121D01*
X-261090Y-125080D01*
X-261084Y-125040D01*
X-261095Y-124922D01*
X-261099Y-124803D01*
X-261110Y-124764D01*
X-261114Y-124724D01*
X-261154Y-124611D01*
X-261187Y-124497D01*
X-261207Y-124462D01*
X-261221Y-124424D01*
X-261288Y-124326D01*
X-261348Y-124223D01*
X-261378Y-124190D01*
X-261382Y-124184D01*
X-261389Y-124177D01*
X-261400Y-124161D01*
X-261415Y-124148D01*
X-261455Y-124102D01*
X-264326Y-121231D01*
X-266001Y-117188D01*
X-266001Y-112812D01*
X-264326Y-108769D01*
X-261231Y-105674D01*
X-257188Y-103999D01*
X-252812Y-103999D01*
X-248769Y-105674D01*
X-245674Y-108769D01*
X-243999Y-112812D01*
X-243999Y-117188D01*
X-245674Y-121231D01*
X-248545Y-124102D01*
X-248618Y-124197D01*
X-248697Y-124286D01*
X-248708Y-124308D01*
X-248711Y-124311D01*
X-248717Y-124324D01*
X-248740Y-124354D01*
X-248787Y-124463D01*
X-248841Y-124569D01*
X-248850Y-124608D01*
X-248866Y-124646D01*
X-248885Y-124763D01*
X-248911Y-124879D01*
X-248910Y-124920D01*
X-248916Y-124960D01*
X-248905Y-125078D01*
X-248901Y-125197D01*
X-248890Y-125236D01*
X-248886Y-125276D01*
X-248846Y-125389D01*
X-248813Y-125503D01*
X-248793Y-125537D01*
X-248779Y-125576D01*
X-248712Y-125674D01*
X-248652Y-125777D01*
X-248612Y-125822D01*
X-248600Y-125839D01*
X-248585Y-125852D01*
X-248545Y-125897D01*
X-245674Y-128769D01*
X-243999Y-132812D01*
X-243999Y-137188D01*
X-245674Y-141231D01*
X-248769Y-144326D01*
X-252812Y-146001D01*
X-257188Y-146001D01*
G37*
%LPD*%
%LPC*%
G36*
X-202188Y-146001D02*
X-202188Y-146001D01*
X-206231Y-144326D01*
X-209326Y-141231D01*
X-211001Y-137188D01*
X-211001Y-132812D01*
X-209326Y-128769D01*
X-206455Y-125897D01*
X-206382Y-125803D01*
X-206303Y-125714D01*
X-206285Y-125678D01*
X-206260Y-125646D01*
X-206213Y-125537D01*
X-206159Y-125431D01*
X-206150Y-125392D01*
X-206134Y-125354D01*
X-206115Y-125237D01*
X-206089Y-125121D01*
X-206090Y-125080D01*
X-206084Y-125040D01*
X-206095Y-124922D01*
X-206099Y-124803D01*
X-206110Y-124764D01*
X-206114Y-124724D01*
X-206154Y-124611D01*
X-206187Y-124497D01*
X-206207Y-124462D01*
X-206221Y-124424D01*
X-206288Y-124326D01*
X-206348Y-124223D01*
X-206378Y-124190D01*
X-206382Y-124184D01*
X-206389Y-124177D01*
X-206400Y-124161D01*
X-206415Y-124148D01*
X-206455Y-124102D01*
X-209326Y-121231D01*
X-211001Y-117188D01*
X-211001Y-112812D01*
X-209326Y-108769D01*
X-206231Y-105674D01*
X-202188Y-103999D01*
X-197812Y-103999D01*
X-193769Y-105674D01*
X-190674Y-108769D01*
X-188999Y-112812D01*
X-188999Y-117188D01*
X-190674Y-121231D01*
X-193545Y-124102D01*
X-193618Y-124197D01*
X-193697Y-124286D01*
X-193708Y-124308D01*
X-193711Y-124311D01*
X-193717Y-124324D01*
X-193740Y-124354D01*
X-193787Y-124463D01*
X-193841Y-124569D01*
X-193850Y-124608D01*
X-193866Y-124646D01*
X-193885Y-124763D01*
X-193911Y-124879D01*
X-193910Y-124920D01*
X-193916Y-124960D01*
X-193905Y-125078D01*
X-193901Y-125197D01*
X-193890Y-125236D01*
X-193886Y-125276D01*
X-193846Y-125389D01*
X-193813Y-125503D01*
X-193793Y-125537D01*
X-193779Y-125576D01*
X-193712Y-125674D01*
X-193652Y-125777D01*
X-193612Y-125822D01*
X-193600Y-125839D01*
X-193585Y-125852D01*
X-193545Y-125897D01*
X-190674Y-128769D01*
X-188999Y-132812D01*
X-188999Y-137188D01*
X-190674Y-141231D01*
X-193769Y-144326D01*
X-197812Y-146001D01*
X-202188Y-146001D01*
G37*
%LPD*%
%LPC*%
G36*
X-147188Y-146001D02*
X-147188Y-146001D01*
X-151231Y-144326D01*
X-154326Y-141231D01*
X-156001Y-137188D01*
X-156001Y-132812D01*
X-154326Y-128769D01*
X-151455Y-125897D01*
X-151382Y-125803D01*
X-151303Y-125714D01*
X-151285Y-125678D01*
X-151260Y-125646D01*
X-151213Y-125537D01*
X-151159Y-125431D01*
X-151150Y-125392D01*
X-151134Y-125354D01*
X-151115Y-125237D01*
X-151089Y-125121D01*
X-151090Y-125080D01*
X-151084Y-125040D01*
X-151095Y-124922D01*
X-151099Y-124803D01*
X-151110Y-124764D01*
X-151114Y-124724D01*
X-151154Y-124611D01*
X-151187Y-124497D01*
X-151207Y-124462D01*
X-151221Y-124424D01*
X-151288Y-124326D01*
X-151348Y-124223D01*
X-151378Y-124190D01*
X-151382Y-124184D01*
X-151389Y-124177D01*
X-151400Y-124161D01*
X-151415Y-124148D01*
X-151455Y-124102D01*
X-154326Y-121231D01*
X-156001Y-117188D01*
X-156001Y-112812D01*
X-154326Y-108769D01*
X-151231Y-105674D01*
X-147188Y-103999D01*
X-142812Y-103999D01*
X-138769Y-105674D01*
X-135674Y-108769D01*
X-133999Y-112812D01*
X-133999Y-117188D01*
X-135674Y-121231D01*
X-138545Y-124102D01*
X-138618Y-124197D01*
X-138697Y-124286D01*
X-138708Y-124308D01*
X-138711Y-124311D01*
X-138717Y-124324D01*
X-138740Y-124354D01*
X-138787Y-124463D01*
X-138841Y-124569D01*
X-138850Y-124608D01*
X-138866Y-124646D01*
X-138885Y-124763D01*
X-138911Y-124879D01*
X-138910Y-124920D01*
X-138916Y-124960D01*
X-138905Y-125078D01*
X-138901Y-125197D01*
X-138890Y-125236D01*
X-138886Y-125276D01*
X-138846Y-125389D01*
X-138813Y-125503D01*
X-138793Y-125537D01*
X-138779Y-125576D01*
X-138712Y-125674D01*
X-138652Y-125777D01*
X-138612Y-125822D01*
X-138600Y-125839D01*
X-138585Y-125852D01*
X-138545Y-125897D01*
X-135674Y-128769D01*
X-133999Y-132812D01*
X-133999Y-137188D01*
X-135674Y-141231D01*
X-138769Y-144326D01*
X-142812Y-146001D01*
X-147188Y-146001D01*
G37*
%LPD*%
G36*
X108774Y251572D02*
X108774Y251572D01*
X108824Y251574D01*
X108929Y251604D01*
X109037Y251626D01*
X109082Y251648D01*
X109129Y251662D01*
X109224Y251718D01*
X109323Y251766D01*
X109361Y251798D01*
X109403Y251824D01*
X109524Y251930D01*
X120815Y263221D01*
X122681Y265087D01*
X124887Y266001D01*
X147954Y266001D01*
X148052Y266013D01*
X148151Y266016D01*
X148209Y266033D01*
X148270Y266041D01*
X148362Y266077D01*
X148457Y266105D01*
X148509Y266135D01*
X148565Y266158D01*
X148645Y266216D01*
X148731Y266266D01*
X148806Y266332D01*
X148823Y266344D01*
X148830Y266354D01*
X148852Y266372D01*
X149077Y266598D01*
X151937Y267783D01*
X154538Y267783D01*
X154656Y267798D01*
X154774Y267805D01*
X154813Y267818D01*
X154853Y267823D01*
X154964Y267866D01*
X155077Y267903D01*
X155111Y267925D01*
X155149Y267940D01*
X155245Y268009D01*
X155346Y268073D01*
X155373Y268103D01*
X155406Y268126D01*
X155482Y268218D01*
X155564Y268305D01*
X155583Y268340D01*
X155609Y268371D01*
X155660Y268479D01*
X155717Y268583D01*
X155727Y268623D01*
X155744Y268659D01*
X155767Y268776D01*
X155797Y268891D01*
X155800Y268951D01*
X155804Y268971D01*
X155803Y268992D01*
X155807Y269052D01*
X155807Y273173D01*
X155792Y273291D01*
X155784Y273409D01*
X155772Y273448D01*
X155767Y273488D01*
X155723Y273599D01*
X155686Y273712D01*
X155665Y273746D01*
X155650Y273784D01*
X155580Y273880D01*
X155516Y273981D01*
X155487Y274008D01*
X155463Y274041D01*
X155371Y274117D01*
X155285Y274199D01*
X155249Y274218D01*
X155218Y274244D01*
X155110Y274295D01*
X155006Y274352D01*
X154967Y274362D01*
X154930Y274379D01*
X154814Y274402D01*
X154698Y274432D01*
X154638Y274435D01*
X154618Y274439D01*
X154598Y274438D01*
X154538Y274442D01*
X152514Y274442D01*
X152396Y274427D01*
X152277Y274419D01*
X152239Y274407D01*
X152198Y274402D01*
X152088Y274358D01*
X151975Y274321D01*
X151940Y274300D01*
X151903Y274285D01*
X151807Y274215D01*
X151706Y274151D01*
X151678Y274122D01*
X151645Y274098D01*
X151569Y274006D01*
X151488Y273920D01*
X151468Y273884D01*
X151443Y273853D01*
X151392Y273745D01*
X151334Y273641D01*
X151324Y273602D01*
X151307Y273565D01*
X151285Y273449D01*
X151255Y273333D01*
X151251Y273273D01*
X151247Y273253D01*
X151249Y273233D01*
X151245Y273173D01*
X151245Y272467D01*
X148901Y270123D01*
X139999Y270123D01*
X137655Y272467D01*
X137655Y277687D01*
X137654Y277696D01*
X137655Y277706D01*
X137634Y277854D01*
X137615Y278003D01*
X137612Y278011D01*
X137611Y278020D01*
X137559Y278173D01*
X136449Y280851D01*
X136449Y286710D01*
X136437Y286808D01*
X136434Y286907D01*
X136417Y286966D01*
X136409Y287026D01*
X136373Y287118D01*
X136345Y287213D01*
X136315Y287265D01*
X136292Y287321D01*
X136234Y287402D01*
X136184Y287487D01*
X136118Y287562D01*
X136106Y287579D01*
X136096Y287587D01*
X136078Y287608D01*
X126487Y297198D01*
X126378Y297283D01*
X126271Y297372D01*
X126252Y297380D01*
X126236Y297393D01*
X126108Y297448D01*
X125983Y297507D01*
X125963Y297511D01*
X125944Y297519D01*
X125806Y297541D01*
X125670Y297567D01*
X125650Y297566D01*
X125630Y297569D01*
X125491Y297556D01*
X125353Y297547D01*
X125334Y297541D01*
X125314Y297539D01*
X125182Y297492D01*
X125051Y297449D01*
X125033Y297438D01*
X125014Y297432D01*
X124899Y297353D01*
X124782Y297279D01*
X124768Y297264D01*
X124751Y297253D01*
X124659Y297149D01*
X124564Y297047D01*
X124554Y297030D01*
X124541Y297015D01*
X124477Y296890D01*
X124410Y296769D01*
X124405Y296749D01*
X124396Y296731D01*
X124366Y296595D01*
X124331Y296461D01*
X124329Y296433D01*
X124326Y296421D01*
X124327Y296401D01*
X124321Y296300D01*
X124321Y294468D01*
X124333Y294370D01*
X124336Y294271D01*
X124353Y294212D01*
X124361Y294152D01*
X124397Y294060D01*
X124425Y293965D01*
X124455Y293913D01*
X124478Y293857D01*
X124536Y293777D01*
X124586Y293691D01*
X124652Y293616D01*
X124664Y293599D01*
X124674Y293592D01*
X124692Y293570D01*
X125845Y292418D01*
X125845Y272467D01*
X123501Y270123D01*
X114599Y270123D01*
X113597Y271125D01*
X113503Y271198D01*
X113414Y271276D01*
X113378Y271295D01*
X113346Y271320D01*
X113237Y271367D01*
X113131Y271421D01*
X113092Y271430D01*
X113054Y271446D01*
X112937Y271465D01*
X112821Y271491D01*
X112780Y271489D01*
X112740Y271496D01*
X112622Y271485D01*
X112503Y271481D01*
X112464Y271470D01*
X112424Y271466D01*
X112312Y271426D01*
X112197Y271393D01*
X112162Y271372D01*
X112124Y271358D01*
X112026Y271291D01*
X111923Y271231D01*
X111878Y271191D01*
X111861Y271180D01*
X111848Y271164D01*
X111802Y271125D01*
X110801Y270123D01*
X102270Y270123D01*
X102152Y270108D01*
X102033Y270101D01*
X101995Y270088D01*
X101954Y270083D01*
X101844Y270040D01*
X101731Y270003D01*
X101696Y269981D01*
X101659Y269966D01*
X101563Y269897D01*
X101462Y269833D01*
X101434Y269803D01*
X101401Y269780D01*
X101325Y269688D01*
X101244Y269601D01*
X101224Y269566D01*
X101199Y269535D01*
X101148Y269427D01*
X101090Y269323D01*
X101080Y269283D01*
X101063Y269247D01*
X101041Y269130D01*
X101011Y269015D01*
X101007Y268955D01*
X101003Y268935D01*
X101005Y268914D01*
X101001Y268854D01*
X101001Y258858D01*
X101004Y258828D01*
X101002Y258799D01*
X101024Y258671D01*
X101041Y258542D01*
X101051Y258515D01*
X101056Y258485D01*
X101110Y258367D01*
X101158Y258246D01*
X101175Y258222D01*
X101187Y258196D01*
X101268Y258094D01*
X101344Y257989D01*
X101367Y257970D01*
X101386Y257947D01*
X101489Y257869D01*
X101589Y257786D01*
X101616Y257774D01*
X101640Y257756D01*
X101784Y257685D01*
X104409Y256598D01*
X106598Y254409D01*
X107454Y252342D01*
X107479Y252299D01*
X107495Y252252D01*
X107557Y252161D01*
X107612Y252065D01*
X107646Y252030D01*
X107674Y251989D01*
X107756Y251916D01*
X107833Y251837D01*
X107875Y251811D01*
X107912Y251778D01*
X108010Y251728D01*
X108104Y251671D01*
X108151Y251656D01*
X108196Y251634D01*
X108303Y251609D01*
X108408Y251577D01*
X108457Y251575D01*
X108506Y251564D01*
X108616Y251567D01*
X108726Y251562D01*
X108774Y251572D01*
G37*
G36*
X-66418Y237019D02*
X-66418Y237019D01*
X-66273Y237034D01*
X-66260Y237039D01*
X-66247Y237041D01*
X-66112Y237094D01*
X-65975Y237145D01*
X-65964Y237153D01*
X-65951Y237158D01*
X-65833Y237243D01*
X-65713Y237326D01*
X-65705Y237337D01*
X-65694Y237344D01*
X-65601Y237456D01*
X-65505Y237567D01*
X-65499Y237579D01*
X-65491Y237589D01*
X-65429Y237721D01*
X-65364Y237852D01*
X-65361Y237865D01*
X-65355Y237877D01*
X-65328Y238020D01*
X-65297Y238163D01*
X-65298Y238176D01*
X-65296Y238189D01*
X-65305Y238334D01*
X-65311Y238480D01*
X-65314Y238494D01*
X-65315Y238507D01*
X-65360Y238645D01*
X-65402Y238785D01*
X-65409Y238797D01*
X-65413Y238809D01*
X-65491Y238932D01*
X-65567Y239057D01*
X-65576Y239067D01*
X-65583Y239078D01*
X-65690Y239178D01*
X-65794Y239280D01*
X-65809Y239290D01*
X-65815Y239296D01*
X-65830Y239304D01*
X-65928Y239369D01*
X-68519Y240865D01*
X-68551Y240897D01*
X-68629Y240958D01*
X-68702Y241026D01*
X-68755Y241055D01*
X-68802Y241092D01*
X-68894Y241132D01*
X-68980Y241180D01*
X-69039Y241195D01*
X-69094Y241219D01*
X-69192Y241234D01*
X-69288Y241259D01*
X-69388Y241265D01*
X-69408Y241269D01*
X-69420Y241267D01*
X-69449Y241269D01*
X-80589Y241269D01*
X-80688Y241257D01*
X-80787Y241254D01*
X-80845Y241237D01*
X-80905Y241229D01*
X-80997Y241193D01*
X-81092Y241165D01*
X-81144Y241135D01*
X-81200Y241112D01*
X-81281Y241054D01*
X-81366Y241004D01*
X-81441Y240938D01*
X-81458Y240926D01*
X-81466Y240916D01*
X-81487Y240897D01*
X-81519Y240865D01*
X-84110Y239369D01*
X-84227Y239281D01*
X-84344Y239196D01*
X-84353Y239185D01*
X-84364Y239177D01*
X-84454Y239062D01*
X-84547Y238951D01*
X-84553Y238938D01*
X-84561Y238928D01*
X-84621Y238794D01*
X-84683Y238663D01*
X-84685Y238650D01*
X-84691Y238637D01*
X-84715Y238493D01*
X-84742Y238350D01*
X-84742Y238337D01*
X-84744Y238324D01*
X-84732Y238178D01*
X-84723Y238033D01*
X-84719Y238020D01*
X-84717Y238007D01*
X-84669Y237869D01*
X-84625Y237731D01*
X-84618Y237719D01*
X-84613Y237706D01*
X-84532Y237585D01*
X-84455Y237462D01*
X-84445Y237453D01*
X-84437Y237441D01*
X-84329Y237344D01*
X-84223Y237244D01*
X-84211Y237237D01*
X-84201Y237228D01*
X-84072Y237161D01*
X-83944Y237090D01*
X-83931Y237087D01*
X-83919Y237081D01*
X-83777Y237047D01*
X-83636Y237011D01*
X-83618Y237010D01*
X-83610Y237008D01*
X-83593Y237008D01*
X-83476Y237001D01*
X-66562Y237001D01*
X-66418Y237019D01*
G37*
G36*
X-116456Y237019D02*
X-116456Y237019D01*
X-116311Y237034D01*
X-116298Y237039D01*
X-116285Y237041D01*
X-116150Y237094D01*
X-116013Y237145D01*
X-116002Y237153D01*
X-115989Y237158D01*
X-115871Y237243D01*
X-115751Y237326D01*
X-115743Y237337D01*
X-115732Y237344D01*
X-115639Y237456D01*
X-115543Y237567D01*
X-115537Y237579D01*
X-115529Y237589D01*
X-115467Y237721D01*
X-115402Y237852D01*
X-115399Y237865D01*
X-115393Y237877D01*
X-115366Y238020D01*
X-115335Y238163D01*
X-115336Y238176D01*
X-115334Y238189D01*
X-115343Y238334D01*
X-115349Y238480D01*
X-115352Y238494D01*
X-115353Y238507D01*
X-115398Y238645D01*
X-115440Y238785D01*
X-115447Y238797D01*
X-115451Y238809D01*
X-115529Y238932D01*
X-115605Y239057D01*
X-115614Y239067D01*
X-115621Y239078D01*
X-115728Y239178D01*
X-115832Y239280D01*
X-115847Y239290D01*
X-115853Y239296D01*
X-115868Y239304D01*
X-115966Y239369D01*
X-118557Y240865D01*
X-118589Y240897D01*
X-118667Y240958D01*
X-118740Y241026D01*
X-118793Y241055D01*
X-118840Y241092D01*
X-118932Y241132D01*
X-119018Y241180D01*
X-119077Y241195D01*
X-119132Y241219D01*
X-119230Y241234D01*
X-119326Y241259D01*
X-119426Y241265D01*
X-119446Y241269D01*
X-119458Y241267D01*
X-119487Y241269D01*
X-120000Y241269D01*
X-120118Y241254D01*
X-120237Y241247D01*
X-120275Y241234D01*
X-120316Y241229D01*
X-120426Y241186D01*
X-120539Y241149D01*
X-120574Y241127D01*
X-120611Y241112D01*
X-120707Y241043D01*
X-120808Y240979D01*
X-120836Y240949D01*
X-120869Y240926D01*
X-120945Y240834D01*
X-121026Y240747D01*
X-121046Y240712D01*
X-121071Y240681D01*
X-121122Y240573D01*
X-121180Y240469D01*
X-121190Y240429D01*
X-121207Y240393D01*
X-121229Y240276D01*
X-121259Y240161D01*
X-121263Y240101D01*
X-121267Y240081D01*
X-121265Y240060D01*
X-121269Y240000D01*
X-121269Y238270D01*
X-121254Y238152D01*
X-121247Y238033D01*
X-121234Y237995D01*
X-121229Y237954D01*
X-121186Y237844D01*
X-121149Y237731D01*
X-121127Y237696D01*
X-121112Y237659D01*
X-121043Y237563D01*
X-120979Y237462D01*
X-120949Y237434D01*
X-120926Y237401D01*
X-120834Y237325D01*
X-120747Y237244D01*
X-120712Y237224D01*
X-120681Y237199D01*
X-120573Y237148D01*
X-120469Y237090D01*
X-120429Y237080D01*
X-120393Y237063D01*
X-120276Y237041D01*
X-120161Y237011D01*
X-120101Y237007D01*
X-120081Y237003D01*
X-120060Y237005D01*
X-120000Y237001D01*
X-116600Y237001D01*
X-116456Y237019D01*
G37*
D10*
X171900Y202500D03*
X159200Y202500D03*
X146500Y202500D03*
X133800Y202500D03*
X121100Y202500D03*
X108400Y202500D03*
X95700Y202500D03*
X83000Y202500D03*
D11*
X27500Y52700D03*
D10*
X44900Y17500D03*
X57600Y17500D03*
X70300Y17500D03*
X83000Y17500D03*
X95700Y17500D03*
X108400Y17500D03*
X121100Y17500D03*
D11*
X27500Y141600D03*
D10*
X70300Y202500D03*
X57600Y202500D03*
X44900Y202500D03*
D11*
X27500Y167000D03*
X27500Y154300D03*
D10*
X184600Y202500D03*
X197300Y202500D03*
X210000Y202500D03*
D11*
X27500Y128900D03*
X27500Y116200D03*
X27500Y103500D03*
X27500Y65400D03*
X27500Y78100D03*
X27500Y90800D03*
D10*
X133800Y17500D03*
X146500Y17500D03*
X159200Y17500D03*
X171900Y17500D03*
X184600Y17500D03*
X197300Y17500D03*
X210000Y17500D03*
D12*
X133000Y107000D03*
D13*
X-163258Y-8450D03*
X-163258Y-21150D03*
X-163258Y-33850D03*
X-163258Y-46550D03*
X-106743Y-46550D03*
X-106743Y-33850D03*
X-106743Y-21150D03*
X-106743Y-8450D03*
D14*
X144450Y338958D03*
X131750Y338958D03*
X119050Y338958D03*
X106350Y338958D03*
X93650Y338958D03*
X80950Y338958D03*
X68250Y338958D03*
X55550Y338958D03*
X55550Y282443D03*
X68250Y282443D03*
X80950Y282443D03*
X93650Y282443D03*
X106350Y282443D03*
X119050Y282443D03*
X131750Y282443D03*
X144450Y282443D03*
D15*
X-31500Y-110000D03*
X261500Y-110000D03*
D16*
X15000Y-230000D03*
X15000Y-280000D03*
D17*
X-69224Y72810D03*
X-69224Y83810D03*
X-69224Y94810D03*
X-69224Y105810D03*
X-69224Y116810D03*
X-69224Y127810D03*
X-69224Y138810D03*
X-69224Y149810D03*
D18*
X-195974Y84814D03*
X-195974Y136094D03*
D19*
X-196990Y166314D03*
D20*
X-75418Y51605D03*
D21*
X-75418Y184655D03*
D22*
X-247500Y15000D03*
X-222100Y15000D03*
X-247500Y-10400D03*
X-222100Y-10400D03*
X-247500Y-35800D03*
X-222100Y-35800D03*
X-247500Y-61200D03*
X-222100Y-61200D03*
D23*
X-100000Y-239000D03*
X-100000Y-221000D03*
X-65000Y-239000D03*
X-65000Y-221000D03*
D24*
X-130000Y-320000D03*
X-160000Y-320000D03*
D25*
X-94500Y-110000D03*
X-75500Y-110000D03*
D26*
X141000Y370000D03*
X159000Y370000D03*
X91000Y370000D03*
X109000Y370000D03*
D23*
X175000Y339000D03*
X175000Y321000D03*
D26*
X69000Y370000D03*
X51000Y370000D03*
X189000Y295000D03*
X171000Y295000D03*
D27*
X35000Y225500D03*
X35000Y244500D03*
X0Y114500D03*
X0Y95500D03*
D25*
X-19500Y150000D03*
X-500Y150000D03*
X-19500Y180000D03*
X-500Y180000D03*
D27*
X-108750Y10500D03*
X-108750Y29500D03*
X-80000Y10500D03*
X-80000Y29500D03*
D23*
X-165000Y11000D03*
X-165000Y29000D03*
X-35000Y114000D03*
X-35000Y96000D03*
D24*
X-130000Y-355000D03*
X-160000Y-355000D03*
D27*
X70000Y225500D03*
X70000Y244500D03*
X-50000Y29500D03*
X-50000Y10500D03*
X0Y50500D03*
X0Y69500D03*
D25*
X145500Y230000D03*
X164500Y230000D03*
X144500Y-345000D03*
X125500Y-345000D03*
D26*
X209000Y230000D03*
X191000Y230000D03*
X-94000Y-140000D03*
X-76000Y-140000D03*
X-94000Y-165000D03*
X-76000Y-165000D03*
D23*
X-195000Y-331000D03*
X-195000Y-349000D03*
D28*
X-75000Y-335000D03*
D29*
X-52200Y-262000D03*
X-97800Y-262000D03*
D30*
X-217500Y-280400D03*
D31*
X-217500Y-255000D03*
X-217500Y-229600D03*
D25*
X-500Y15000D03*
X-19500Y15000D03*
D32*
X10000Y-349300D03*
X10000Y-315700D03*
D33*
X260250Y269000D03*
X260250Y251000D03*
X269750Y251000D03*
X269750Y269000D03*
D25*
X69500Y-370000D03*
X50500Y-370000D03*
D34*
X80000Y-260000D03*
X130038Y-260000D03*
X180076Y-260000D03*
X230114Y-260000D03*
X-50000Y265000D03*
X-100038Y265000D03*
X-150076Y265000D03*
X-200114Y265000D03*
D35*
X180221Y-349840D03*
X180221Y-370160D03*
X199779Y-360000D03*
D25*
X125500Y-370000D03*
X144500Y-370000D03*
X234500Y265000D03*
X215500Y265000D03*
X234500Y295000D03*
X215500Y295000D03*
D36*
X-200000Y-115000D03*
X-200000Y-135000D03*
X-200000Y-155000D03*
D37*
X-200000Y-94000D03*
X-200000Y-176000D03*
D36*
X-255000Y-115000D03*
X-255000Y-135000D03*
X-255000Y-155000D03*
D37*
X-255000Y-94000D03*
X-255000Y-176000D03*
D36*
X-145000Y-115000D03*
X-145000Y-135000D03*
X-145000Y-155000D03*
D37*
X-145000Y-94000D03*
X-145000Y-176000D03*
D32*
X-165000Y-281800D03*
X-165000Y-248200D03*
X-130000Y-248200D03*
X-130000Y-281800D03*
D38*
X-250000Y350000D03*
X250000Y-350000D03*
X250000Y350000D03*
X-250000Y-350000D03*
D39*
X-91250Y121250D03*
X-55000Y200000D03*
X-92500Y95000D03*
X-112500Y112500D03*
X-113750Y140000D03*
X-91250Y142500D03*
X-106250Y167500D03*
X52500Y187500D03*
X-77500Y198750D03*
X-18750Y198750D03*
X10000Y213750D03*
X-48750Y167500D03*
D40*
X-35000Y96000D02*
X-36000Y95000D01*
D39*
X-50000Y95000D03*
X11250Y165000D03*
X43750Y165000D03*
D41*
X-75418Y184655D02*
X-77500Y186737D01*
X-77500Y198750D01*
D40*
X13250Y167000D02*
X27500Y167000D01*
X13250Y167000D02*
X11250Y165000D01*
X41750Y167000D02*
X43750Y165000D01*
X41750Y167000D02*
X27500Y167000D01*
D39*
X-92500Y65000D03*
X-187500Y175000D03*
X-27500Y222500D03*
D41*
X-87500Y65000D02*
X-92500Y65000D01*
X-75418Y52918D02*
X-75418Y51605D01*
X-75418Y52918D02*
X-87500Y65000D01*
D39*
X216250Y243750D03*
X210000Y183750D03*
X132500Y270000D03*
X210000Y36250D03*
X145000Y91250D03*
X145000Y106250D03*
X145000Y121250D03*
X130000Y121250D03*
X130000Y106250D03*
X130000Y91250D03*
X115000Y91250D03*
X115000Y106250D03*
X115000Y121250D03*
D42*
X-69374Y94960D02*
X-92460Y94960D01*
X-92500Y95000D01*
X-69374Y94960D02*
X-69224Y94810D01*
X-50000Y95000D02*
X-36000Y95000D01*
X-50000Y95000D02*
X-50040Y94960D01*
X-69374Y94960D01*
D39*
X7500Y237500D03*
X-240000Y-215000D03*
X97500Y-362500D03*
X-260000Y-215000D03*
X36250Y278750D03*
X162500Y311250D03*
X36250Y353750D03*
X-195000Y-10000D03*
X210000Y0D03*
X-125000Y-50000D03*
X-260000Y50000D03*
X-220000Y50000D03*
X-25000Y78750D03*
D43*
X-160000Y-320000D02*
X-160000Y-355000D01*
X-189000Y-355000D01*
X-195000Y-349000D01*
X-249000Y-349000D01*
X-250000Y-350000D01*
X-240000Y-255000D02*
X-217500Y-255000D01*
X-240000Y-255000D02*
X-250000Y-265000D01*
X-250000Y-348000D01*
X-249000Y-349000D01*
X-100000Y-221000D02*
X-65000Y-221000D01*
X-100000Y-221000D02*
X-122500Y-221000D01*
X-145000Y-198500D01*
X-145000Y-176000D01*
X-52200Y-262000D02*
X-43750Y-253550D01*
X-43750Y-229301D02*
X-52051Y-221000D01*
X-65000Y-221000D01*
X-43750Y-229301D02*
X-43750Y-253550D01*
D39*
X-240000Y-245000D03*
X-260000Y-245000D03*
D41*
X-280000Y-219745D02*
X-280000Y-10000D01*
D44*
X-279600Y-10400D02*
X-247500Y-10400D01*
X-279600Y-10400D02*
X-280000Y-10000D01*
D41*
X-280000Y185114D02*
X-200114Y265000D01*
X-280000Y185114D02*
X-280000Y-10000D01*
D40*
X-217500Y-229600D02*
X-183600Y-229600D01*
X-165000Y-248200D01*
X-130000Y-248200D01*
X-120800Y-239000D01*
X-100000Y-239000D01*
X-100000Y-259800D02*
X-97800Y-262000D01*
X-100000Y-259800D02*
X-100000Y-239000D01*
X-65000Y-239000D01*
D41*
X-217500Y-229600D02*
X-270145Y-229600D01*
X-280000Y-219745D01*
D39*
X-55000Y-340000D03*
X-75000Y-340000D03*
X-95000Y-340000D03*
X-95000Y-310000D03*
X-95000Y-325000D03*
X-75000Y-310000D03*
X-75000Y-325000D03*
X-55000Y-325000D03*
X-55000Y-310000D03*
D42*
X-50000Y116810D02*
X-69224Y116810D01*
X-50000Y116810D02*
X-37810Y116810D01*
D44*
X-35000Y114000D01*
D45*
X-500Y150000D02*
X-500Y180000D01*
X45000Y180000D01*
X50000Y175000D02*
X61250Y175000D01*
X50000Y175000D02*
X45000Y180000D01*
X-77330Y29500D02*
X-58330Y10500D01*
X-77330Y29500D02*
X-80000Y29500D01*
X-58330Y10500D02*
X-50000Y10500D01*
D40*
X197140Y202660D02*
X197300Y202500D01*
X197140Y202660D02*
X197140Y216873D01*
X191000Y223013D02*
X191000Y230000D01*
X191000Y223013D02*
X197140Y216873D01*
X191000Y230000D02*
X164500Y230000D01*
D44*
X-222100Y15000D02*
X-240000Y32900D01*
D39*
X-50000Y107500D03*
X-125000Y80000D03*
D45*
X0Y69500D02*
X0Y95500D01*
X-10500Y95500D01*
X-29000Y114000D02*
X-35000Y114000D01*
X-29000Y114000D02*
X-10500Y95500D01*
X35000Y244500D02*
X34500Y245000D01*
X20000Y245000D01*
D39*
X20000Y245000D03*
D44*
X-50000Y116810D02*
X-50000Y107500D01*
X144450Y282443D02*
X161308Y282443D01*
X171000Y292135D02*
X171000Y295000D01*
X171000Y292135D02*
X163808Y284943D01*
X161308Y282443D01*
D39*
X-126250Y30000D03*
X-147500Y30000D03*
D44*
X-120000Y320000D02*
X20000Y320000D01*
X115000Y320000D01*
X144450Y290550D02*
X144450Y282443D01*
X144450Y290550D02*
X115000Y320000D01*
X163808Y230693D02*
X164500Y230000D01*
X163808Y230693D02*
X163808Y284943D01*
D39*
X20000Y320000D03*
X61250Y175000D03*
D45*
X70000Y244500D02*
X70000Y255000D01*
X65000Y260000D01*
D39*
X65000Y260000D03*
D44*
X-125000Y80000D02*
X-127500Y80000D01*
D45*
X-33580Y10500D02*
X-29080Y15000D01*
X-33580Y10500D02*
X-50000Y10500D01*
X-29080Y15000D02*
X-19500Y15000D01*
X110500Y-330000D02*
X125500Y-345000D01*
X110500Y-330000D02*
X-25000Y-330000D01*
X-108750Y29500D02*
X-125750Y29500D01*
X-126250Y30000D01*
X-108750Y29500D02*
X-80000Y29500D01*
D44*
X-240000Y200000D02*
X-120000Y320000D01*
X-240000Y200000D02*
X-240000Y32900D01*
D41*
X-149802Y-21150D02*
X-144951Y-16299D01*
X-149802Y-21150D02*
X-163258Y-21150D01*
X-144951Y27451D02*
X-147500Y30000D01*
X-144951Y27451D02*
X-144951Y-16299D01*
D44*
X-165000Y29000D02*
X-208100Y29000D01*
X-222100Y15000D01*
X-165000Y29000D02*
X-165000Y42500D01*
X-127500Y80000D01*
X-164000Y30000D02*
X-165000Y29000D01*
X-164000Y30000D02*
X-147500Y30000D01*
D45*
X184600Y17500D02*
X184600Y-15400D01*
X-107500Y9250D02*
X-108750Y10500D01*
X-107500Y9250D02*
X-107500Y-7693D01*
X-106743Y-8450D01*
X140000Y-60000D02*
X184600Y-15400D01*
X-91550Y-8450D02*
X-106743Y-8450D01*
X-91550Y-8450D02*
X-85000Y-15000D01*
D39*
X80000Y-15000D03*
X80000Y-60000D03*
D45*
X140000Y-60000D01*
X80000Y-15000D02*
X-85000Y-15000D01*
X146500Y6500D02*
X146500Y17500D01*
X-80000Y-25000D02*
X-90000Y-25000D01*
X-93850Y-21150D01*
X-106743Y-21150D01*
D39*
X-80000Y-25000D03*
X-80000Y-5000D03*
D45*
X-80000Y10500D01*
X115000Y-25000D02*
X146500Y6500D01*
X115000Y-25000D02*
X-80000Y-25000D01*
D39*
X-80000Y-45000D03*
D45*
X-91150Y-33850D01*
X-106743Y-33850D01*
D39*
X-80000Y-90000D03*
D45*
X-31500Y-97500D02*
X-31500Y-110000D01*
X-31500Y-97500D02*
X-39000Y-90000D01*
X-80000Y-90000D01*
X-94500Y-95750D02*
X-94500Y-110000D01*
X-88750Y-90000D02*
X-80000Y-90000D01*
X-88750Y-90000D02*
X-94500Y-95750D01*
X80950Y254050D02*
X80950Y282443D01*
X80950Y254050D02*
X90000Y245000D01*
X90000Y240000D01*
D39*
X90000Y240000D03*
X90000Y186250D03*
D45*
X97500Y178750D02*
X97500Y171250D01*
X97500Y178750D02*
X90000Y186250D01*
X97500Y171250D02*
X72500Y146250D01*
X83000Y29500D02*
X83000Y17500D01*
X72500Y40000D02*
X72500Y146250D01*
X72500Y40000D02*
X83000Y29500D01*
X95000Y281093D02*
X93650Y282443D01*
X95000Y281093D02*
X95000Y255000D01*
X100000Y250000D01*
D39*
X83854Y172500D03*
X100000Y250000D03*
D45*
X83854Y172500D02*
X60000Y148646D01*
X60000Y38750D02*
X70300Y28450D01*
X60000Y38750D02*
X60000Y148646D01*
X70300Y28450D02*
X70300Y17500D01*
D41*
X144450Y350208D02*
X159000Y364758D01*
X144450Y350208D02*
X144450Y338958D01*
X159000Y364758D02*
X159000Y370000D01*
X119050Y349300D02*
X119050Y338958D01*
X139750Y370000D02*
X141000Y370000D01*
X139750Y370000D02*
X119050Y349300D01*
X106350Y338958D02*
X106350Y367350D01*
X109000Y370000D01*
X93650Y367350D02*
X93650Y338958D01*
X93650Y367350D02*
X91000Y370000D01*
X131750Y338958D02*
X131750Y325750D01*
X136250Y321250D01*
X152500Y321250D01*
X170250Y339000D02*
X175000Y339000D01*
X170250Y339000D02*
X152500Y321250D01*
X80950Y338958D02*
X80950Y355550D01*
X69000Y367500D01*
X69000Y370000D01*
D46*
X-33810Y138810D02*
X-69224Y138810D01*
X-33810Y138810D02*
X-31250Y136250D01*
X8750Y136250D02*
X13750Y141250D01*
X13750Y151250D01*
X16800Y154300D01*
X27500Y154300D01*
X-18750Y136250D02*
X-31250Y136250D01*
X-18750Y136250D02*
X8750Y136250D01*
X-19500Y137000D02*
X-19500Y150000D01*
X-19500Y137000D02*
X-18750Y136250D01*
X-69034Y150000D02*
X-69224Y149810D01*
X-69034Y150000D02*
X-51250Y150000D01*
X-21250Y180000D02*
X-19500Y180000D01*
X-21250Y180000D02*
X-51250Y150000D01*
X-19500Y180000D02*
X-19500Y184250D01*
X-2500Y201250D01*
X44900Y201250D02*
X44900Y202500D01*
X44900Y201250D02*
X-2500Y201250D01*
X-55538Y72810D02*
X-69224Y72810D01*
X53821Y31250D02*
X57600Y27471D01*
X57600Y17500D01*
X-23614Y40886D02*
X-55538Y72810D01*
X-23614Y40886D02*
X-13978Y31250D01*
X53821Y31250D01*
D45*
X-23614Y40886D02*
X-35000Y29500D01*
X-50000Y29500D01*
D46*
X-47560Y83810D02*
X-69224Y83810D01*
X-47560Y83810D02*
X-14250Y50500D01*
X0Y50500D01*
X25000Y52700D02*
X27500Y52700D01*
X25000Y52700D02*
X22800Y50500D01*
X0Y50500D01*
D45*
X-69224Y83810D02*
X-106613Y83810D01*
X-135000Y55423D01*
X-135000Y-41250D02*
X-145000Y-51250D01*
X-135000Y-41250D02*
X-135000Y55423D01*
D39*
X-145000Y-51250D03*
D46*
X-69224Y127810D02*
X-12810Y127810D01*
X0Y115000D02*
X0Y114500D01*
X0Y115000D02*
X-12810Y127810D01*
D45*
X17850Y65400D02*
X27500Y65400D01*
X17850Y65400D02*
X13750Y69500D01*
X13750Y104500D01*
X3750Y114500D01*
X0Y114500D01*
D46*
X-69224Y105810D02*
X-92060Y105810D01*
X-102500Y116250D01*
X-102500Y151250D01*
X-88750Y165000D01*
X-66250Y165000D01*
X-5750Y225500D02*
X35000Y225500D01*
X-5750Y225500D02*
X-66250Y165000D01*
X45821Y225500D02*
X56940Y214381D01*
X45821Y225500D02*
X35000Y225500D01*
X56940Y214381D02*
X56940Y203160D01*
X57600Y202500D01*
D45*
X-195974Y136094D02*
X-220000Y160120D01*
X-220000Y180000D01*
X-185000Y215000D01*
X-50000Y215000D01*
X55000Y231250D02*
X55000Y245000D01*
X43750Y256250D01*
X-8750Y256250D01*
X-50000Y215000D01*
X60750Y225500D02*
X70000Y225500D01*
X60750Y225500D02*
X55000Y231250D01*
X70250Y202550D02*
X70300Y202500D01*
X70300Y225200D02*
X70000Y225500D01*
X70300Y225200D02*
X70300Y202500D01*
X145500Y228580D02*
X156580Y217500D01*
X145500Y228580D02*
X145500Y230000D01*
X180821Y217500D02*
X184600Y213721D01*
X184600Y202500D01*
X180821Y217500D02*
X156580Y217500D01*
X184600Y202500D02*
X184600Y184600D01*
X155000Y155000D01*
X110830Y155000D01*
X95960Y140131D01*
X95960Y49040D02*
X110000Y35000D01*
D39*
X110000Y35000D03*
D45*
X95960Y49040D02*
X95960Y140131D01*
D39*
X40000Y-105000D03*
D45*
X-20000Y-165000D01*
X-75000Y-165000D01*
X-76000Y-165000D01*
D39*
X-110000Y-180000D03*
D45*
X-75000Y-180000D01*
X-75000Y-165000D01*
X144500Y-370000D02*
X164660Y-349840D01*
X180221Y-349840D01*
X180221Y-289779D01*
X200000Y-270000D01*
X121100Y17500D02*
X121100Y27500D01*
X128600Y35000D01*
X180000Y35000D01*
D39*
X180000Y35000D03*
X180000Y-35000D03*
D45*
X200000Y-55000D01*
X200000Y-270000D01*
X171900Y-8100D02*
X171900Y17500D01*
X171900Y-8100D02*
X135000Y-45000D01*
X-222100Y-37900D02*
X-222100Y-35800D01*
X-222100Y-37900D02*
X-191250Y-68750D01*
X-63750Y-68750D01*
X-40000Y-45000D01*
X135000Y-45000D01*
X159200Y-800D02*
X159200Y17500D01*
X159200Y-800D02*
X125000Y-35000D01*
X-177500Y-60000D02*
X-222100Y-15400D01*
X-222100Y-10400D01*
X-177500Y-60000D02*
X-75000Y-60000D01*
X-50000Y-35000D01*
X125000Y-35000D01*
X50500Y-370000D02*
X40500Y-380000D01*
X10000Y-380000D01*
D39*
X10000Y-380000D03*
D44*
X10000Y-349300D01*
X-165000Y-281800D02*
X-166400Y-280400D01*
X-195000Y-280400D01*
X-217500Y-280400D01*
X-195000Y-280400D02*
X-195000Y-331000D01*
D45*
X83750Y142500D02*
X133800Y192550D01*
X83750Y46250D02*
X95000Y35000D01*
D39*
X95000Y35000D03*
D45*
X83750Y46250D02*
X83750Y142500D01*
X133800Y192550D02*
X133800Y202500D01*
X-75500Y-110000D02*
X-76000Y-110500D01*
X-76000Y-140000D01*
D39*
X40000Y-90000D03*
D45*
X40000Y-91250D01*
X-10000Y-141250D01*
X-74750Y-141250D01*
X-76000Y-140000D01*
D40*
X15000Y-280000D02*
X10000Y-285000D01*
X10000Y-315700D01*
D45*
X95700Y202500D02*
X95700Y214121D01*
X199250Y248750D02*
X215500Y265000D01*
X130330Y248750D02*
X95700Y214121D01*
X175000Y248750D02*
X199250Y248750D01*
D39*
X175000Y248750D03*
X153486Y248750D03*
D45*
X130330Y248750D01*
X86160Y205660D02*
X83000Y202500D01*
X86160Y220080D02*
X126081Y260000D01*
X215500Y293750D02*
X215500Y295000D01*
X215500Y293750D02*
X181750Y260000D01*
X86160Y220080D02*
X86160Y205660D01*
X175000Y260000D02*
X181750Y260000D01*
D39*
X175000Y260000D03*
X153486Y260000D03*
D45*
X126081Y260000D01*
X180076Y-260000D02*
X144500Y-295576D01*
X144500Y-345000D01*
X199779Y-290335D02*
X230114Y-260000D01*
X199779Y-290335D02*
X199779Y-360000D01*
X238500Y269000D02*
X260250Y269000D01*
X238500Y269000D02*
X234500Y265000D01*
X234500Y295000D02*
X260000Y295000D01*
X270000Y285000D01*
X270000Y269250D01*
X269750Y269000D01*
D40*
X50000Y-230000D02*
X80000Y-260000D01*
X50000Y-230000D02*
X15000Y-230000D01*
D45*
X42400Y15000D02*
X44900Y17500D01*
X42400Y15000D02*
X-500Y15000D01*
D39*
X-100000Y-190000D03*
D45*
X-20000Y-190000D01*
X50000Y-120000D02*
X50000Y-77500D01*
X45000Y-72500D01*
D39*
X45000Y-72500D03*
X45000Y0D03*
D45*
X44900Y100D01*
X44900Y17500D01*
X50000Y-120000D02*
X-20000Y-190000D01*
X-206340Y-76960D02*
X-222100Y-61200D01*
X-206340Y-76960D02*
X-46960Y-76960D01*
X-30000Y-60000D01*
X95700Y5700D02*
X95700Y17500D01*
X85000Y-5000D02*
X65000Y-5000D01*
D39*
X65000Y-5000D03*
X65000Y-60000D03*
D45*
X85000Y-5000D02*
X95700Y5700D01*
X65000Y-60000D02*
X-30000Y-60000D01*
D47*
X119050Y282443D02*
X119050Y295950D01*
X-105076Y310000D02*
X-150076Y265000D01*
X105000Y310000D02*
X119050Y295950D01*
X105000Y310000D02*
X-105076Y310000D01*
X106350Y293650D02*
X106350Y282443D01*
X106350Y293650D02*
X100000Y300000D01*
X-65038Y300000D01*
X-100038Y265000D01*
M02*
