G04 EAGLE Gerber RS-274X export*
G75*
%MOMM*%
%FSLAX34Y34*%
%LPD*%
%INBottom Copper*%
%IPPOS*%
%AMOC8*
5,1,8,0,0,1.08239X$1,22.5*%
G01*
%ADD10C,1.422400*%
%ADD11R,1.508000X1.508000*%
%ADD12C,1.508000*%
%ADD13C,2.032000*%
%ADD14C,1.400000*%
%ADD15C,2.250000*%
%ADD16C,6.000000*%
%ADD17C,0.756400*%
%ADD18C,0.900000*%
%ADD19C,0.400000*%
%ADD20C,1.000000*%
%ADD21C,0.800000*%

G36*
X245979Y-385174D02*
X245979Y-385174D01*
X256025Y-383644D01*
X256108Y-383620D01*
X256192Y-383607D01*
X256321Y-383560D01*
X256331Y-383557D01*
X256335Y-383555D01*
X256343Y-383551D01*
X265651Y-379473D01*
X265725Y-379430D01*
X265803Y-379394D01*
X265915Y-379316D01*
X265924Y-379310D01*
X265927Y-379307D01*
X265935Y-379302D01*
X273870Y-372954D01*
X273930Y-372892D01*
X273996Y-372838D01*
X274084Y-372733D01*
X274091Y-372726D01*
X274094Y-372722D01*
X274099Y-372715D01*
X280121Y-364529D01*
X280142Y-364491D01*
X280170Y-364458D01*
X280188Y-364419D01*
X280213Y-364385D01*
X280271Y-364261D01*
X280276Y-364251D01*
X280277Y-364247D01*
X280281Y-364239D01*
X283979Y-354774D01*
X283990Y-354731D01*
X284008Y-354691D01*
X284046Y-354534D01*
X284900Y-349739D01*
X284901Y-349708D01*
X284909Y-349678D01*
X284919Y-349517D01*
X284919Y-15040D01*
X284904Y-14922D01*
X284897Y-14803D01*
X284884Y-14765D01*
X284879Y-14724D01*
X284836Y-14614D01*
X284799Y-14501D01*
X284777Y-14466D01*
X284762Y-14429D01*
X284693Y-14333D01*
X284629Y-14232D01*
X284599Y-14204D01*
X284576Y-14171D01*
X284484Y-14095D01*
X284397Y-14014D01*
X284362Y-13994D01*
X284331Y-13969D01*
X284223Y-13918D01*
X284119Y-13860D01*
X284079Y-13850D01*
X284043Y-13833D01*
X283926Y-13811D01*
X283811Y-13781D01*
X283751Y-13777D01*
X283731Y-13773D01*
X283710Y-13775D01*
X283650Y-13771D01*
X218438Y-13771D01*
X216229Y-11562D01*
X216229Y231562D01*
X218438Y233771D01*
X283650Y233771D01*
X283768Y233786D01*
X283887Y233793D01*
X283925Y233806D01*
X283966Y233811D01*
X284076Y233854D01*
X284189Y233891D01*
X284224Y233913D01*
X284261Y233928D01*
X284357Y233997D01*
X284458Y234061D01*
X284486Y234091D01*
X284519Y234114D01*
X284595Y234206D01*
X284676Y234293D01*
X284696Y234328D01*
X284721Y234359D01*
X284772Y234467D01*
X284830Y234571D01*
X284840Y234611D01*
X284857Y234647D01*
X284879Y234764D01*
X284909Y234879D01*
X284913Y234939D01*
X284917Y234959D01*
X284915Y234980D01*
X284919Y235040D01*
X284919Y350000D01*
X284917Y350021D01*
X284917Y350083D01*
X284629Y354475D01*
X284620Y354519D01*
X284620Y354563D01*
X284588Y354721D01*
X282315Y363206D01*
X282282Y363285D01*
X282259Y363368D01*
X282198Y363491D01*
X282194Y363500D01*
X282192Y363504D01*
X282188Y363512D01*
X277796Y371119D01*
X277744Y371188D01*
X277700Y371261D01*
X277610Y371364D01*
X277603Y371373D01*
X277600Y371375D01*
X277594Y371382D01*
X271382Y377594D01*
X271315Y377646D01*
X271253Y377706D01*
X271140Y377782D01*
X271131Y377789D01*
X271127Y377791D01*
X271119Y377796D01*
X263512Y382188D01*
X263433Y382221D01*
X263358Y382263D01*
X263229Y382307D01*
X263219Y382311D01*
X263214Y382312D01*
X263206Y382315D01*
X254721Y384588D01*
X254677Y384594D01*
X254635Y384608D01*
X254475Y384629D01*
X250083Y384917D01*
X250062Y384915D01*
X250000Y384919D01*
X-250000Y384919D01*
X-250021Y384917D01*
X-250083Y384917D01*
X-254475Y384629D01*
X-254519Y384620D01*
X-254563Y384620D01*
X-254721Y384588D01*
X-263206Y382315D01*
X-263285Y382282D01*
X-263368Y382259D01*
X-263491Y382198D01*
X-263500Y382194D01*
X-263504Y382192D01*
X-263512Y382188D01*
X-271119Y377796D01*
X-271188Y377744D01*
X-271261Y377700D01*
X-271364Y377610D01*
X-271373Y377603D01*
X-271375Y377600D01*
X-271382Y377594D01*
X-277594Y371382D01*
X-277646Y371315D01*
X-277706Y371253D01*
X-277782Y371140D01*
X-277789Y371131D01*
X-277791Y371127D01*
X-277796Y371119D01*
X-282188Y363512D01*
X-282221Y363433D01*
X-282263Y363358D01*
X-282307Y363229D01*
X-282311Y363219D01*
X-282312Y363214D01*
X-282315Y363206D01*
X-284588Y354721D01*
X-284594Y354677D01*
X-284608Y354635D01*
X-284629Y354475D01*
X-284686Y353596D01*
X-284769Y352327D01*
X-284770Y352327D01*
X-284770Y352326D01*
X-284917Y350083D01*
X-284915Y350062D01*
X-284919Y350000D01*
X-284919Y34460D01*
X-284902Y34322D01*
X-284889Y34183D01*
X-284882Y34164D01*
X-284879Y34144D01*
X-284828Y34015D01*
X-284781Y33884D01*
X-284770Y33867D01*
X-284762Y33848D01*
X-284681Y33736D01*
X-284603Y33621D01*
X-284587Y33608D01*
X-284576Y33591D01*
X-284468Y33502D01*
X-284364Y33410D01*
X-284346Y33401D01*
X-284331Y33388D01*
X-284205Y33329D01*
X-284081Y33266D01*
X-284061Y33261D01*
X-284043Y33253D01*
X-283907Y33227D01*
X-283771Y33196D01*
X-283750Y33197D01*
X-283731Y33193D01*
X-283592Y33202D01*
X-283453Y33206D01*
X-283433Y33211D01*
X-283413Y33213D01*
X-283281Y33256D01*
X-283147Y33294D01*
X-283130Y33305D01*
X-283111Y33311D01*
X-282993Y33385D01*
X-282873Y33456D01*
X-282852Y33474D01*
X-282842Y33481D01*
X-282828Y33496D01*
X-282753Y33562D01*
X-278282Y38033D01*
X-275341Y39251D01*
X-236759Y39251D01*
X-233818Y38033D01*
X-221270Y25484D01*
X-221191Y25424D01*
X-221119Y25356D01*
X-221066Y25327D01*
X-221018Y25290D01*
X-220928Y25250D01*
X-220841Y25202D01*
X-220782Y25187D01*
X-220727Y25163D01*
X-220629Y25148D01*
X-220533Y25123D01*
X-220433Y25117D01*
X-220413Y25113D01*
X-220400Y25115D01*
X-220372Y25113D01*
X-220088Y25113D01*
X-216372Y23573D01*
X-213527Y20728D01*
X-211987Y17012D01*
X-211987Y12988D01*
X-213527Y9272D01*
X-216372Y6427D01*
X-220088Y4887D01*
X-224112Y4887D01*
X-227828Y6427D01*
X-230673Y9272D01*
X-232213Y12988D01*
X-232213Y13272D01*
X-232225Y13370D01*
X-232228Y13469D01*
X-232245Y13528D01*
X-232253Y13588D01*
X-232289Y13680D01*
X-232317Y13775D01*
X-232347Y13827D01*
X-232370Y13883D01*
X-232428Y13964D01*
X-232478Y14049D01*
X-232544Y14124D01*
X-232556Y14141D01*
X-232566Y14149D01*
X-232584Y14170D01*
X-241292Y22878D01*
X-241371Y22938D01*
X-241443Y23006D01*
X-241496Y23035D01*
X-241544Y23072D01*
X-241634Y23112D01*
X-241721Y23160D01*
X-241780Y23175D01*
X-241835Y23199D01*
X-241933Y23214D01*
X-242029Y23239D01*
X-242129Y23245D01*
X-242149Y23249D01*
X-242162Y23247D01*
X-242190Y23249D01*
X-269910Y23249D01*
X-270008Y23237D01*
X-270107Y23234D01*
X-270166Y23217D01*
X-270226Y23209D01*
X-270318Y23173D01*
X-270413Y23145D01*
X-270465Y23115D01*
X-270521Y23092D01*
X-270602Y23034D01*
X-270687Y22984D01*
X-270762Y22918D01*
X-270779Y22906D01*
X-270787Y22896D01*
X-270808Y22878D01*
X-271548Y22138D01*
X-271608Y22059D01*
X-271676Y21987D01*
X-271705Y21934D01*
X-271742Y21886D01*
X-271782Y21796D01*
X-271830Y21709D01*
X-271845Y21650D01*
X-271869Y21595D01*
X-271884Y21497D01*
X-271909Y21401D01*
X-271915Y21301D01*
X-271919Y21281D01*
X-271917Y21268D01*
X-271919Y21240D01*
X-271919Y-181240D01*
X-271907Y-181338D01*
X-271904Y-181437D01*
X-271887Y-181496D01*
X-271879Y-181556D01*
X-271843Y-181648D01*
X-271815Y-181743D01*
X-271785Y-181795D01*
X-271762Y-181851D01*
X-271704Y-181932D01*
X-271654Y-182017D01*
X-271588Y-182092D01*
X-271576Y-182109D01*
X-271566Y-182117D01*
X-271548Y-182138D01*
X-265038Y-188648D01*
X-264959Y-188708D01*
X-264887Y-188776D01*
X-264834Y-188805D01*
X-264786Y-188842D01*
X-264696Y-188882D01*
X-264609Y-188930D01*
X-264550Y-188945D01*
X-264495Y-188969D01*
X-264397Y-188984D01*
X-264301Y-189009D01*
X-264201Y-189015D01*
X-264181Y-189019D01*
X-264168Y-189017D01*
X-264140Y-189019D01*
X-223889Y-189019D01*
X-221921Y-189834D01*
X-221854Y-189853D01*
X-221790Y-189880D01*
X-221701Y-189894D01*
X-221615Y-189918D01*
X-221545Y-189919D01*
X-221476Y-189930D01*
X-221386Y-189922D01*
X-221297Y-189923D01*
X-221229Y-189907D01*
X-221159Y-189900D01*
X-221075Y-189870D01*
X-220987Y-189849D01*
X-220926Y-189816D01*
X-220860Y-189793D01*
X-220786Y-189742D01*
X-220706Y-189700D01*
X-220655Y-189653D01*
X-220597Y-189614D01*
X-220537Y-189547D01*
X-220471Y-189486D01*
X-220433Y-189428D01*
X-220386Y-189376D01*
X-220346Y-189296D01*
X-220296Y-189221D01*
X-220273Y-189155D01*
X-220242Y-189092D01*
X-220222Y-189005D01*
X-220193Y-188920D01*
X-220187Y-188850D01*
X-220172Y-188782D01*
X-220175Y-188692D01*
X-220168Y-188603D01*
X-220180Y-188534D01*
X-220182Y-188464D01*
X-220207Y-188378D01*
X-220222Y-188289D01*
X-220251Y-188226D01*
X-220270Y-188159D01*
X-220316Y-188081D01*
X-220353Y-187999D01*
X-220396Y-187945D01*
X-220432Y-187885D01*
X-220538Y-187764D01*
X-229239Y-179063D01*
X-230001Y-177225D01*
X-230001Y-152597D01*
X-230013Y-152499D01*
X-230016Y-152400D01*
X-230033Y-152342D01*
X-230041Y-152282D01*
X-230077Y-152190D01*
X-230105Y-152094D01*
X-230135Y-152042D01*
X-230158Y-151986D01*
X-230216Y-151906D01*
X-230266Y-151820D01*
X-230332Y-151745D01*
X-230344Y-151729D01*
X-230354Y-151721D01*
X-230372Y-151700D01*
X-241700Y-140372D01*
X-241778Y-140312D01*
X-241850Y-140244D01*
X-241903Y-140215D01*
X-241951Y-140178D01*
X-242042Y-140138D01*
X-242129Y-140090D01*
X-242187Y-140075D01*
X-242243Y-140051D01*
X-242341Y-140036D01*
X-242436Y-140011D01*
X-242536Y-140005D01*
X-242557Y-140001D01*
X-242569Y-140003D01*
X-242597Y-140001D01*
X-245399Y-140001D01*
X-245428Y-140004D01*
X-245457Y-140002D01*
X-245585Y-140024D01*
X-245714Y-140041D01*
X-245742Y-140051D01*
X-245771Y-140057D01*
X-245889Y-140110D01*
X-246010Y-140158D01*
X-246034Y-140175D01*
X-246061Y-140187D01*
X-246162Y-140268D01*
X-246267Y-140344D01*
X-246286Y-140367D01*
X-246309Y-140386D01*
X-246387Y-140490D01*
X-246470Y-140589D01*
X-246483Y-140616D01*
X-246500Y-140640D01*
X-246504Y-140647D01*
X-249335Y-143478D01*
X-253011Y-145001D01*
X-256989Y-145001D01*
X-260665Y-143478D01*
X-263478Y-140665D01*
X-265001Y-136989D01*
X-265001Y-133011D01*
X-263478Y-129335D01*
X-260665Y-126522D01*
X-259822Y-126173D01*
X-259701Y-126104D01*
X-259578Y-126039D01*
X-259563Y-126025D01*
X-259546Y-126015D01*
X-259445Y-125918D01*
X-259343Y-125825D01*
X-259332Y-125808D01*
X-259317Y-125794D01*
X-259244Y-125675D01*
X-259168Y-125559D01*
X-259162Y-125540D01*
X-259151Y-125523D01*
X-259110Y-125390D01*
X-259065Y-125258D01*
X-259063Y-125238D01*
X-259057Y-125219D01*
X-259051Y-125080D01*
X-259040Y-124941D01*
X-259043Y-124921D01*
X-259042Y-124901D01*
X-259070Y-124765D01*
X-259094Y-124628D01*
X-259103Y-124609D01*
X-259107Y-124590D01*
X-259168Y-124465D01*
X-259225Y-124338D01*
X-259237Y-124322D01*
X-259246Y-124304D01*
X-259337Y-124198D01*
X-259423Y-124090D01*
X-259439Y-124077D01*
X-259453Y-124062D01*
X-259553Y-123991D01*
X-259580Y-123966D01*
X-259609Y-123950D01*
X-259678Y-123898D01*
X-259703Y-123886D01*
X-259713Y-123879D01*
X-259732Y-123872D01*
X-259822Y-123827D01*
X-260665Y-123478D01*
X-263478Y-120665D01*
X-265001Y-116989D01*
X-265001Y-113011D01*
X-263478Y-109335D01*
X-260665Y-106522D01*
X-256989Y-104999D01*
X-253011Y-104999D01*
X-249335Y-106522D01*
X-246522Y-109335D01*
X-244999Y-113011D01*
X-244999Y-116989D01*
X-246522Y-120665D01*
X-249335Y-123478D01*
X-250178Y-123827D01*
X-250237Y-123861D01*
X-250284Y-123880D01*
X-250329Y-123912D01*
X-250422Y-123961D01*
X-250437Y-123975D01*
X-250454Y-123985D01*
X-250529Y-124057D01*
X-250541Y-124066D01*
X-250554Y-124081D01*
X-250657Y-124175D01*
X-250668Y-124192D01*
X-250683Y-124206D01*
X-250755Y-124325D01*
X-250832Y-124441D01*
X-250838Y-124460D01*
X-250849Y-124477D01*
X-250890Y-124610D01*
X-250935Y-124742D01*
X-250937Y-124762D01*
X-250943Y-124781D01*
X-250949Y-124920D01*
X-250960Y-125059D01*
X-250957Y-125079D01*
X-250958Y-125099D01*
X-250930Y-125235D01*
X-250906Y-125372D01*
X-250897Y-125391D01*
X-250893Y-125410D01*
X-250832Y-125535D01*
X-250775Y-125662D01*
X-250763Y-125678D01*
X-250754Y-125696D01*
X-250664Y-125802D01*
X-250577Y-125910D01*
X-250560Y-125923D01*
X-250547Y-125938D01*
X-250434Y-126018D01*
X-250323Y-126102D01*
X-250297Y-126114D01*
X-250287Y-126121D01*
X-250268Y-126128D01*
X-250178Y-126173D01*
X-249335Y-126522D01*
X-246479Y-129378D01*
X-246478Y-129379D01*
X-246414Y-129492D01*
X-246393Y-129513D01*
X-246377Y-129538D01*
X-246283Y-129627D01*
X-246193Y-129720D01*
X-246167Y-129736D01*
X-246146Y-129756D01*
X-246032Y-129819D01*
X-245921Y-129887D01*
X-245893Y-129895D01*
X-245867Y-129910D01*
X-245742Y-129942D01*
X-245618Y-129980D01*
X-245588Y-129982D01*
X-245559Y-129989D01*
X-245399Y-129999D01*
X-239005Y-129999D01*
X-237167Y-130761D01*
X-220761Y-147167D01*
X-219999Y-149005D01*
X-219999Y-173633D01*
X-219987Y-173731D01*
X-219984Y-173830D01*
X-219967Y-173888D01*
X-219959Y-173948D01*
X-219923Y-174040D01*
X-219895Y-174136D01*
X-219865Y-174188D01*
X-219842Y-174244D01*
X-219784Y-174324D01*
X-219734Y-174410D01*
X-219668Y-174485D01*
X-219656Y-174501D01*
X-219646Y-174509D01*
X-219628Y-174530D01*
X-198800Y-195358D01*
X-198722Y-195418D01*
X-198650Y-195486D01*
X-198597Y-195515D01*
X-198549Y-195552D01*
X-198458Y-195592D01*
X-198372Y-195640D01*
X-198313Y-195655D01*
X-198257Y-195679D01*
X-198159Y-195694D01*
X-198064Y-195719D01*
X-197964Y-195725D01*
X-197943Y-195729D01*
X-197931Y-195727D01*
X-197903Y-195729D01*
X-169407Y-195729D01*
X-169270Y-195712D01*
X-169131Y-195699D01*
X-169112Y-195692D01*
X-169092Y-195689D01*
X-168963Y-195638D01*
X-168831Y-195591D01*
X-168815Y-195580D01*
X-168796Y-195572D01*
X-168684Y-195491D01*
X-168568Y-195413D01*
X-168555Y-195397D01*
X-168539Y-195386D01*
X-168450Y-195278D01*
X-168358Y-195174D01*
X-168349Y-195156D01*
X-168336Y-195141D01*
X-168276Y-195015D01*
X-168213Y-194891D01*
X-168209Y-194871D01*
X-168200Y-194853D01*
X-168174Y-194717D01*
X-168144Y-194581D01*
X-168144Y-194560D01*
X-168140Y-194541D01*
X-168149Y-194402D01*
X-168153Y-194263D01*
X-168159Y-194243D01*
X-168160Y-194223D01*
X-168203Y-194091D01*
X-168242Y-193957D01*
X-168252Y-193940D01*
X-168258Y-193921D01*
X-168333Y-193803D01*
X-168403Y-193683D01*
X-168422Y-193662D01*
X-168428Y-193652D01*
X-168443Y-193638D01*
X-168510Y-193563D01*
X-179239Y-182833D01*
X-180001Y-180995D01*
X-180001Y-147597D01*
X-180013Y-147499D01*
X-180016Y-147400D01*
X-180033Y-147342D01*
X-180041Y-147282D01*
X-180077Y-147190D01*
X-180105Y-147094D01*
X-180135Y-147042D01*
X-180158Y-146986D01*
X-180216Y-146906D01*
X-180266Y-146820D01*
X-180332Y-146745D01*
X-180344Y-146729D01*
X-180354Y-146721D01*
X-180372Y-146700D01*
X-186700Y-140372D01*
X-186778Y-140312D01*
X-186850Y-140244D01*
X-186903Y-140215D01*
X-186951Y-140178D01*
X-187042Y-140138D01*
X-187129Y-140090D01*
X-187187Y-140075D01*
X-187243Y-140051D01*
X-187341Y-140036D01*
X-187436Y-140011D01*
X-187536Y-140005D01*
X-187557Y-140001D01*
X-187569Y-140003D01*
X-187597Y-140001D01*
X-190399Y-140001D01*
X-190428Y-140004D01*
X-190457Y-140002D01*
X-190585Y-140024D01*
X-190714Y-140041D01*
X-190742Y-140051D01*
X-190771Y-140057D01*
X-190889Y-140110D01*
X-191010Y-140158D01*
X-191034Y-140175D01*
X-191061Y-140187D01*
X-191162Y-140268D01*
X-191267Y-140344D01*
X-191286Y-140367D01*
X-191309Y-140386D01*
X-191387Y-140490D01*
X-191470Y-140589D01*
X-191483Y-140616D01*
X-191500Y-140640D01*
X-191504Y-140647D01*
X-194335Y-143478D01*
X-198011Y-145001D01*
X-201989Y-145001D01*
X-205665Y-143478D01*
X-208478Y-140665D01*
X-210001Y-136989D01*
X-210001Y-133011D01*
X-208478Y-129335D01*
X-205665Y-126522D01*
X-204822Y-126173D01*
X-204701Y-126104D01*
X-204578Y-126039D01*
X-204563Y-126025D01*
X-204546Y-126015D01*
X-204445Y-125918D01*
X-204343Y-125825D01*
X-204332Y-125808D01*
X-204317Y-125794D01*
X-204244Y-125675D01*
X-204168Y-125559D01*
X-204162Y-125540D01*
X-204151Y-125523D01*
X-204110Y-125390D01*
X-204065Y-125258D01*
X-204063Y-125238D01*
X-204057Y-125219D01*
X-204051Y-125080D01*
X-204040Y-124941D01*
X-204043Y-124921D01*
X-204042Y-124901D01*
X-204070Y-124765D01*
X-204094Y-124628D01*
X-204103Y-124609D01*
X-204107Y-124590D01*
X-204168Y-124465D01*
X-204225Y-124338D01*
X-204237Y-124322D01*
X-204246Y-124304D01*
X-204337Y-124198D01*
X-204423Y-124090D01*
X-204439Y-124077D01*
X-204453Y-124062D01*
X-204553Y-123991D01*
X-204580Y-123966D01*
X-204609Y-123950D01*
X-204678Y-123898D01*
X-204703Y-123886D01*
X-204713Y-123879D01*
X-204732Y-123872D01*
X-204822Y-123827D01*
X-205665Y-123478D01*
X-208478Y-120665D01*
X-210001Y-116989D01*
X-210001Y-113011D01*
X-208478Y-109335D01*
X-205665Y-106522D01*
X-201989Y-104999D01*
X-198011Y-104999D01*
X-194335Y-106522D01*
X-191522Y-109335D01*
X-189999Y-113011D01*
X-189999Y-116989D01*
X-191522Y-120665D01*
X-194335Y-123478D01*
X-195178Y-123827D01*
X-195237Y-123861D01*
X-195284Y-123880D01*
X-195329Y-123912D01*
X-195422Y-123961D01*
X-195437Y-123975D01*
X-195454Y-123985D01*
X-195529Y-124057D01*
X-195541Y-124066D01*
X-195554Y-124081D01*
X-195657Y-124175D01*
X-195668Y-124192D01*
X-195683Y-124206D01*
X-195755Y-124325D01*
X-195832Y-124441D01*
X-195838Y-124460D01*
X-195849Y-124477D01*
X-195890Y-124610D01*
X-195935Y-124742D01*
X-195937Y-124762D01*
X-195943Y-124781D01*
X-195949Y-124920D01*
X-195960Y-125059D01*
X-195957Y-125079D01*
X-195958Y-125099D01*
X-195930Y-125235D01*
X-195906Y-125372D01*
X-195897Y-125391D01*
X-195893Y-125410D01*
X-195832Y-125535D01*
X-195775Y-125662D01*
X-195763Y-125678D01*
X-195754Y-125696D01*
X-195664Y-125802D01*
X-195577Y-125910D01*
X-195560Y-125923D01*
X-195547Y-125938D01*
X-195434Y-126018D01*
X-195323Y-126102D01*
X-195297Y-126114D01*
X-195287Y-126121D01*
X-195268Y-126128D01*
X-195178Y-126173D01*
X-194335Y-126522D01*
X-191479Y-129378D01*
X-191478Y-129379D01*
X-191414Y-129492D01*
X-191393Y-129513D01*
X-191377Y-129538D01*
X-191283Y-129627D01*
X-191193Y-129720D01*
X-191167Y-129736D01*
X-191146Y-129756D01*
X-191032Y-129819D01*
X-190921Y-129887D01*
X-190893Y-129895D01*
X-190867Y-129910D01*
X-190742Y-129942D01*
X-190618Y-129980D01*
X-190588Y-129982D01*
X-190559Y-129989D01*
X-190399Y-129999D01*
X-184005Y-129999D01*
X-182167Y-130761D01*
X-170761Y-142167D01*
X-169999Y-144005D01*
X-169999Y-177403D01*
X-169987Y-177501D01*
X-169984Y-177600D01*
X-169967Y-177658D01*
X-169959Y-177718D01*
X-169923Y-177810D01*
X-169895Y-177906D01*
X-169865Y-177958D01*
X-169842Y-178014D01*
X-169784Y-178094D01*
X-169734Y-178180D01*
X-169668Y-178255D01*
X-169656Y-178271D01*
X-169646Y-178279D01*
X-169628Y-178300D01*
X-158300Y-189628D01*
X-158222Y-189688D01*
X-158150Y-189756D01*
X-158097Y-189785D01*
X-158049Y-189822D01*
X-157958Y-189862D01*
X-157871Y-189910D01*
X-157813Y-189925D01*
X-157757Y-189949D01*
X-157659Y-189964D01*
X-157564Y-189989D01*
X-157464Y-189995D01*
X-157443Y-189999D01*
X-157431Y-189997D01*
X-157403Y-189999D01*
X-127597Y-189999D01*
X-127499Y-189987D01*
X-127400Y-189984D01*
X-127342Y-189967D01*
X-127282Y-189959D01*
X-127190Y-189923D01*
X-127094Y-189895D01*
X-127042Y-189865D01*
X-126986Y-189842D01*
X-126906Y-189784D01*
X-126820Y-189734D01*
X-126745Y-189668D01*
X-126729Y-189656D01*
X-126721Y-189646D01*
X-126700Y-189628D01*
X-117154Y-180082D01*
X-117094Y-180004D01*
X-117026Y-179932D01*
X-116997Y-179879D01*
X-116960Y-179831D01*
X-116920Y-179740D01*
X-116872Y-179653D01*
X-116857Y-179595D01*
X-116833Y-179539D01*
X-116818Y-179441D01*
X-116793Y-179346D01*
X-116787Y-179246D01*
X-116783Y-179225D01*
X-116785Y-179213D01*
X-116783Y-179185D01*
X-116783Y-178651D01*
X-115750Y-176158D01*
X-113842Y-174250D01*
X-111349Y-173217D01*
X-108651Y-173217D01*
X-106158Y-174250D01*
X-104250Y-176158D01*
X-103217Y-178651D01*
X-103217Y-181349D01*
X-103366Y-181707D01*
X-103402Y-181842D01*
X-103443Y-181974D01*
X-103444Y-181994D01*
X-103450Y-182014D01*
X-103452Y-182153D01*
X-103458Y-182292D01*
X-103454Y-182312D01*
X-103455Y-182332D01*
X-103422Y-182468D01*
X-103394Y-182603D01*
X-103385Y-182621D01*
X-103380Y-182641D01*
X-103315Y-182765D01*
X-103254Y-182889D01*
X-103241Y-182904D01*
X-103232Y-182922D01*
X-103138Y-183025D01*
X-103048Y-183131D01*
X-103031Y-183143D01*
X-103018Y-183158D01*
X-102901Y-183234D01*
X-102788Y-183314D01*
X-102769Y-183321D01*
X-102752Y-183332D01*
X-102620Y-183378D01*
X-102491Y-183427D01*
X-102470Y-183429D01*
X-102451Y-183436D01*
X-102313Y-183447D01*
X-102174Y-183462D01*
X-102154Y-183459D01*
X-102134Y-183461D01*
X-101997Y-183437D01*
X-101860Y-183418D01*
X-101833Y-183409D01*
X-101821Y-183406D01*
X-101802Y-183398D01*
X-101707Y-183366D01*
X-101349Y-183217D01*
X-98651Y-183217D01*
X-96158Y-184250D01*
X-94250Y-186158D01*
X-93217Y-188651D01*
X-93217Y-191349D01*
X-94305Y-193974D01*
X-94318Y-194022D01*
X-94339Y-194067D01*
X-94360Y-194175D01*
X-94389Y-194281D01*
X-94389Y-194331D01*
X-94399Y-194380D01*
X-94392Y-194489D01*
X-94394Y-194599D01*
X-94382Y-194647D01*
X-94379Y-194697D01*
X-94345Y-194801D01*
X-94319Y-194908D01*
X-94296Y-194952D01*
X-94281Y-194999D01*
X-94222Y-195092D01*
X-94171Y-195189D01*
X-94137Y-195226D01*
X-94111Y-195268D01*
X-94031Y-195343D01*
X-93957Y-195425D01*
X-93915Y-195452D01*
X-93879Y-195486D01*
X-93783Y-195539D01*
X-93691Y-195599D01*
X-93644Y-195616D01*
X-93601Y-195640D01*
X-93494Y-195667D01*
X-93390Y-195703D01*
X-93341Y-195707D01*
X-93293Y-195719D01*
X-93132Y-195729D01*
X36769Y-195729D01*
X39271Y-198231D01*
X39271Y-383650D01*
X39286Y-383768D01*
X39293Y-383887D01*
X39306Y-383925D01*
X39311Y-383966D01*
X39354Y-384076D01*
X39391Y-384189D01*
X39413Y-384224D01*
X39428Y-384261D01*
X39497Y-384357D01*
X39561Y-384458D01*
X39591Y-384486D01*
X39614Y-384519D01*
X39706Y-384595D01*
X39793Y-384676D01*
X39828Y-384696D01*
X39859Y-384721D01*
X39967Y-384772D01*
X40071Y-384830D01*
X40111Y-384840D01*
X40147Y-384857D01*
X40264Y-384879D01*
X40379Y-384909D01*
X40439Y-384913D01*
X40459Y-384917D01*
X40480Y-384915D01*
X40540Y-384919D01*
X239098Y-384919D01*
X239196Y-384907D01*
X239295Y-384904D01*
X239394Y-384882D01*
X239414Y-384879D01*
X239425Y-384875D01*
X239452Y-384869D01*
X239557Y-384839D01*
X240212Y-384912D01*
X240226Y-384911D01*
X240352Y-384919D01*
X241041Y-384919D01*
X241086Y-384932D01*
X241220Y-384973D01*
X241247Y-384976D01*
X241258Y-384979D01*
X241278Y-384979D01*
X241380Y-384990D01*
X245731Y-385187D01*
X245775Y-385183D01*
X245819Y-385188D01*
X245979Y-385174D01*
G37*
G36*
X35118Y-384904D02*
X35118Y-384904D01*
X35237Y-384897D01*
X35275Y-384884D01*
X35316Y-384879D01*
X35426Y-384836D01*
X35539Y-384799D01*
X35574Y-384777D01*
X35611Y-384762D01*
X35707Y-384693D01*
X35808Y-384629D01*
X35836Y-384599D01*
X35869Y-384576D01*
X35945Y-384484D01*
X36026Y-384397D01*
X36046Y-384362D01*
X36071Y-384331D01*
X36122Y-384223D01*
X36180Y-384119D01*
X36190Y-384079D01*
X36207Y-384043D01*
X36229Y-383926D01*
X36259Y-383811D01*
X36263Y-383751D01*
X36267Y-383731D01*
X36265Y-383710D01*
X36269Y-383650D01*
X36269Y-200000D01*
X36254Y-199882D01*
X36247Y-199763D01*
X36234Y-199725D01*
X36229Y-199684D01*
X36186Y-199574D01*
X36149Y-199461D01*
X36127Y-199426D01*
X36112Y-199389D01*
X36043Y-199293D01*
X35979Y-199192D01*
X35949Y-199164D01*
X35926Y-199131D01*
X35834Y-199056D01*
X35747Y-198974D01*
X35712Y-198954D01*
X35681Y-198929D01*
X35573Y-198878D01*
X35469Y-198820D01*
X35429Y-198810D01*
X35393Y-198793D01*
X35276Y-198771D01*
X35161Y-198741D01*
X35101Y-198737D01*
X35081Y-198733D01*
X35060Y-198735D01*
X35000Y-198731D01*
X-101133Y-198731D01*
X-101231Y-198743D01*
X-101330Y-198746D01*
X-101388Y-198763D01*
X-101448Y-198771D01*
X-101541Y-198807D01*
X-101636Y-198835D01*
X-101688Y-198865D01*
X-101744Y-198888D01*
X-101824Y-198946D01*
X-101910Y-198996D01*
X-101985Y-199062D01*
X-102001Y-199074D01*
X-102009Y-199084D01*
X-102030Y-199103D01*
X-112167Y-209239D01*
X-114005Y-210001D01*
X-197225Y-210001D01*
X-199063Y-209239D01*
X-209200Y-199103D01*
X-209278Y-199042D01*
X-209350Y-198974D01*
X-209403Y-198945D01*
X-209451Y-198908D01*
X-209542Y-198868D01*
X-209628Y-198820D01*
X-209687Y-198805D01*
X-209743Y-198781D01*
X-209841Y-198766D01*
X-209936Y-198741D01*
X-210036Y-198735D01*
X-210057Y-198731D01*
X-210069Y-198733D01*
X-210097Y-198731D01*
X-225000Y-198731D01*
X-225118Y-198746D01*
X-225237Y-198753D01*
X-225275Y-198766D01*
X-225316Y-198771D01*
X-225426Y-198814D01*
X-225539Y-198851D01*
X-225574Y-198873D01*
X-225611Y-198888D01*
X-225707Y-198958D01*
X-225808Y-199021D01*
X-225836Y-199051D01*
X-225869Y-199074D01*
X-225945Y-199166D01*
X-226026Y-199253D01*
X-226046Y-199288D01*
X-226071Y-199319D01*
X-226122Y-199427D01*
X-226180Y-199531D01*
X-226190Y-199571D01*
X-226207Y-199607D01*
X-226229Y-199724D01*
X-226259Y-199839D01*
X-226263Y-199900D01*
X-226267Y-199920D01*
X-226265Y-199940D01*
X-226269Y-200000D01*
X-226269Y-220398D01*
X-226252Y-220536D01*
X-226239Y-220675D01*
X-226232Y-220694D01*
X-226229Y-220714D01*
X-226178Y-220843D01*
X-226131Y-220974D01*
X-226120Y-220991D01*
X-226112Y-221009D01*
X-226031Y-221122D01*
X-225953Y-221237D01*
X-225937Y-221250D01*
X-225926Y-221267D01*
X-225818Y-221356D01*
X-225714Y-221447D01*
X-225696Y-221457D01*
X-225681Y-221470D01*
X-225555Y-221529D01*
X-225431Y-221592D01*
X-225411Y-221596D01*
X-225393Y-221605D01*
X-225257Y-221631D01*
X-225121Y-221662D01*
X-225100Y-221661D01*
X-225081Y-221665D01*
X-224942Y-221656D01*
X-224803Y-221652D01*
X-224783Y-221646D01*
X-224763Y-221645D01*
X-224631Y-221602D01*
X-224497Y-221564D01*
X-224480Y-221553D01*
X-224461Y-221547D01*
X-224343Y-221473D01*
X-224223Y-221402D01*
X-224202Y-221383D01*
X-224192Y-221377D01*
X-224178Y-221362D01*
X-224103Y-221296D01*
X-223471Y-220664D01*
X-219597Y-219059D01*
X-215403Y-219059D01*
X-211529Y-220664D01*
X-208564Y-223629D01*
X-206959Y-227503D01*
X-206959Y-231697D01*
X-208564Y-235571D01*
X-211529Y-238536D01*
X-215403Y-240141D01*
X-219597Y-240141D01*
X-223471Y-238536D01*
X-224102Y-237904D01*
X-224212Y-237819D01*
X-224319Y-237730D01*
X-224338Y-237722D01*
X-224354Y-237709D01*
X-224482Y-237654D01*
X-224607Y-237595D01*
X-224627Y-237591D01*
X-224646Y-237583D01*
X-224784Y-237561D01*
X-224919Y-237535D01*
X-224940Y-237536D01*
X-224960Y-237533D01*
X-225099Y-237546D01*
X-225237Y-237555D01*
X-225256Y-237561D01*
X-225276Y-237563D01*
X-225407Y-237610D01*
X-225539Y-237653D01*
X-225557Y-237664D01*
X-225576Y-237671D01*
X-225690Y-237749D01*
X-225808Y-237823D01*
X-225822Y-237838D01*
X-225839Y-237849D01*
X-225931Y-237953D01*
X-226026Y-238055D01*
X-226036Y-238072D01*
X-226049Y-238088D01*
X-226112Y-238211D01*
X-226180Y-238333D01*
X-226185Y-238353D01*
X-226194Y-238371D01*
X-226224Y-238507D01*
X-226259Y-238641D01*
X-226261Y-238669D01*
X-226263Y-238681D01*
X-226263Y-238702D01*
X-226269Y-238802D01*
X-226269Y-245798D01*
X-226252Y-245936D01*
X-226239Y-246075D01*
X-226232Y-246094D01*
X-226229Y-246114D01*
X-226178Y-246243D01*
X-226131Y-246374D01*
X-226120Y-246391D01*
X-226112Y-246409D01*
X-226031Y-246522D01*
X-225953Y-246637D01*
X-225937Y-246650D01*
X-225926Y-246667D01*
X-225818Y-246756D01*
X-225714Y-246847D01*
X-225696Y-246857D01*
X-225681Y-246870D01*
X-225555Y-246929D01*
X-225431Y-246992D01*
X-225411Y-246996D01*
X-225393Y-247005D01*
X-225256Y-247031D01*
X-225121Y-247062D01*
X-225100Y-247061D01*
X-225080Y-247065D01*
X-224942Y-247056D01*
X-224803Y-247052D01*
X-224783Y-247046D01*
X-224763Y-247045D01*
X-224631Y-247002D01*
X-224497Y-246964D01*
X-224480Y-246953D01*
X-224461Y-246947D01*
X-224343Y-246873D01*
X-224223Y-246802D01*
X-224202Y-246783D01*
X-224192Y-246777D01*
X-224178Y-246762D01*
X-224102Y-246696D01*
X-223471Y-246064D01*
X-219597Y-244459D01*
X-215403Y-244459D01*
X-211529Y-246064D01*
X-208564Y-249029D01*
X-206959Y-252903D01*
X-206959Y-257097D01*
X-208564Y-260971D01*
X-211529Y-263936D01*
X-215403Y-265541D01*
X-219597Y-265541D01*
X-223471Y-263936D01*
X-224102Y-263304D01*
X-224212Y-263219D01*
X-224319Y-263130D01*
X-224338Y-263122D01*
X-224354Y-263109D01*
X-224482Y-263054D01*
X-224607Y-262995D01*
X-224627Y-262991D01*
X-224646Y-262983D01*
X-224784Y-262961D01*
X-224919Y-262935D01*
X-224940Y-262936D01*
X-224960Y-262933D01*
X-225099Y-262946D01*
X-225237Y-262955D01*
X-225256Y-262961D01*
X-225276Y-262963D01*
X-225407Y-263010D01*
X-225539Y-263053D01*
X-225557Y-263064D01*
X-225576Y-263071D01*
X-225690Y-263149D01*
X-225808Y-263223D01*
X-225822Y-263238D01*
X-225839Y-263249D01*
X-225931Y-263353D01*
X-226026Y-263455D01*
X-226036Y-263472D01*
X-226049Y-263488D01*
X-226112Y-263611D01*
X-226180Y-263733D01*
X-226185Y-263753D01*
X-226194Y-263771D01*
X-226224Y-263907D01*
X-226259Y-264041D01*
X-226261Y-264069D01*
X-226263Y-264081D01*
X-226263Y-264102D01*
X-226269Y-264202D01*
X-226269Y-268590D01*
X-226254Y-268708D01*
X-226247Y-268827D01*
X-226234Y-268865D01*
X-226229Y-268906D01*
X-226186Y-269016D01*
X-226149Y-269129D01*
X-226127Y-269164D01*
X-226112Y-269201D01*
X-226042Y-269297D01*
X-225979Y-269398D01*
X-225949Y-269426D01*
X-225926Y-269459D01*
X-225834Y-269535D01*
X-225747Y-269616D01*
X-225712Y-269636D01*
X-225681Y-269661D01*
X-225573Y-269712D01*
X-225469Y-269770D01*
X-225429Y-269780D01*
X-225393Y-269797D01*
X-225276Y-269819D01*
X-225161Y-269849D01*
X-225100Y-269853D01*
X-225080Y-269857D01*
X-225060Y-269855D01*
X-225000Y-269859D01*
X-208717Y-269859D01*
X-206959Y-271617D01*
X-206959Y-280514D01*
X-206947Y-280613D01*
X-206944Y-280712D01*
X-206927Y-280770D01*
X-206919Y-280830D01*
X-206883Y-280922D01*
X-206855Y-281017D01*
X-206825Y-281069D01*
X-206802Y-281126D01*
X-206744Y-281206D01*
X-206694Y-281291D01*
X-206628Y-281367D01*
X-206616Y-281383D01*
X-206606Y-281391D01*
X-206588Y-281412D01*
X-205315Y-282684D01*
X-204249Y-285257D01*
X-204249Y-368649D01*
X-204237Y-368747D01*
X-204234Y-368846D01*
X-204217Y-368905D01*
X-204209Y-368965D01*
X-204173Y-369057D01*
X-204145Y-369152D01*
X-204115Y-369204D01*
X-204092Y-369260D01*
X-204034Y-369340D01*
X-203984Y-369426D01*
X-203918Y-369501D01*
X-203906Y-369518D01*
X-203896Y-369525D01*
X-203878Y-369547D01*
X-200797Y-372628D01*
X-200718Y-372688D01*
X-200646Y-372756D01*
X-200593Y-372785D01*
X-200545Y-372822D01*
X-200454Y-372862D01*
X-200368Y-372910D01*
X-200309Y-372925D01*
X-200253Y-372949D01*
X-200155Y-372964D01*
X-200060Y-372989D01*
X-199960Y-372995D01*
X-199939Y-372999D01*
X-199927Y-372997D01*
X-199899Y-372999D01*
X11393Y-372999D01*
X13966Y-374065D01*
X15935Y-376034D01*
X17001Y-378607D01*
X17001Y-381393D01*
X16267Y-383164D01*
X16254Y-383212D01*
X16233Y-383257D01*
X16212Y-383365D01*
X16183Y-383471D01*
X16182Y-383521D01*
X16173Y-383570D01*
X16180Y-383679D01*
X16178Y-383789D01*
X16189Y-383837D01*
X16193Y-383887D01*
X16226Y-383991D01*
X16252Y-384098D01*
X16275Y-384142D01*
X16291Y-384189D01*
X16349Y-384282D01*
X16401Y-384379D01*
X16434Y-384416D01*
X16461Y-384458D01*
X16541Y-384533D01*
X16615Y-384615D01*
X16656Y-384642D01*
X16692Y-384676D01*
X16789Y-384729D01*
X16880Y-384789D01*
X16927Y-384806D01*
X16971Y-384830D01*
X17077Y-384857D01*
X17181Y-384893D01*
X17231Y-384897D01*
X17279Y-384909D01*
X17439Y-384919D01*
X35000Y-384919D01*
X35118Y-384904D01*
G37*
G36*
X-241380Y-384990D02*
X-241380Y-384990D01*
X-241242Y-384966D01*
X-241104Y-384947D01*
X-241078Y-384938D01*
X-241066Y-384936D01*
X-241048Y-384928D01*
X-241023Y-384919D01*
X-240352Y-384919D01*
X-240337Y-384917D01*
X-240212Y-384912D01*
X-239557Y-384839D01*
X-239452Y-384869D01*
X-239354Y-384884D01*
X-239259Y-384909D01*
X-239158Y-384916D01*
X-239138Y-384919D01*
X-239126Y-384918D01*
X-239098Y-384919D01*
X-230540Y-384919D01*
X-230422Y-384904D01*
X-230303Y-384897D01*
X-230265Y-384884D01*
X-230224Y-384879D01*
X-230114Y-384836D01*
X-230001Y-384799D01*
X-229966Y-384777D01*
X-229929Y-384762D01*
X-229833Y-384693D01*
X-229732Y-384629D01*
X-229704Y-384599D01*
X-229671Y-384576D01*
X-229595Y-384484D01*
X-229514Y-384397D01*
X-229494Y-384362D01*
X-229469Y-384331D01*
X-229418Y-384223D01*
X-229360Y-384119D01*
X-229350Y-384079D01*
X-229333Y-384043D01*
X-229311Y-383926D01*
X-229281Y-383811D01*
X-229277Y-383751D01*
X-229273Y-383731D01*
X-229275Y-383710D01*
X-229271Y-383650D01*
X-229271Y-206290D01*
X-229286Y-206172D01*
X-229293Y-206053D01*
X-229306Y-206015D01*
X-229311Y-205974D01*
X-229354Y-205864D01*
X-229391Y-205751D01*
X-229413Y-205716D01*
X-229428Y-205679D01*
X-229497Y-205583D01*
X-229561Y-205482D01*
X-229591Y-205454D01*
X-229614Y-205421D01*
X-229706Y-205345D01*
X-229793Y-205264D01*
X-229828Y-205244D01*
X-229859Y-205219D01*
X-229967Y-205168D01*
X-230071Y-205110D01*
X-230111Y-205100D01*
X-230147Y-205083D01*
X-230264Y-205061D01*
X-230379Y-205031D01*
X-230439Y-205027D01*
X-230459Y-205023D01*
X-230480Y-205025D01*
X-230540Y-205021D01*
X-269571Y-205021D01*
X-272512Y-203803D01*
X-274941Y-201374D01*
X-282753Y-193562D01*
X-282862Y-193477D01*
X-282969Y-193388D01*
X-282988Y-193380D01*
X-283004Y-193367D01*
X-283132Y-193312D01*
X-283257Y-193253D01*
X-283277Y-193249D01*
X-283296Y-193241D01*
X-283434Y-193219D01*
X-283570Y-193193D01*
X-283590Y-193194D01*
X-283610Y-193191D01*
X-283749Y-193204D01*
X-283887Y-193213D01*
X-283906Y-193219D01*
X-283926Y-193221D01*
X-284058Y-193268D01*
X-284189Y-193311D01*
X-284207Y-193322D01*
X-284226Y-193328D01*
X-284341Y-193407D01*
X-284458Y-193481D01*
X-284472Y-193496D01*
X-284489Y-193507D01*
X-284581Y-193611D01*
X-284676Y-193713D01*
X-284686Y-193730D01*
X-284699Y-193745D01*
X-284763Y-193870D01*
X-284830Y-193991D01*
X-284835Y-194011D01*
X-284844Y-194029D01*
X-284874Y-194165D01*
X-284909Y-194299D01*
X-284911Y-194327D01*
X-284914Y-194339D01*
X-284913Y-194359D01*
X-284919Y-194460D01*
X-284919Y-349517D01*
X-284915Y-349548D01*
X-284918Y-349579D01*
X-284900Y-349739D01*
X-284046Y-354534D01*
X-284033Y-354577D01*
X-284028Y-354620D01*
X-283979Y-354774D01*
X-280281Y-364239D01*
X-280240Y-364314D01*
X-280208Y-364394D01*
X-280134Y-364509D01*
X-280129Y-364518D01*
X-280126Y-364522D01*
X-280121Y-364529D01*
X-274099Y-372715D01*
X-274040Y-372777D01*
X-273989Y-372845D01*
X-273888Y-372938D01*
X-273880Y-372945D01*
X-273877Y-372948D01*
X-273870Y-372954D01*
X-265935Y-379302D01*
X-265862Y-379347D01*
X-265794Y-379400D01*
X-265673Y-379462D01*
X-265663Y-379468D01*
X-265659Y-379469D01*
X-265651Y-379473D01*
X-256343Y-383551D01*
X-256261Y-383576D01*
X-256182Y-383609D01*
X-256049Y-383639D01*
X-256038Y-383642D01*
X-256034Y-383642D01*
X-256025Y-383644D01*
X-245979Y-385174D01*
X-245935Y-385175D01*
X-245892Y-385184D01*
X-245731Y-385187D01*
X-241380Y-384990D01*
G37*
%LPC*%
G36*
X38651Y-111783D02*
X38651Y-111783D01*
X36158Y-110750D01*
X34250Y-108842D01*
X33217Y-106349D01*
X33217Y-103651D01*
X34250Y-101158D01*
X36158Y-99250D01*
X37552Y-98673D01*
X37673Y-98604D01*
X37795Y-98539D01*
X37810Y-98525D01*
X37828Y-98515D01*
X37928Y-98418D01*
X38031Y-98325D01*
X38042Y-98308D01*
X38056Y-98294D01*
X38129Y-98175D01*
X38205Y-98059D01*
X38212Y-98040D01*
X38222Y-98023D01*
X38263Y-97890D01*
X38308Y-97758D01*
X38310Y-97738D01*
X38316Y-97719D01*
X38323Y-97580D01*
X38334Y-97441D01*
X38330Y-97421D01*
X38331Y-97401D01*
X38303Y-97265D01*
X38279Y-97128D01*
X38271Y-97109D01*
X38267Y-97090D01*
X38206Y-96964D01*
X38149Y-96838D01*
X38136Y-96822D01*
X38127Y-96804D01*
X38037Y-96698D01*
X37950Y-96590D01*
X37934Y-96577D01*
X37921Y-96562D01*
X37807Y-96482D01*
X37696Y-96398D01*
X37671Y-96386D01*
X37661Y-96379D01*
X37642Y-96372D01*
X37551Y-96327D01*
X36158Y-95750D01*
X34250Y-93842D01*
X33217Y-91349D01*
X33217Y-88651D01*
X34250Y-86158D01*
X36158Y-84250D01*
X38651Y-83217D01*
X41349Y-83217D01*
X43842Y-84250D01*
X44220Y-84628D01*
X44298Y-84688D01*
X44370Y-84756D01*
X44423Y-84785D01*
X44471Y-84822D01*
X44562Y-84862D01*
X44649Y-84910D01*
X44707Y-84925D01*
X44763Y-84949D01*
X44861Y-84964D01*
X44957Y-84989D01*
X45057Y-84995D01*
X45077Y-84999D01*
X45089Y-84997D01*
X45117Y-84999D01*
X82403Y-84999D01*
X82501Y-84987D01*
X82600Y-84984D01*
X82658Y-84967D01*
X82718Y-84959D01*
X82811Y-84923D01*
X82906Y-84895D01*
X82958Y-84865D01*
X83014Y-84842D01*
X83094Y-84784D01*
X83180Y-84734D01*
X83255Y-84668D01*
X83271Y-84656D01*
X83279Y-84646D01*
X83300Y-84628D01*
X89628Y-78300D01*
X89688Y-78222D01*
X89756Y-78150D01*
X89785Y-78097D01*
X89822Y-78049D01*
X89862Y-77958D01*
X89910Y-77871D01*
X89925Y-77813D01*
X89949Y-77757D01*
X89964Y-77659D01*
X89989Y-77564D01*
X89995Y-77464D01*
X89999Y-77443D01*
X89997Y-77431D01*
X89999Y-77403D01*
X89999Y29883D01*
X89987Y29981D01*
X89984Y30080D01*
X89967Y30138D01*
X89959Y30198D01*
X89923Y30290D01*
X89895Y30385D01*
X89865Y30438D01*
X89842Y30494D01*
X89784Y30574D01*
X89734Y30659D01*
X89668Y30735D01*
X89656Y30751D01*
X89646Y30759D01*
X89628Y30780D01*
X89250Y31158D01*
X88217Y33651D01*
X88217Y36349D01*
X89250Y38842D01*
X91158Y40750D01*
X93651Y41783D01*
X96349Y41783D01*
X98842Y40750D01*
X100750Y38842D01*
X101327Y37448D01*
X101396Y37327D01*
X101461Y37205D01*
X101475Y37190D01*
X101485Y37172D01*
X101582Y37072D01*
X101675Y36969D01*
X101692Y36958D01*
X101706Y36944D01*
X101825Y36871D01*
X101941Y36795D01*
X101960Y36788D01*
X101977Y36778D01*
X102110Y36737D01*
X102242Y36692D01*
X102262Y36690D01*
X102281Y36684D01*
X102420Y36677D01*
X102559Y36666D01*
X102579Y36670D01*
X102599Y36669D01*
X102735Y36697D01*
X102872Y36721D01*
X102891Y36729D01*
X102910Y36733D01*
X103036Y36794D01*
X103162Y36851D01*
X103178Y36864D01*
X103196Y36873D01*
X103302Y36963D01*
X103410Y37050D01*
X103423Y37066D01*
X103438Y37079D01*
X103518Y37193D01*
X103602Y37304D01*
X103614Y37329D01*
X103621Y37339D01*
X103628Y37358D01*
X103673Y37449D01*
X104250Y38842D01*
X106158Y40750D01*
X108651Y41783D01*
X111349Y41783D01*
X113842Y40750D01*
X115750Y38842D01*
X116783Y36349D01*
X116783Y33651D01*
X115750Y31158D01*
X115372Y30780D01*
X115312Y30702D01*
X115244Y30630D01*
X115215Y30577D01*
X115178Y30529D01*
X115138Y30438D01*
X115090Y30351D01*
X115075Y30293D01*
X115051Y30237D01*
X115036Y30139D01*
X115011Y30043D01*
X115005Y29944D01*
X115003Y29937D01*
X115003Y29936D01*
X115001Y29923D01*
X115003Y29911D01*
X115001Y29883D01*
X115001Y-85995D01*
X114239Y-87833D01*
X92833Y-109239D01*
X90995Y-110001D01*
X45117Y-110001D01*
X45019Y-110013D01*
X44920Y-110016D01*
X44862Y-110033D01*
X44802Y-110041D01*
X44710Y-110077D01*
X44615Y-110105D01*
X44562Y-110135D01*
X44506Y-110158D01*
X44426Y-110216D01*
X44341Y-110266D01*
X44265Y-110332D01*
X44249Y-110344D01*
X44241Y-110354D01*
X44220Y-110372D01*
X43842Y-110750D01*
X41349Y-111783D01*
X38651Y-111783D01*
G37*
%LPD*%
%LPC*%
G36*
X59901Y168217D02*
X59901Y168217D01*
X57408Y169250D01*
X55500Y171158D01*
X54467Y173651D01*
X54467Y176349D01*
X55500Y178842D01*
X57408Y180750D01*
X59901Y181783D01*
X60435Y181783D01*
X60533Y181795D01*
X60632Y181798D01*
X60690Y181815D01*
X60750Y181823D01*
X60842Y181859D01*
X60938Y181887D01*
X60990Y181917D01*
X61046Y181940D01*
X61126Y181998D01*
X61212Y182048D01*
X61287Y182114D01*
X61303Y182126D01*
X61311Y182136D01*
X61332Y182154D01*
X62128Y182950D01*
X62188Y183028D01*
X62256Y183100D01*
X62285Y183153D01*
X62322Y183201D01*
X62362Y183292D01*
X62410Y183379D01*
X62425Y183437D01*
X62449Y183493D01*
X62464Y183591D01*
X62489Y183686D01*
X62495Y183786D01*
X62499Y183807D01*
X62497Y183819D01*
X62499Y183847D01*
X62499Y252846D01*
X62496Y252875D01*
X62498Y252905D01*
X62476Y253033D01*
X62459Y253162D01*
X62449Y253189D01*
X62444Y253218D01*
X62390Y253337D01*
X62342Y253457D01*
X62325Y253481D01*
X62313Y253508D01*
X62232Y253609D01*
X62156Y253715D01*
X62133Y253734D01*
X62114Y253757D01*
X62011Y253835D01*
X61911Y253918D01*
X61884Y253930D01*
X61860Y253948D01*
X61716Y254019D01*
X61158Y254250D01*
X59250Y256158D01*
X58217Y258651D01*
X58217Y258730D01*
X58202Y258848D01*
X58195Y258967D01*
X58182Y259005D01*
X58177Y259046D01*
X58134Y259156D01*
X58097Y259269D01*
X58075Y259304D01*
X58060Y259341D01*
X57991Y259437D01*
X57927Y259538D01*
X57897Y259566D01*
X57874Y259599D01*
X57782Y259675D01*
X57695Y259756D01*
X57660Y259776D01*
X57629Y259801D01*
X57521Y259852D01*
X57417Y259910D01*
X57377Y259920D01*
X57341Y259937D01*
X57224Y259959D01*
X57109Y259989D01*
X57049Y259993D01*
X57029Y259997D01*
X57008Y259995D01*
X56948Y259999D01*
X26270Y259999D01*
X26152Y259984D01*
X26033Y259977D01*
X25995Y259964D01*
X25954Y259959D01*
X25844Y259916D01*
X25731Y259879D01*
X25696Y259857D01*
X25659Y259842D01*
X25563Y259773D01*
X25462Y259709D01*
X25434Y259679D01*
X25401Y259656D01*
X25325Y259564D01*
X25244Y259477D01*
X25224Y259442D01*
X25199Y259411D01*
X25148Y259303D01*
X25090Y259199D01*
X25080Y259159D01*
X25063Y259123D01*
X25041Y259006D01*
X25011Y258891D01*
X25007Y258831D01*
X25003Y258811D01*
X25005Y258790D01*
X25001Y258730D01*
X25001Y250117D01*
X25013Y250019D01*
X25016Y249920D01*
X25033Y249862D01*
X25041Y249802D01*
X25077Y249710D01*
X25105Y249614D01*
X25135Y249562D01*
X25158Y249506D01*
X25216Y249426D01*
X25266Y249341D01*
X25332Y249265D01*
X25344Y249249D01*
X25354Y249241D01*
X25373Y249220D01*
X25750Y248842D01*
X26783Y246349D01*
X26783Y243651D01*
X25750Y241158D01*
X23842Y239250D01*
X21349Y238217D01*
X18651Y238217D01*
X16158Y239250D01*
X14250Y241158D01*
X13217Y243651D01*
X13217Y246349D01*
X14250Y248842D01*
X14627Y249220D01*
X14688Y249298D01*
X14756Y249370D01*
X14785Y249423D01*
X14822Y249471D01*
X14862Y249562D01*
X14910Y249649D01*
X14925Y249707D01*
X14949Y249763D01*
X14964Y249861D01*
X14989Y249957D01*
X14995Y250057D01*
X14999Y250077D01*
X14997Y250089D01*
X14999Y250117D01*
X14999Y314883D01*
X14987Y314981D01*
X14984Y315080D01*
X14967Y315138D01*
X14959Y315198D01*
X14923Y315290D01*
X14895Y315385D01*
X14865Y315438D01*
X14842Y315494D01*
X14784Y315574D01*
X14734Y315659D01*
X14668Y315735D01*
X14656Y315751D01*
X14646Y315759D01*
X14628Y315780D01*
X14250Y316158D01*
X13217Y318651D01*
X13217Y321349D01*
X14250Y323842D01*
X16158Y325750D01*
X18651Y326783D01*
X21349Y326783D01*
X23842Y325750D01*
X25750Y323842D01*
X26783Y321349D01*
X26783Y318651D01*
X25750Y316158D01*
X25372Y315780D01*
X25312Y315702D01*
X25244Y315630D01*
X25215Y315577D01*
X25178Y315529D01*
X25138Y315438D01*
X25090Y315351D01*
X25075Y315293D01*
X25051Y315237D01*
X25036Y315139D01*
X25011Y315043D01*
X25005Y314943D01*
X25001Y314923D01*
X25003Y314911D01*
X25001Y314883D01*
X25001Y271270D01*
X25016Y271152D01*
X25023Y271033D01*
X25036Y270995D01*
X25041Y270954D01*
X25084Y270844D01*
X25121Y270731D01*
X25143Y270696D01*
X25158Y270659D01*
X25227Y270563D01*
X25291Y270462D01*
X25321Y270434D01*
X25344Y270401D01*
X25436Y270325D01*
X25523Y270244D01*
X25558Y270224D01*
X25589Y270199D01*
X25697Y270148D01*
X25801Y270090D01*
X25841Y270080D01*
X25877Y270063D01*
X25994Y270041D01*
X26109Y270011D01*
X26169Y270007D01*
X26189Y270003D01*
X26210Y270005D01*
X26270Y270001D01*
X60995Y270001D01*
X62833Y269239D01*
X64918Y267154D01*
X64996Y267094D01*
X65068Y267026D01*
X65121Y266997D01*
X65169Y266960D01*
X65260Y266920D01*
X65347Y266872D01*
X65405Y266857D01*
X65461Y266833D01*
X65559Y266818D01*
X65654Y266793D01*
X65754Y266787D01*
X65775Y266783D01*
X65787Y266785D01*
X65815Y266783D01*
X66349Y266783D01*
X68842Y265750D01*
X70750Y263842D01*
X71783Y261349D01*
X71783Y260481D01*
X71784Y260471D01*
X71783Y260462D01*
X71804Y260313D01*
X71823Y260165D01*
X71826Y260156D01*
X71827Y260147D01*
X71879Y259995D01*
X72501Y258495D01*
X72501Y180255D01*
X71739Y178417D01*
X68404Y175082D01*
X68344Y175004D01*
X68276Y174932D01*
X68247Y174879D01*
X68210Y174831D01*
X68170Y174740D01*
X68122Y174653D01*
X68107Y174595D01*
X68083Y174539D01*
X68068Y174441D01*
X68043Y174346D01*
X68037Y174246D01*
X68033Y174225D01*
X68035Y174213D01*
X68033Y174185D01*
X68033Y173651D01*
X67000Y171158D01*
X65092Y169250D01*
X62599Y168217D01*
X59901Y168217D01*
G37*
%LPD*%
%LPC*%
G36*
X82505Y165717D02*
X82505Y165717D01*
X80012Y166750D01*
X78104Y168658D01*
X77071Y171151D01*
X77071Y173849D01*
X78104Y176342D01*
X80012Y178250D01*
X82505Y179283D01*
X84311Y179283D01*
X84449Y179300D01*
X84587Y179313D01*
X84606Y179320D01*
X84626Y179323D01*
X84755Y179374D01*
X84886Y179421D01*
X84903Y179432D01*
X84922Y179440D01*
X85034Y179521D01*
X85150Y179599D01*
X85163Y179615D01*
X85179Y179626D01*
X85268Y179734D01*
X85360Y179838D01*
X85369Y179856D01*
X85382Y179871D01*
X85441Y179997D01*
X85505Y180121D01*
X85509Y180141D01*
X85518Y180159D01*
X85544Y180296D01*
X85574Y180431D01*
X85574Y180452D01*
X85578Y180471D01*
X85569Y180610D01*
X85565Y180749D01*
X85559Y180769D01*
X85558Y180789D01*
X85515Y180921D01*
X85476Y181055D01*
X85466Y181072D01*
X85460Y181091D01*
X85385Y181209D01*
X85315Y181329D01*
X85296Y181350D01*
X85290Y181360D01*
X85275Y181374D01*
X85208Y181449D01*
X84250Y182408D01*
X83217Y184901D01*
X83217Y187599D01*
X84250Y190092D01*
X84628Y190470D01*
X84688Y190548D01*
X84756Y190620D01*
X84785Y190673D01*
X84822Y190721D01*
X84862Y190812D01*
X84910Y190899D01*
X84925Y190957D01*
X84949Y191013D01*
X84964Y191111D01*
X84989Y191207D01*
X84995Y191307D01*
X84999Y191327D01*
X84997Y191339D01*
X84999Y191367D01*
X84999Y234883D01*
X84987Y234981D01*
X84984Y235080D01*
X84967Y235138D01*
X84959Y235198D01*
X84923Y235290D01*
X84895Y235385D01*
X84865Y235438D01*
X84842Y235494D01*
X84784Y235574D01*
X84734Y235659D01*
X84668Y235735D01*
X84656Y235751D01*
X84646Y235759D01*
X84628Y235780D01*
X84250Y236158D01*
X83217Y238651D01*
X83217Y241349D01*
X84250Y243842D01*
X86158Y245750D01*
X88651Y246783D01*
X91349Y246783D01*
X91707Y246634D01*
X91841Y246598D01*
X91974Y246557D01*
X91995Y246556D01*
X92014Y246550D01*
X92153Y246548D01*
X92292Y246542D01*
X92312Y246546D01*
X92332Y246545D01*
X92467Y246578D01*
X92603Y246606D01*
X92622Y246615D01*
X92641Y246620D01*
X92764Y246685D01*
X92889Y246746D01*
X92904Y246759D01*
X92922Y246768D01*
X93025Y246862D01*
X93131Y246952D01*
X93143Y246969D01*
X93158Y246982D01*
X93234Y247098D01*
X93314Y247212D01*
X93321Y247231D01*
X93332Y247248D01*
X93378Y247379D01*
X93427Y247509D01*
X93429Y247530D01*
X93436Y247549D01*
X93447Y247687D01*
X93462Y247826D01*
X93459Y247846D01*
X93461Y247866D01*
X93437Y248002D01*
X93418Y248140D01*
X93409Y248167D01*
X93406Y248179D01*
X93398Y248197D01*
X93366Y248293D01*
X93217Y248651D01*
X93217Y251349D01*
X94250Y253842D01*
X96158Y255750D01*
X98651Y256783D01*
X101349Y256783D01*
X103842Y255750D01*
X105750Y253842D01*
X106783Y251349D01*
X106783Y248651D01*
X105750Y246158D01*
X105372Y245780D01*
X105312Y245702D01*
X105244Y245630D01*
X105215Y245577D01*
X105178Y245529D01*
X105138Y245438D01*
X105090Y245351D01*
X105075Y245293D01*
X105051Y245237D01*
X105036Y245139D01*
X105011Y245043D01*
X105005Y244943D01*
X105001Y244923D01*
X105003Y244911D01*
X105001Y244883D01*
X105001Y176401D01*
X104239Y174563D01*
X102654Y172978D01*
X99522Y169846D01*
X97937Y168261D01*
X96099Y167499D01*
X88971Y167499D01*
X88873Y167487D01*
X88774Y167484D01*
X88716Y167467D01*
X88656Y167459D01*
X88564Y167423D01*
X88469Y167395D01*
X88416Y167365D01*
X88360Y167342D01*
X88280Y167284D01*
X88195Y167234D01*
X88119Y167168D01*
X88103Y167156D01*
X88095Y167146D01*
X88074Y167128D01*
X87696Y166750D01*
X85203Y165717D01*
X82505Y165717D01*
G37*
%LPD*%
%LPC*%
G36*
X-146989Y-145001D02*
X-146989Y-145001D01*
X-150665Y-143478D01*
X-153478Y-140665D01*
X-155001Y-136989D01*
X-155001Y-132950D01*
X-155001Y-132949D01*
X-154966Y-132823D01*
X-154966Y-132794D01*
X-154959Y-132765D01*
X-154963Y-132635D01*
X-154961Y-132505D01*
X-154968Y-132477D01*
X-154969Y-132447D01*
X-155005Y-132322D01*
X-155035Y-132196D01*
X-155049Y-132170D01*
X-155057Y-132142D01*
X-155123Y-132030D01*
X-155184Y-131915D01*
X-155204Y-131893D01*
X-155219Y-131868D01*
X-155325Y-131747D01*
X-169239Y-117833D01*
X-170001Y-115995D01*
X-170001Y-70255D01*
X-169239Y-68417D01*
X-152154Y-51332D01*
X-152094Y-51254D01*
X-152026Y-51182D01*
X-151997Y-51129D01*
X-151960Y-51081D01*
X-151920Y-50990D01*
X-151872Y-50903D01*
X-151857Y-50845D01*
X-151833Y-50789D01*
X-151818Y-50691D01*
X-151793Y-50596D01*
X-151787Y-50496D01*
X-151783Y-50475D01*
X-151785Y-50463D01*
X-151783Y-50435D01*
X-151783Y-49901D01*
X-150750Y-47408D01*
X-148842Y-45500D01*
X-146349Y-44467D01*
X-143651Y-44467D01*
X-141158Y-45500D01*
X-139250Y-47408D01*
X-138217Y-49901D01*
X-138217Y-52599D01*
X-139250Y-55092D01*
X-141158Y-57000D01*
X-143651Y-58033D01*
X-144185Y-58033D01*
X-144283Y-58045D01*
X-144382Y-58048D01*
X-144440Y-58065D01*
X-144500Y-58073D01*
X-144592Y-58109D01*
X-144688Y-58137D01*
X-144740Y-58167D01*
X-144796Y-58190D01*
X-144876Y-58248D01*
X-144962Y-58298D01*
X-145037Y-58364D01*
X-145053Y-58376D01*
X-145061Y-58386D01*
X-145082Y-58404D01*
X-159628Y-72950D01*
X-159688Y-73028D01*
X-159756Y-73100D01*
X-159785Y-73153D01*
X-159822Y-73201D01*
X-159862Y-73292D01*
X-159910Y-73379D01*
X-159925Y-73437D01*
X-159949Y-73493D01*
X-159964Y-73591D01*
X-159989Y-73686D01*
X-159995Y-73786D01*
X-159999Y-73807D01*
X-159997Y-73819D01*
X-159999Y-73847D01*
X-159999Y-112403D01*
X-159987Y-112501D01*
X-159984Y-112600D01*
X-159967Y-112658D01*
X-159959Y-112718D01*
X-159923Y-112810D01*
X-159895Y-112906D01*
X-159865Y-112958D01*
X-159842Y-113014D01*
X-159784Y-113094D01*
X-159734Y-113180D01*
X-159668Y-113255D01*
X-159656Y-113271D01*
X-159646Y-113279D01*
X-159628Y-113300D01*
X-157167Y-115760D01*
X-157080Y-115828D01*
X-157042Y-115864D01*
X-157022Y-115875D01*
X-156951Y-115934D01*
X-156932Y-115943D01*
X-156916Y-115955D01*
X-156788Y-116011D01*
X-156663Y-116070D01*
X-156643Y-116074D01*
X-156624Y-116082D01*
X-156486Y-116104D01*
X-156350Y-116130D01*
X-156330Y-116128D01*
X-156310Y-116132D01*
X-156171Y-116118D01*
X-156033Y-116110D01*
X-156014Y-116104D01*
X-155994Y-116102D01*
X-155862Y-116055D01*
X-155731Y-116012D01*
X-155713Y-116001D01*
X-155694Y-115994D01*
X-155579Y-115916D01*
X-155462Y-115842D01*
X-155448Y-115827D01*
X-155431Y-115816D01*
X-155339Y-115711D01*
X-155244Y-115610D01*
X-155234Y-115592D01*
X-155221Y-115577D01*
X-155157Y-115453D01*
X-155090Y-115332D01*
X-155085Y-115312D01*
X-155076Y-115294D01*
X-155046Y-115158D01*
X-155011Y-115024D01*
X-155009Y-114996D01*
X-155006Y-114984D01*
X-155007Y-114963D01*
X-155005Y-114926D01*
X-155003Y-114918D01*
X-155004Y-114911D01*
X-155001Y-114863D01*
X-155001Y-113011D01*
X-153478Y-109335D01*
X-150665Y-106522D01*
X-146989Y-104999D01*
X-143011Y-104999D01*
X-139335Y-106522D01*
X-136522Y-109335D01*
X-134999Y-113011D01*
X-134999Y-116989D01*
X-136522Y-120665D01*
X-139335Y-123478D01*
X-140178Y-123827D01*
X-140237Y-123861D01*
X-140284Y-123880D01*
X-140329Y-123912D01*
X-140422Y-123961D01*
X-140437Y-123975D01*
X-140454Y-123985D01*
X-140529Y-124057D01*
X-140541Y-124066D01*
X-140554Y-124081D01*
X-140657Y-124175D01*
X-140668Y-124192D01*
X-140683Y-124206D01*
X-140755Y-124325D01*
X-140832Y-124441D01*
X-140838Y-124460D01*
X-140849Y-124477D01*
X-140890Y-124610D01*
X-140935Y-124742D01*
X-140937Y-124762D01*
X-140943Y-124781D01*
X-140949Y-124920D01*
X-140960Y-125059D01*
X-140957Y-125079D01*
X-140958Y-125099D01*
X-140930Y-125235D01*
X-140906Y-125372D01*
X-140897Y-125391D01*
X-140893Y-125410D01*
X-140832Y-125535D01*
X-140775Y-125662D01*
X-140763Y-125678D01*
X-140754Y-125696D01*
X-140664Y-125802D01*
X-140577Y-125910D01*
X-140560Y-125923D01*
X-140547Y-125938D01*
X-140434Y-126018D01*
X-140323Y-126102D01*
X-140297Y-126114D01*
X-140287Y-126121D01*
X-140268Y-126128D01*
X-140178Y-126173D01*
X-139335Y-126522D01*
X-136522Y-129335D01*
X-134999Y-133011D01*
X-134999Y-136989D01*
X-136522Y-140665D01*
X-139335Y-143478D01*
X-143011Y-145001D01*
X-146989Y-145001D01*
G37*
%LPD*%
%LPC*%
G36*
X-126492Y72499D02*
X-126492Y72499D01*
X-129249Y73641D01*
X-131359Y75751D01*
X-132501Y78508D01*
X-132501Y81492D01*
X-131359Y84249D01*
X-129249Y86359D01*
X-126492Y87501D01*
X-87383Y87501D01*
X-87284Y87513D01*
X-87185Y87516D01*
X-87127Y87533D01*
X-87067Y87541D01*
X-86975Y87577D01*
X-86880Y87605D01*
X-86828Y87635D01*
X-86771Y87658D01*
X-86691Y87716D01*
X-86606Y87766D01*
X-86531Y87832D01*
X-86514Y87844D01*
X-86506Y87854D01*
X-86485Y87872D01*
X-60499Y113859D01*
X-57742Y115001D01*
X-48508Y115001D01*
X-45751Y113859D01*
X-43641Y111749D01*
X-42499Y108992D01*
X-42499Y106008D01*
X-43641Y103251D01*
X-45751Y101141D01*
X-48508Y99999D01*
X-52617Y99999D01*
X-52716Y99987D01*
X-52815Y99984D01*
X-52873Y99967D01*
X-52933Y99959D01*
X-53025Y99923D01*
X-53120Y99895D01*
X-53172Y99865D01*
X-53229Y99842D01*
X-53309Y99784D01*
X-53394Y99734D01*
X-53469Y99668D01*
X-53486Y99656D01*
X-53494Y99646D01*
X-53515Y99628D01*
X-79501Y73641D01*
X-82258Y72499D01*
X-126492Y72499D01*
G37*
%LPD*%
%LPC*%
G36*
X63651Y-66783D02*
X63651Y-66783D01*
X61158Y-65750D01*
X59250Y-63842D01*
X58217Y-61349D01*
X58217Y-58651D01*
X59250Y-56158D01*
X59628Y-55780D01*
X59688Y-55702D01*
X59756Y-55630D01*
X59785Y-55577D01*
X59822Y-55529D01*
X59862Y-55438D01*
X59910Y-55351D01*
X59925Y-55293D01*
X59949Y-55237D01*
X59964Y-55139D01*
X59989Y-55043D01*
X59995Y-54943D01*
X59999Y-54923D01*
X59997Y-54911D01*
X59999Y-54883D01*
X59999Y-10117D01*
X59987Y-10019D01*
X59984Y-9920D01*
X59967Y-9862D01*
X59959Y-9802D01*
X59923Y-9710D01*
X59895Y-9615D01*
X59865Y-9562D01*
X59842Y-9506D01*
X59784Y-9426D01*
X59734Y-9341D01*
X59668Y-9265D01*
X59656Y-9249D01*
X59646Y-9241D01*
X59628Y-9220D01*
X59250Y-8842D01*
X58217Y-6349D01*
X58217Y-3651D01*
X59250Y-1158D01*
X61158Y750D01*
X63651Y1783D01*
X66349Y1783D01*
X68842Y750D01*
X70750Y-1158D01*
X71783Y-3651D01*
X71783Y-6349D01*
X70750Y-8842D01*
X70372Y-9220D01*
X70312Y-9298D01*
X70244Y-9370D01*
X70215Y-9423D01*
X70178Y-9471D01*
X70138Y-9562D01*
X70090Y-9649D01*
X70075Y-9707D01*
X70051Y-9763D01*
X70036Y-9861D01*
X70011Y-9957D01*
X70005Y-10057D01*
X70001Y-10077D01*
X70003Y-10089D01*
X70001Y-10117D01*
X70001Y-54883D01*
X70013Y-54981D01*
X70016Y-55080D01*
X70033Y-55138D01*
X70041Y-55198D01*
X70077Y-55290D01*
X70105Y-55385D01*
X70135Y-55438D01*
X70158Y-55494D01*
X70216Y-55574D01*
X70266Y-55659D01*
X70332Y-55735D01*
X70344Y-55751D01*
X70354Y-55759D01*
X70372Y-55780D01*
X70750Y-56158D01*
X71327Y-57551D01*
X71396Y-57672D01*
X71461Y-57795D01*
X71475Y-57810D01*
X71485Y-57828D01*
X71582Y-57928D01*
X71675Y-58031D01*
X71692Y-58042D01*
X71706Y-58056D01*
X71824Y-58129D01*
X71941Y-58205D01*
X71960Y-58212D01*
X71977Y-58222D01*
X72110Y-58263D01*
X72242Y-58308D01*
X72262Y-58310D01*
X72281Y-58316D01*
X72420Y-58323D01*
X72559Y-58334D01*
X72579Y-58330D01*
X72599Y-58331D01*
X72735Y-58303D01*
X72872Y-58279D01*
X72891Y-58271D01*
X72910Y-58267D01*
X73035Y-58206D01*
X73162Y-58149D01*
X73178Y-58136D01*
X73196Y-58127D01*
X73302Y-58037D01*
X73410Y-57950D01*
X73423Y-57934D01*
X73438Y-57921D01*
X73518Y-57807D01*
X73602Y-57696D01*
X73614Y-57671D01*
X73621Y-57661D01*
X73628Y-57642D01*
X73673Y-57552D01*
X74250Y-56158D01*
X74628Y-55780D01*
X74688Y-55702D01*
X74756Y-55630D01*
X74785Y-55577D01*
X74822Y-55529D01*
X74862Y-55438D01*
X74910Y-55351D01*
X74925Y-55293D01*
X74949Y-55237D01*
X74964Y-55139D01*
X74989Y-55043D01*
X74995Y-54943D01*
X74999Y-54923D01*
X74997Y-54911D01*
X74999Y-54883D01*
X74999Y-20117D01*
X74987Y-20019D01*
X74984Y-19920D01*
X74967Y-19862D01*
X74959Y-19802D01*
X74923Y-19710D01*
X74895Y-19615D01*
X74865Y-19562D01*
X74842Y-19506D01*
X74784Y-19426D01*
X74734Y-19341D01*
X74668Y-19265D01*
X74656Y-19249D01*
X74646Y-19241D01*
X74628Y-19220D01*
X74250Y-18842D01*
X73217Y-16349D01*
X73217Y-13651D01*
X74250Y-11158D01*
X76158Y-9250D01*
X78651Y-8217D01*
X81349Y-8217D01*
X83842Y-9250D01*
X85750Y-11158D01*
X86783Y-13651D01*
X86783Y-16349D01*
X85750Y-18842D01*
X85372Y-19220D01*
X85312Y-19298D01*
X85244Y-19370D01*
X85215Y-19423D01*
X85178Y-19471D01*
X85138Y-19562D01*
X85090Y-19649D01*
X85075Y-19707D01*
X85051Y-19763D01*
X85036Y-19861D01*
X85011Y-19957D01*
X85005Y-20057D01*
X85001Y-20077D01*
X85003Y-20089D01*
X85001Y-20117D01*
X85001Y-54883D01*
X85013Y-54981D01*
X85016Y-55080D01*
X85033Y-55138D01*
X85041Y-55198D01*
X85077Y-55290D01*
X85105Y-55385D01*
X85135Y-55438D01*
X85158Y-55494D01*
X85216Y-55574D01*
X85266Y-55659D01*
X85332Y-55735D01*
X85344Y-55751D01*
X85354Y-55759D01*
X85372Y-55780D01*
X85750Y-56158D01*
X86783Y-58651D01*
X86783Y-61349D01*
X85750Y-63842D01*
X83842Y-65750D01*
X81349Y-66783D01*
X78651Y-66783D01*
X76158Y-65750D01*
X74250Y-63842D01*
X73673Y-62448D01*
X73604Y-62327D01*
X73539Y-62205D01*
X73525Y-62190D01*
X73515Y-62172D01*
X73418Y-62072D01*
X73325Y-61969D01*
X73308Y-61958D01*
X73294Y-61944D01*
X73175Y-61871D01*
X73059Y-61795D01*
X73040Y-61788D01*
X73023Y-61778D01*
X72890Y-61737D01*
X72758Y-61692D01*
X72738Y-61690D01*
X72719Y-61684D01*
X72580Y-61677D01*
X72441Y-61666D01*
X72421Y-61670D01*
X72401Y-61669D01*
X72265Y-61697D01*
X72128Y-61721D01*
X72109Y-61729D01*
X72090Y-61733D01*
X71964Y-61794D01*
X71838Y-61851D01*
X71822Y-61864D01*
X71804Y-61873D01*
X71698Y-61963D01*
X71590Y-62050D01*
X71577Y-62066D01*
X71562Y-62079D01*
X71482Y-62193D01*
X71398Y-62304D01*
X71386Y-62329D01*
X71379Y-62339D01*
X71372Y-62358D01*
X71327Y-62449D01*
X70750Y-63842D01*
X68842Y-65750D01*
X66349Y-66783D01*
X63651Y-66783D01*
G37*
%LPD*%
%LPC*%
G36*
X43651Y-79283D02*
X43651Y-79283D01*
X41158Y-78250D01*
X39250Y-76342D01*
X38217Y-73849D01*
X38217Y-71151D01*
X39250Y-68658D01*
X39628Y-68280D01*
X39688Y-68202D01*
X39756Y-68130D01*
X39785Y-68077D01*
X39822Y-68029D01*
X39862Y-67938D01*
X39910Y-67851D01*
X39925Y-67793D01*
X39949Y-67737D01*
X39964Y-67639D01*
X39989Y-67543D01*
X39995Y-67443D01*
X39999Y-67423D01*
X39997Y-67411D01*
X39999Y-67383D01*
X39999Y-5117D01*
X39987Y-5019D01*
X39984Y-4920D01*
X39967Y-4862D01*
X39959Y-4802D01*
X39923Y-4710D01*
X39895Y-4615D01*
X39865Y-4562D01*
X39842Y-4506D01*
X39784Y-4426D01*
X39734Y-4341D01*
X39668Y-4265D01*
X39656Y-4249D01*
X39646Y-4241D01*
X39628Y-4220D01*
X39250Y-3842D01*
X38217Y-1349D01*
X38217Y1349D01*
X39250Y3842D01*
X41158Y5750D01*
X43651Y6783D01*
X46349Y6783D01*
X48842Y5750D01*
X50750Y3842D01*
X51783Y1349D01*
X51783Y-1349D01*
X50750Y-3842D01*
X50372Y-4220D01*
X50312Y-4298D01*
X50244Y-4370D01*
X50215Y-4423D01*
X50178Y-4471D01*
X50138Y-4562D01*
X50090Y-4649D01*
X50075Y-4707D01*
X50051Y-4763D01*
X50036Y-4861D01*
X50011Y-4957D01*
X50005Y-5057D01*
X50001Y-5077D01*
X50003Y-5089D01*
X50001Y-5117D01*
X50001Y-67383D01*
X50013Y-67481D01*
X50016Y-67580D01*
X50033Y-67638D01*
X50041Y-67698D01*
X50077Y-67790D01*
X50105Y-67885D01*
X50135Y-67938D01*
X50158Y-67994D01*
X50216Y-68074D01*
X50266Y-68159D01*
X50332Y-68235D01*
X50344Y-68251D01*
X50354Y-68259D01*
X50372Y-68280D01*
X50750Y-68658D01*
X51783Y-71151D01*
X51783Y-73849D01*
X50750Y-76342D01*
X48842Y-78250D01*
X46349Y-79283D01*
X43651Y-79283D01*
G37*
%LPD*%
%LPC*%
G36*
X178651Y-41783D02*
X178651Y-41783D01*
X176158Y-40750D01*
X174250Y-38842D01*
X173217Y-36349D01*
X173217Y-33651D01*
X174250Y-31158D01*
X174628Y-30780D01*
X174688Y-30702D01*
X174756Y-30630D01*
X174785Y-30577D01*
X174822Y-30529D01*
X174862Y-30438D01*
X174910Y-30351D01*
X174925Y-30293D01*
X174949Y-30237D01*
X174964Y-30139D01*
X174989Y-30043D01*
X174995Y-29943D01*
X174999Y-29923D01*
X174997Y-29911D01*
X174999Y-29883D01*
X174999Y29883D01*
X174987Y29981D01*
X174984Y30080D01*
X174967Y30138D01*
X174959Y30198D01*
X174923Y30290D01*
X174895Y30385D01*
X174865Y30438D01*
X174842Y30494D01*
X174784Y30574D01*
X174734Y30659D01*
X174668Y30735D01*
X174656Y30751D01*
X174646Y30759D01*
X174628Y30780D01*
X174250Y31158D01*
X173217Y33651D01*
X173217Y36349D01*
X174250Y38842D01*
X176158Y40750D01*
X178651Y41783D01*
X181349Y41783D01*
X183842Y40750D01*
X185750Y38842D01*
X186783Y36349D01*
X186783Y33651D01*
X185750Y31158D01*
X185372Y30780D01*
X185312Y30702D01*
X185244Y30630D01*
X185215Y30577D01*
X185178Y30529D01*
X185138Y30438D01*
X185090Y30351D01*
X185075Y30293D01*
X185051Y30237D01*
X185036Y30139D01*
X185011Y30043D01*
X185005Y29944D01*
X185003Y29937D01*
X185003Y29936D01*
X185001Y29923D01*
X185003Y29911D01*
X185001Y29883D01*
X185001Y-29883D01*
X185013Y-29981D01*
X185016Y-30080D01*
X185033Y-30138D01*
X185041Y-30198D01*
X185077Y-30290D01*
X185105Y-30385D01*
X185135Y-30438D01*
X185158Y-30494D01*
X185216Y-30574D01*
X185266Y-30659D01*
X185332Y-30735D01*
X185344Y-30751D01*
X185354Y-30759D01*
X185372Y-30780D01*
X185750Y-31158D01*
X186783Y-33651D01*
X186783Y-36349D01*
X185750Y-38842D01*
X183842Y-40750D01*
X181349Y-41783D01*
X178651Y-41783D01*
G37*
%LPD*%
%LPC*%
G36*
X152136Y241967D02*
X152136Y241967D01*
X149643Y243000D01*
X147735Y244908D01*
X146703Y247401D01*
X146703Y250099D01*
X147735Y252592D01*
X148621Y253477D01*
X148694Y253571D01*
X148773Y253661D01*
X148791Y253697D01*
X148816Y253729D01*
X148863Y253838D01*
X148917Y253944D01*
X148926Y253983D01*
X148942Y254021D01*
X148961Y254138D01*
X148987Y254254D01*
X148986Y254295D01*
X148992Y254335D01*
X148981Y254453D01*
X148977Y254572D01*
X148966Y254611D01*
X148962Y254651D01*
X148922Y254764D01*
X148889Y254878D01*
X148868Y254912D01*
X148855Y254951D01*
X148788Y255049D01*
X148727Y255152D01*
X148687Y255197D01*
X148676Y255214D01*
X148661Y255227D01*
X148621Y255272D01*
X147735Y256158D01*
X146703Y258651D01*
X146703Y261349D01*
X147735Y263842D01*
X149643Y265750D01*
X152136Y266783D01*
X154835Y266783D01*
X157328Y265750D01*
X157705Y265372D01*
X157784Y265312D01*
X157856Y265244D01*
X157909Y265215D01*
X157957Y265178D01*
X158047Y265138D01*
X158134Y265090D01*
X158193Y265075D01*
X158248Y265051D01*
X158346Y265036D01*
X158442Y265011D01*
X158542Y265005D01*
X158562Y265001D01*
X158575Y265003D01*
X158603Y265001D01*
X169883Y265001D01*
X169981Y265013D01*
X170080Y265016D01*
X170138Y265033D01*
X170198Y265041D01*
X170290Y265077D01*
X170385Y265105D01*
X170438Y265135D01*
X170494Y265158D01*
X170574Y265216D01*
X170659Y265266D01*
X170735Y265332D01*
X170751Y265344D01*
X170759Y265354D01*
X170780Y265372D01*
X171158Y265750D01*
X173651Y266783D01*
X176349Y266783D01*
X178842Y265750D01*
X180750Y263842D01*
X181783Y261349D01*
X181783Y258651D01*
X180750Y256158D01*
X179865Y255272D01*
X179792Y255178D01*
X179713Y255089D01*
X179695Y255053D01*
X179670Y255021D01*
X179622Y254912D01*
X179568Y254806D01*
X179560Y254767D01*
X179543Y254729D01*
X179525Y254612D01*
X179499Y254496D01*
X179500Y254455D01*
X179494Y254415D01*
X179505Y254297D01*
X179508Y254178D01*
X179520Y254139D01*
X179523Y254099D01*
X179564Y253987D01*
X179597Y253872D01*
X179617Y253837D01*
X179631Y253799D01*
X179698Y253701D01*
X179758Y253598D01*
X179798Y253553D01*
X179810Y253536D01*
X179825Y253523D01*
X179865Y253477D01*
X180750Y252592D01*
X181783Y250099D01*
X181783Y247401D01*
X180750Y244908D01*
X178842Y243000D01*
X176349Y241967D01*
X173651Y241967D01*
X171158Y243000D01*
X170780Y243378D01*
X170702Y243438D01*
X170630Y243506D01*
X170577Y243535D01*
X170529Y243572D01*
X170438Y243612D01*
X170351Y243660D01*
X170293Y243675D01*
X170237Y243699D01*
X170139Y243714D01*
X170043Y243739D01*
X169943Y243745D01*
X169923Y243749D01*
X169911Y243747D01*
X169883Y243749D01*
X158603Y243749D01*
X158505Y243737D01*
X158406Y243734D01*
X158347Y243717D01*
X158287Y243709D01*
X158195Y243673D01*
X158100Y243645D01*
X158048Y243615D01*
X157992Y243592D01*
X157911Y243534D01*
X157826Y243484D01*
X157751Y243418D01*
X157734Y243406D01*
X157726Y243396D01*
X157705Y243378D01*
X157328Y243000D01*
X154835Y241967D01*
X152136Y241967D01*
G37*
%LPD*%
%LPC*%
G36*
X-81349Y-96783D02*
X-81349Y-96783D01*
X-83842Y-95750D01*
X-85750Y-93842D01*
X-86783Y-91349D01*
X-86783Y-88651D01*
X-85750Y-86158D01*
X-85373Y-85780D01*
X-85312Y-85702D01*
X-85244Y-85630D01*
X-85215Y-85577D01*
X-85178Y-85529D01*
X-85138Y-85438D01*
X-85090Y-85351D01*
X-85075Y-85293D01*
X-85051Y-85237D01*
X-85036Y-85139D01*
X-85011Y-85043D01*
X-85005Y-84943D01*
X-85001Y-84923D01*
X-85003Y-84911D01*
X-85001Y-84883D01*
X-85001Y-50117D01*
X-85013Y-50019D01*
X-85016Y-49920D01*
X-85033Y-49862D01*
X-85041Y-49802D01*
X-85077Y-49710D01*
X-85105Y-49614D01*
X-85131Y-49569D01*
X-85132Y-49567D01*
X-85136Y-49561D01*
X-85158Y-49506D01*
X-85216Y-49426D01*
X-85266Y-49341D01*
X-85299Y-49303D01*
X-85302Y-49298D01*
X-85309Y-49291D01*
X-85332Y-49265D01*
X-85344Y-49249D01*
X-85354Y-49241D01*
X-85373Y-49220D01*
X-85750Y-48842D01*
X-86783Y-46349D01*
X-86783Y-43651D01*
X-85750Y-41158D01*
X-83842Y-39250D01*
X-81349Y-38217D01*
X-78651Y-38217D01*
X-76158Y-39250D01*
X-74250Y-41158D01*
X-73217Y-43651D01*
X-73217Y-46349D01*
X-74250Y-48842D01*
X-74627Y-49220D01*
X-74688Y-49298D01*
X-74756Y-49370D01*
X-74779Y-49412D01*
X-74790Y-49426D01*
X-74795Y-49436D01*
X-74822Y-49471D01*
X-74862Y-49562D01*
X-74910Y-49649D01*
X-74925Y-49707D01*
X-74949Y-49763D01*
X-74964Y-49861D01*
X-74989Y-49957D01*
X-74995Y-50057D01*
X-74999Y-50077D01*
X-74997Y-50089D01*
X-74999Y-50117D01*
X-74999Y-84883D01*
X-74987Y-84981D01*
X-74984Y-85080D01*
X-74967Y-85138D01*
X-74959Y-85198D01*
X-74923Y-85290D01*
X-74895Y-85386D01*
X-74865Y-85438D01*
X-74842Y-85494D01*
X-74784Y-85574D01*
X-74734Y-85659D01*
X-74668Y-85735D01*
X-74656Y-85751D01*
X-74646Y-85759D01*
X-74627Y-85780D01*
X-74250Y-86158D01*
X-73217Y-88651D01*
X-73217Y-91349D01*
X-74250Y-93842D01*
X-76158Y-95750D01*
X-78651Y-96783D01*
X-81349Y-96783D01*
G37*
%LPD*%
%LPC*%
G36*
X-152694Y251839D02*
X-152694Y251839D01*
X-157531Y253843D01*
X-161233Y257545D01*
X-163237Y262382D01*
X-163237Y267618D01*
X-161233Y272455D01*
X-157531Y276157D01*
X-152694Y278161D01*
X-147458Y278161D01*
X-142621Y276157D01*
X-138919Y272455D01*
X-136915Y267618D01*
X-136915Y262382D01*
X-138919Y257545D01*
X-142621Y253843D01*
X-147458Y251839D01*
X-152694Y251839D01*
G37*
%LPD*%
%LPC*%
G36*
X-102656Y251839D02*
X-102656Y251839D01*
X-107493Y253843D01*
X-111195Y257545D01*
X-113199Y262382D01*
X-113199Y267618D01*
X-111195Y272455D01*
X-107493Y276157D01*
X-102656Y278161D01*
X-97420Y278161D01*
X-92583Y276157D01*
X-88881Y272455D01*
X-86877Y267618D01*
X-86877Y262382D01*
X-88881Y257545D01*
X-92583Y253843D01*
X-97420Y251839D01*
X-102656Y251839D01*
G37*
%LPD*%
%LPC*%
G36*
X-202732Y251839D02*
X-202732Y251839D01*
X-207569Y253843D01*
X-211271Y257545D01*
X-213275Y262382D01*
X-213275Y267618D01*
X-211271Y272455D01*
X-207569Y276157D01*
X-202732Y278161D01*
X-197496Y278161D01*
X-192659Y276157D01*
X-188957Y272455D01*
X-186953Y267618D01*
X-186953Y262382D01*
X-188957Y257545D01*
X-192659Y253843D01*
X-197496Y251839D01*
X-202732Y251839D01*
G37*
%LPD*%
%LPC*%
G36*
X77382Y-273161D02*
X77382Y-273161D01*
X72545Y-271157D01*
X68843Y-267455D01*
X66839Y-262618D01*
X66839Y-257382D01*
X68843Y-252545D01*
X72545Y-248843D01*
X77382Y-246839D01*
X82618Y-246839D01*
X87455Y-248843D01*
X91157Y-252545D01*
X93161Y-257382D01*
X93161Y-262618D01*
X91157Y-267455D01*
X87455Y-271157D01*
X82618Y-273161D01*
X77382Y-273161D01*
G37*
%LPD*%
%LPC*%
G36*
X227496Y-273161D02*
X227496Y-273161D01*
X222659Y-271157D01*
X218957Y-267455D01*
X216953Y-262618D01*
X216953Y-257382D01*
X218957Y-252545D01*
X222659Y-248843D01*
X227496Y-246839D01*
X232732Y-246839D01*
X237569Y-248843D01*
X241271Y-252545D01*
X243275Y-257382D01*
X243275Y-262618D01*
X241271Y-267455D01*
X237569Y-271157D01*
X232732Y-273161D01*
X227496Y-273161D01*
G37*
%LPD*%
%LPC*%
G36*
X177458Y-273161D02*
X177458Y-273161D01*
X172621Y-271157D01*
X168919Y-267455D01*
X166915Y-262618D01*
X166915Y-257382D01*
X168919Y-252545D01*
X172621Y-248843D01*
X177458Y-246839D01*
X182694Y-246839D01*
X187531Y-248843D01*
X191233Y-252545D01*
X193237Y-257382D01*
X193237Y-262618D01*
X191233Y-267455D01*
X187531Y-271157D01*
X182694Y-273161D01*
X177458Y-273161D01*
G37*
%LPD*%
%LPC*%
G36*
X-148849Y23217D02*
X-148849Y23217D01*
X-151342Y24250D01*
X-153250Y26158D01*
X-154283Y28651D01*
X-154283Y31349D01*
X-153250Y33842D01*
X-151342Y35750D01*
X-148849Y36783D01*
X-146151Y36783D01*
X-143658Y35750D01*
X-143280Y35372D01*
X-143202Y35312D01*
X-143130Y35244D01*
X-143077Y35215D01*
X-143029Y35178D01*
X-142938Y35138D01*
X-142851Y35090D01*
X-142793Y35075D01*
X-142737Y35051D01*
X-142639Y35036D01*
X-142543Y35011D01*
X-142443Y35005D01*
X-142423Y35001D01*
X-142411Y35003D01*
X-142383Y35001D01*
X-131367Y35001D01*
X-131269Y35013D01*
X-131170Y35016D01*
X-131112Y35033D01*
X-131052Y35041D01*
X-130960Y35077D01*
X-130865Y35105D01*
X-130812Y35135D01*
X-130756Y35158D01*
X-130676Y35216D01*
X-130591Y35266D01*
X-130515Y35332D01*
X-130499Y35344D01*
X-130491Y35354D01*
X-130470Y35372D01*
X-130092Y35750D01*
X-127599Y36783D01*
X-124901Y36783D01*
X-122408Y35750D01*
X-120500Y33842D01*
X-119467Y31349D01*
X-119467Y28651D01*
X-120500Y26158D01*
X-122408Y24250D01*
X-124901Y23217D01*
X-127599Y23217D01*
X-130092Y24250D01*
X-130470Y24628D01*
X-130548Y24688D01*
X-130620Y24756D01*
X-130673Y24785D01*
X-130721Y24822D01*
X-130812Y24862D01*
X-130899Y24910D01*
X-130957Y24925D01*
X-131013Y24949D01*
X-131111Y24964D01*
X-131207Y24989D01*
X-131307Y24995D01*
X-131327Y24999D01*
X-131339Y24997D01*
X-131367Y24999D01*
X-142383Y24999D01*
X-142481Y24987D01*
X-142580Y24984D01*
X-142638Y24967D01*
X-142698Y24959D01*
X-142790Y24923D01*
X-142885Y24895D01*
X-142938Y24865D01*
X-142994Y24842D01*
X-143074Y24784D01*
X-143159Y24734D01*
X-143235Y24668D01*
X-143251Y24656D01*
X-143259Y24646D01*
X-143280Y24628D01*
X-143658Y24250D01*
X-146151Y23217D01*
X-148849Y23217D01*
G37*
%LPD*%
%LPC*%
G36*
X-81349Y-31783D02*
X-81349Y-31783D01*
X-83842Y-30750D01*
X-85750Y-28842D01*
X-86783Y-26349D01*
X-86783Y-23651D01*
X-85750Y-21158D01*
X-85372Y-20780D01*
X-85312Y-20702D01*
X-85244Y-20630D01*
X-85215Y-20577D01*
X-85178Y-20529D01*
X-85138Y-20438D01*
X-85090Y-20351D01*
X-85075Y-20293D01*
X-85051Y-20237D01*
X-85036Y-20139D01*
X-85011Y-20043D01*
X-85005Y-19943D01*
X-85001Y-19923D01*
X-85003Y-19911D01*
X-85001Y-19883D01*
X-85001Y-10117D01*
X-85013Y-10019D01*
X-85016Y-9920D01*
X-85033Y-9862D01*
X-85041Y-9802D01*
X-85077Y-9710D01*
X-85105Y-9615D01*
X-85135Y-9562D01*
X-85158Y-9506D01*
X-85216Y-9426D01*
X-85266Y-9341D01*
X-85332Y-9265D01*
X-85344Y-9249D01*
X-85354Y-9241D01*
X-85372Y-9220D01*
X-85750Y-8842D01*
X-86783Y-6349D01*
X-86783Y-3651D01*
X-85750Y-1158D01*
X-83842Y750D01*
X-81349Y1783D01*
X-78651Y1783D01*
X-76158Y750D01*
X-74250Y-1158D01*
X-73217Y-3651D01*
X-73217Y-6349D01*
X-74250Y-8842D01*
X-74628Y-9220D01*
X-74688Y-9298D01*
X-74756Y-9370D01*
X-74785Y-9423D01*
X-74822Y-9471D01*
X-74862Y-9562D01*
X-74910Y-9649D01*
X-74925Y-9707D01*
X-74949Y-9763D01*
X-74964Y-9861D01*
X-74989Y-9957D01*
X-74995Y-10057D01*
X-74999Y-10077D01*
X-74997Y-10089D01*
X-74999Y-10117D01*
X-74999Y-19883D01*
X-74987Y-19981D01*
X-74984Y-20080D01*
X-74967Y-20138D01*
X-74959Y-20198D01*
X-74923Y-20290D01*
X-74895Y-20385D01*
X-74865Y-20438D01*
X-74842Y-20494D01*
X-74784Y-20574D01*
X-74734Y-20659D01*
X-74668Y-20735D01*
X-74656Y-20751D01*
X-74646Y-20759D01*
X-74628Y-20780D01*
X-74250Y-21158D01*
X-73217Y-23651D01*
X-73217Y-26349D01*
X-74250Y-28842D01*
X-76158Y-30750D01*
X-78651Y-31783D01*
X-81349Y-31783D01*
G37*
%LPD*%
%LPC*%
G36*
X-224112Y-45913D02*
X-224112Y-45913D01*
X-227828Y-44373D01*
X-230673Y-41528D01*
X-232213Y-37812D01*
X-232213Y-33788D01*
X-230673Y-30072D01*
X-227828Y-27227D01*
X-224112Y-25687D01*
X-220088Y-25687D01*
X-216372Y-27227D01*
X-213527Y-30072D01*
X-211987Y-33788D01*
X-211987Y-37812D01*
X-213527Y-41528D01*
X-216372Y-44373D01*
X-220088Y-45913D01*
X-224112Y-45913D01*
G37*
%LPD*%
%LPC*%
G36*
X-224112Y-71313D02*
X-224112Y-71313D01*
X-227828Y-69773D01*
X-230673Y-66928D01*
X-232213Y-63212D01*
X-232213Y-59188D01*
X-230673Y-55472D01*
X-227828Y-52627D01*
X-224112Y-51087D01*
X-220088Y-51087D01*
X-216372Y-52627D01*
X-213527Y-55472D01*
X-211987Y-59188D01*
X-211987Y-63212D01*
X-213527Y-66928D01*
X-216372Y-69773D01*
X-220088Y-71313D01*
X-224112Y-71313D01*
G37*
%LPD*%
%LPC*%
G36*
X-249512Y-20513D02*
X-249512Y-20513D01*
X-253228Y-18973D01*
X-256073Y-16128D01*
X-257613Y-12412D01*
X-257613Y-8388D01*
X-256073Y-4672D01*
X-253228Y-1827D01*
X-249512Y-287D01*
X-245488Y-287D01*
X-241772Y-1827D01*
X-238927Y-4672D01*
X-237387Y-8388D01*
X-237387Y-12412D01*
X-238927Y-16128D01*
X-241772Y-18973D01*
X-245488Y-20513D01*
X-249512Y-20513D01*
G37*
%LPD*%
%LPC*%
G36*
X-224112Y-20513D02*
X-224112Y-20513D01*
X-227828Y-18973D01*
X-230673Y-16128D01*
X-232213Y-12412D01*
X-232213Y-8388D01*
X-230673Y-4672D01*
X-227828Y-1827D01*
X-224112Y-287D01*
X-220088Y-287D01*
X-216372Y-1827D01*
X-213527Y-4672D01*
X-211987Y-8388D01*
X-211987Y-12412D01*
X-213527Y-16128D01*
X-216372Y-18973D01*
X-220088Y-20513D01*
X-224112Y-20513D01*
G37*
%LPD*%
D10*
X-247500Y15000D03*
X-222100Y15000D03*
X-247500Y-10400D03*
X-222100Y-10400D03*
X-247500Y-35800D03*
X-222100Y-35800D03*
X-247500Y-61200D03*
X-222100Y-61200D03*
D11*
X-217500Y-280400D03*
D12*
X-217500Y-255000D03*
X-217500Y-229600D03*
D13*
X80000Y-260000D03*
X130038Y-260000D03*
X180076Y-260000D03*
X230114Y-260000D03*
X-50000Y265000D03*
X-100038Y265000D03*
X-150076Y265000D03*
X-200114Y265000D03*
D14*
X-200000Y-115000D03*
X-200000Y-135000D03*
X-200000Y-155000D03*
D15*
X-200000Y-94000D03*
X-200000Y-176000D03*
D14*
X-255000Y-115000D03*
X-255000Y-135000D03*
X-255000Y-155000D03*
D15*
X-255000Y-94000D03*
X-255000Y-176000D03*
D14*
X-145000Y-115000D03*
X-145000Y-135000D03*
X-145000Y-155000D03*
D15*
X-145000Y-94000D03*
X-145000Y-176000D03*
D16*
X-250000Y350000D03*
X250000Y-350000D03*
X250000Y350000D03*
X-250000Y-350000D03*
D17*
X-91250Y121250D03*
X-55000Y200000D03*
X-92500Y95000D03*
X-112500Y112500D03*
X-113750Y140000D03*
X-91250Y142500D03*
X-106250Y167500D03*
X52500Y187500D03*
X-77500Y198750D03*
X-18750Y198750D03*
X10000Y213750D03*
X-48750Y167500D03*
X-50000Y95000D03*
X11250Y165000D03*
X43750Y165000D03*
X-92500Y65000D03*
X-187500Y175000D03*
X-27500Y222500D03*
X216250Y243750D03*
X210000Y183750D03*
X132500Y270000D03*
X210000Y36250D03*
X145000Y91250D03*
X145000Y106250D03*
X145000Y121250D03*
X130000Y121250D03*
X130000Y106250D03*
X130000Y91250D03*
X115000Y91250D03*
X115000Y106250D03*
X115000Y121250D03*
X7500Y237500D03*
X-240000Y-215000D03*
X97500Y-362500D03*
X-260000Y-215000D03*
X36250Y278750D03*
X162500Y311250D03*
X36250Y353750D03*
X-195000Y-10000D03*
X210000Y0D03*
X-125000Y-50000D03*
X-260000Y50000D03*
X-220000Y50000D03*
X-25000Y78750D03*
X-240000Y-245000D03*
X-260000Y-245000D03*
X-55000Y-340000D03*
X-75000Y-340000D03*
X-95000Y-340000D03*
X-95000Y-310000D03*
X-95000Y-325000D03*
X-75000Y-310000D03*
X-75000Y-325000D03*
X-55000Y-325000D03*
X-55000Y-310000D03*
X-50000Y107500D03*
D18*
X-56250Y107500D01*
X-83750Y80000D01*
X-125000Y80000D01*
D17*
X-125000Y80000D03*
X20000Y245000D03*
X-126250Y30000D03*
D19*
X-147500Y30000D01*
D17*
X-147500Y30000D03*
X20000Y320000D03*
D19*
X20000Y265000D02*
X20000Y245000D01*
X20000Y265000D02*
X20000Y320000D01*
D20*
X-238350Y31250D02*
X-222100Y15000D01*
X-238350Y31250D02*
X-273750Y31250D01*
X-279920Y25080D01*
X-279920Y-185080D01*
D17*
X61250Y175000D03*
X65000Y260000D03*
D19*
X60000Y265000D01*
X20000Y265000D01*
X67500Y257500D02*
X67500Y181250D01*
X61250Y175000D01*
X67500Y257500D02*
X65000Y260000D01*
D20*
X-279920Y-185080D02*
X-267980Y-197020D01*
X-225480Y-197020D02*
X-213750Y-208750D01*
X-225480Y-197020D02*
X-267980Y-197020D01*
D17*
X80000Y-15000D03*
D19*
X80000Y-60000D01*
D17*
X80000Y-60000D03*
X-80000Y-25000D03*
D19*
X-80000Y-5000D01*
D17*
X-80000Y-5000D03*
X-80000Y-45000D03*
X-80000Y-90000D03*
D19*
X-80000Y-45000D01*
D17*
X90000Y240000D03*
D19*
X90000Y186250D01*
D17*
X90000Y186250D03*
X83854Y172500D03*
D19*
X95104Y172500D02*
X100000Y177396D01*
X95104Y172500D02*
X83854Y172500D01*
D17*
X100000Y250000D03*
D19*
X100000Y177396D01*
X-165000Y-115000D02*
X-145000Y-135000D01*
X-165000Y-71250D02*
X-145000Y-51250D01*
D17*
X-145000Y-51250D03*
D19*
X-165000Y-71250D02*
X-165000Y-115000D01*
D17*
X110000Y35000D03*
D19*
X110000Y-85000D01*
X90000Y-105000D01*
X40000Y-105000D01*
D17*
X40000Y-105000D03*
D19*
X-185000Y-135000D02*
X-200000Y-135000D01*
X-185000Y-135000D02*
X-175000Y-145000D01*
X-175000Y-180000D01*
X-125000Y-195000D02*
X-110000Y-180000D01*
D17*
X-110000Y-180000D03*
D19*
X-160000Y-195000D02*
X-175000Y-180000D01*
X-160000Y-195000D02*
X-125000Y-195000D01*
D17*
X180000Y35000D03*
D19*
X180000Y-35000D01*
D17*
X180000Y-35000D03*
X10000Y-380000D03*
D21*
X-203325Y-380000D01*
X-211250Y-286650D02*
X-217500Y-280400D01*
X-211250Y-286650D02*
X-211250Y-372075D01*
X-203325Y-380000D01*
D17*
X95000Y35000D03*
D19*
X95000Y-80000D01*
X85000Y-90000D01*
X40000Y-90000D01*
D17*
X40000Y-90000D03*
X175000Y248750D03*
D19*
X153486Y248750D01*
D17*
X153486Y248750D03*
X175000Y260000D03*
D19*
X153486Y260000D01*
D17*
X153486Y260000D03*
D19*
X-240000Y-135000D02*
X-255000Y-135000D01*
X-240000Y-135000D02*
X-225000Y-150000D01*
X-225000Y-176230D01*
X-196230Y-205000D02*
X-115000Y-205000D01*
X-196230Y-205000D02*
X-225000Y-176230D01*
D17*
X-100000Y-190000D03*
D19*
X-115000Y-205000D01*
D17*
X45000Y-72500D03*
D19*
X45000Y0D01*
D17*
X45000Y0D03*
X65000Y-5000D03*
D19*
X65000Y-60000D01*
D17*
X65000Y-60000D03*
M02*
