M48
;GenerationSoftware,Autodesk,EAGLE,9.6.2*%
;CreationDate,2020-11-10T23:13:26Z*%
FMAT,2
ICI,OFF
METRIC,TZ,000.000
T6C0.350
T5C0.800
T4C1.000
T3C1.270
T2C1.500
T1C3.175
%
G90
M71
T1
X-25000Y35000
X25000Y-35000
X25000Y35000
X-25000Y-35000
T2
X-20000Y-9400
X-14500Y-9400
X-14500Y-17600
X-25500Y-17600
X-25500Y-9400
X-20000Y-17600
T3
X-15008Y26500
X18008Y-26000
X23011Y-26000
X-5000Y26500
X-10004Y26500
X-20011Y26500
X8000Y-26000
X13004Y-26000
T4
X-21750Y-22960
X-21750Y-25500
X-21750Y-28040
T5
X-24750Y1500
X-24750Y-1040
X-22210Y-1040
X-24750Y-3580
X-22210Y-3580
X-20000Y-11500
X-20000Y-13500
X-20000Y-15500
X-25500Y-11500
X-25500Y-13500
X-25500Y-15500
X-22210Y-6120
X-14500Y-11500
X-14500Y-13500
X-14500Y-15500
X-24750Y-6120
X-22210Y1500
T6
X-26000Y-21500
X3625Y27875
X16250Y31125
X3625Y35375
X-19500Y-1000
X21000Y0
X-12500Y-5000
X-26000Y5000
X-22000Y5000
X-2500Y7875
X-24000Y-24500
X-26000Y-24500
X-5500Y-34000
X-7500Y-34000
X-9500Y-34000
X-9500Y-31000
X-9500Y-32500
X-7500Y-31000
X-7500Y-32500
X-5500Y-32500
X-5500Y-31000
X-5000Y10750
X-12500Y8000
X2000Y24500
X-12625Y3000
X-14750Y3000
X-5000Y9500
X6125Y17500
X6500Y26000
X8000Y-1500
X8000Y-6000
X-8000Y-2500
X-8000Y-500
X-8000Y-4500
X-8000Y-9000
X9000Y24000
X9000Y18625
X8385Y17250
X10000Y25000
X-14500Y-5125
X11000Y3500
X4000Y-10500
X-11000Y-18000
X18000Y3500
X18000Y-3500
X1000Y-38000
X9500Y3500
X4000Y-9000
X17500Y24875
X15349Y24875
X17500Y26000
X15349Y26000
X-10000Y-19000
X4500Y-7250
X4500Y0
X6500Y-500
X6500Y-6000
X-9125Y12125
X-5500Y20000
X-9250Y9500
X-11250Y11250
X-11375Y14000
X-9125Y14250
X-10625Y16750
X5250Y18750
X-7750Y19875
X-1875Y19875
X1000Y21375
X-4875Y16750
X1125Y16500
X4375Y16500
X-9250Y6500
X-18750Y17500
X-2750Y22250
X2000Y32000
X21625Y24375
X21000Y18375
X13250Y27000
X21000Y3625
X14500Y9125
X14500Y10625
X14500Y12125
X13000Y12125
X13000Y10625
X13000Y9125
X11500Y9125
X11500Y10625
X11500Y12125
X750Y23750
X-24000Y-21500
X9750Y-36250
M30