G04 EAGLE Gerber RS-274X export*
G75*
%MOMM*%
%FSLAX34Y34*%
%LPD*%
%IN*%
%IPPOS*%
%AMOC8*
5,1,8,0,0,1.08239X$1,22.5*%
G01*
%ADD10C,0.254000*%


D10*
X-290000Y-350000D02*
X-289393Y-353903D01*
X-288448Y-357738D01*
X-287173Y-361477D01*
X-285576Y-365089D01*
X-283671Y-368549D01*
X-281471Y-371830D01*
X-278994Y-374907D01*
X-276258Y-377756D01*
X-273284Y-380355D01*
X-270095Y-382686D01*
X-266715Y-384730D01*
X-263170Y-386471D01*
X-259486Y-387897D01*
X-255692Y-388996D01*
X-251817Y-389761D01*
X-247890Y-390185D01*
X-243941Y-390265D01*
X-240000Y-390000D01*
X240000Y-390000D01*
X243941Y-390265D01*
X247890Y-390185D01*
X251817Y-389761D01*
X255692Y-388996D01*
X259486Y-387897D01*
X263170Y-386471D01*
X266715Y-384730D01*
X270095Y-382686D01*
X273284Y-380355D01*
X276258Y-377756D01*
X278994Y-374907D01*
X281471Y-371830D01*
X283671Y-368549D01*
X285576Y-365089D01*
X287173Y-361477D01*
X288448Y-357738D01*
X289393Y-353903D01*
X290000Y-350000D01*
X290000Y350000D01*
X289848Y353486D01*
X289392Y356946D01*
X288637Y360353D01*
X287588Y363681D01*
X286252Y366905D01*
X284641Y370000D01*
X282766Y372943D01*
X280642Y375712D01*
X278284Y378284D01*
X275712Y380642D01*
X272943Y382766D01*
X270000Y384641D01*
X266905Y386252D01*
X263681Y387588D01*
X260353Y388637D01*
X256946Y389392D01*
X253486Y389848D01*
X250000Y390000D01*
X-250000Y390000D01*
X-253486Y389848D01*
X-256946Y389392D01*
X-260353Y388637D01*
X-263681Y387588D01*
X-266905Y386252D01*
X-270000Y384641D01*
X-272943Y382766D01*
X-275712Y380642D01*
X-278284Y378284D01*
X-280642Y375712D01*
X-282766Y372943D01*
X-284641Y370000D01*
X-286252Y366905D01*
X-287588Y363681D01*
X-288637Y360353D01*
X-289392Y356946D01*
X-289848Y353486D01*
X-290000Y350000D01*
X-290000Y-350000D01*
M02*
