G04 EAGLE Gerber RS-274X export*
G75*
%MOMM*%
%FSLAX34Y34*%
%LPD*%
%INSoldermask Top*%
%IPPOS*%
%AMOC8*
5,1,8,0,0,1.08239X$1,22.5*%
G01*
%ADD10R,1.203200X1.703200*%
%ADD11R,1.703200X1.203200*%
%ADD12R,6.203200X6.203200*%
%ADD13R,1.866900X0.736600*%
%ADD14R,0.762000X1.866900*%
%ADD15R,4.203200X4.703200*%
%ADD16R,3.465000X2.132300*%
%ADD17R,2.209800X0.965200*%
%ADD18R,1.651000X2.946400*%
%ADD19R,1.447800X1.447800*%
%ADD20R,2.844800X1.244600*%
%ADD21R,2.844800X1.752600*%
%ADD22C,1.625600*%
%ADD23R,1.653200X1.353200*%
%ADD24R,1.353200X2.903200*%
%ADD25R,1.503200X1.703200*%
%ADD26R,1.353200X1.653200*%
%ADD27R,1.703200X1.503200*%
%ADD28R,5.603200X6.403200*%
%ADD29R,1.203200X1.803200*%
%ADD30R,1.711200X1.711200*%
%ADD31C,1.711200*%
%ADD32R,0.933200X1.413200*%
%ADD33R,0.803200X1.403200*%
%ADD34C,2.235200*%
%ADD35R,1.600200X0.762000*%
%ADD36C,1.603200*%
%ADD37C,2.453200*%
%ADD38C,6.203200*%

G36*
X171005Y-146001D02*
X171005Y-146001D01*
X171005Y-146000D01*
X171005Y-74000D01*
X171001Y-73995D01*
X171000Y-73995D01*
X59000Y-73995D01*
X58995Y-73999D01*
X58995Y-74000D01*
X58995Y-146000D01*
X58999Y-146005D01*
X59000Y-146005D01*
X171000Y-146005D01*
X171005Y-146001D01*
G37*
D10*
X171900Y202500D03*
X159200Y202500D03*
X146500Y202500D03*
X133800Y202500D03*
X121100Y202500D03*
X108400Y202500D03*
X95700Y202500D03*
X83000Y202500D03*
D11*
X27500Y52700D03*
D10*
X44900Y17500D03*
X57600Y17500D03*
X70300Y17500D03*
X83000Y17500D03*
X95700Y17500D03*
X108400Y17500D03*
X121100Y17500D03*
D11*
X27500Y141600D03*
D10*
X70300Y202500D03*
X57600Y202500D03*
X44900Y202500D03*
D11*
X27500Y167000D03*
X27500Y154300D03*
D10*
X184600Y202500D03*
X197300Y202500D03*
X210000Y202500D03*
D11*
X27500Y128900D03*
X27500Y116200D03*
X27500Y103500D03*
X27500Y65400D03*
X27500Y78100D03*
X27500Y90800D03*
D10*
X133800Y17500D03*
X146500Y17500D03*
X159200Y17500D03*
X171900Y17500D03*
X184600Y17500D03*
X197300Y17500D03*
X210000Y17500D03*
D12*
X133000Y107000D03*
D13*
X-163258Y-8450D03*
X-163258Y-21150D03*
X-163258Y-33850D03*
X-163258Y-46550D03*
X-106743Y-46550D03*
X-106743Y-33850D03*
X-106743Y-21150D03*
X-106743Y-8450D03*
D14*
X144450Y338958D03*
X131750Y338958D03*
X119050Y338958D03*
X106350Y338958D03*
X93650Y338958D03*
X80950Y338958D03*
X68250Y338958D03*
X55550Y338958D03*
X55550Y282443D03*
X68250Y282443D03*
X80950Y282443D03*
X93650Y282443D03*
X106350Y282443D03*
X119050Y282443D03*
X131750Y282443D03*
X144450Y282443D03*
D15*
X-31500Y-110000D03*
X261500Y-110000D03*
D16*
X15000Y-230000D03*
X15000Y-280000D03*
D17*
X-69224Y72810D03*
X-69224Y83810D03*
X-69224Y94810D03*
X-69224Y105810D03*
X-69224Y116810D03*
X-69224Y127810D03*
X-69224Y138810D03*
X-69224Y149810D03*
D18*
X-195974Y84814D03*
X-195974Y136094D03*
D19*
X-196990Y166314D03*
D20*
X-75418Y51605D03*
D21*
X-75418Y184655D03*
D22*
X-247500Y15000D03*
X-222100Y15000D03*
X-247500Y-10400D03*
X-222100Y-10400D03*
X-247500Y-35800D03*
X-222100Y-35800D03*
X-247500Y-61200D03*
X-222100Y-61200D03*
D23*
X-100000Y-239000D03*
X-100000Y-221000D03*
X-65000Y-239000D03*
X-65000Y-221000D03*
D24*
X-130000Y-320000D03*
X-160000Y-320000D03*
D25*
X-94500Y-110000D03*
X-75500Y-110000D03*
D26*
X141000Y370000D03*
X159000Y370000D03*
X91000Y370000D03*
X109000Y370000D03*
D23*
X175000Y339000D03*
X175000Y321000D03*
D26*
X69000Y370000D03*
X51000Y370000D03*
X189000Y295000D03*
X171000Y295000D03*
D27*
X35000Y225500D03*
X35000Y244500D03*
X0Y114500D03*
X0Y95500D03*
D25*
X-19500Y150000D03*
X-500Y150000D03*
X-19500Y180000D03*
X-500Y180000D03*
D27*
X-108750Y10500D03*
X-108750Y29500D03*
X-80000Y10500D03*
X-80000Y29500D03*
D23*
X-165000Y11000D03*
X-165000Y29000D03*
X-35000Y114000D03*
X-35000Y96000D03*
D24*
X-130000Y-355000D03*
X-160000Y-355000D03*
D27*
X70000Y225500D03*
X70000Y244500D03*
X-50000Y29500D03*
X-50000Y10500D03*
X0Y50500D03*
X0Y69500D03*
D25*
X145500Y230000D03*
X164500Y230000D03*
X144500Y-345000D03*
X125500Y-345000D03*
D26*
X209000Y230000D03*
X191000Y230000D03*
X-94000Y-140000D03*
X-76000Y-140000D03*
X-94000Y-165000D03*
X-76000Y-165000D03*
D23*
X-195000Y-331000D03*
X-195000Y-349000D03*
D28*
X-75000Y-335000D03*
D29*
X-52200Y-262000D03*
X-97800Y-262000D03*
D30*
X-217500Y-280400D03*
D31*
X-217500Y-255000D03*
X-217500Y-229600D03*
D25*
X-500Y15000D03*
X-19500Y15000D03*
D32*
X10000Y-349300D03*
X10000Y-315700D03*
D33*
X260250Y269000D03*
X260250Y251000D03*
X269750Y251000D03*
X269750Y269000D03*
D25*
X69500Y-370000D03*
X50500Y-370000D03*
D34*
X80000Y-260000D03*
X130038Y-260000D03*
X180076Y-260000D03*
X230114Y-260000D03*
X-50000Y265000D03*
X-100038Y265000D03*
X-150076Y265000D03*
X-200114Y265000D03*
D35*
X180221Y-349840D03*
X180221Y-370160D03*
X199779Y-360000D03*
D25*
X125500Y-370000D03*
X144500Y-370000D03*
X234500Y265000D03*
X215500Y265000D03*
X234500Y295000D03*
X215500Y295000D03*
D36*
X-200000Y-115000D03*
X-200000Y-135000D03*
X-200000Y-155000D03*
D37*
X-200000Y-94000D03*
X-200000Y-176000D03*
D36*
X-255000Y-115000D03*
X-255000Y-135000D03*
X-255000Y-155000D03*
D37*
X-255000Y-94000D03*
X-255000Y-176000D03*
D36*
X-145000Y-115000D03*
X-145000Y-135000D03*
X-145000Y-155000D03*
D37*
X-145000Y-94000D03*
X-145000Y-176000D03*
D32*
X-165000Y-281800D03*
X-165000Y-248200D03*
X-130000Y-248200D03*
X-130000Y-281800D03*
D38*
X-250000Y350000D03*
X250000Y-350000D03*
X250000Y350000D03*
X-250000Y-350000D03*
M02*
